<svg width="175" height="68" viewBox="0 0 175 68" fill="none" xmlns="http://www.w3.org/2000/svg">
<g clip-path="url(#clip0_41_2783)">
<path d="M0.9862 34.988C0.724643 34.988 0.4738 34.8837 0.288851 34.6981C0.103902 34.5124 0 34.2606 0 33.998C0 33.7355 0.103902 33.4837 0.288851 33.298C0.4738 33.1124 0.724643 33.0081 0.9862 33.0081H108.236C108.497 33.0081 108.748 33.1124 108.933 33.298C109.118 33.4837 109.222 33.7355 109.222 33.998C109.222 34.2606 109.118 34.5124 108.933 34.6981C108.748 34.8837 108.497 34.988 108.236 34.988H0.9862Z" fill="#DA292F"/>
<path d="M22.5797 32.0179H13.1697L17.8295 22.5758L22.5797 32.0179ZM34.5991 47.1317L27.6998 33.3667C27.6094 33.1893 27.6094 33.0986 27.5189 33.0079L19.7115 17.3577C19.5094 16.8989 19.1629 16.5193 18.7253 16.277C18.248 16.0521 17.7028 16.02 17.2026 16.1874C16.7023 16.3548 16.2853 16.7088 16.0379 17.1762L8.1524 33.0079C8.1524 33.0986 8.06199 33.1894 8.06199 33.2801L1.16269 47.1317C0.937103 47.6078 0.906566 48.1537 1.07764 48.6521C1.24871 49.1506 1.60774 49.5617 2.07757 49.7973C2.5474 50.0328 3.09054 50.0739 3.59025 49.9118C4.08997 49.7497 4.50638 49.3972 4.75 48.9302L11.2014 35.9778H24.5521L31.0035 48.9302C31.251 49.3976 31.6679 49.7517 32.1682 49.9191C32.6684 50.0865 33.2136 50.0544 33.6909 49.8294C34.1566 49.5811 34.5093 49.1625 34.676 48.6603C34.8428 48.1582 34.8108 47.6109 34.5867 47.1317M82.434 47.9567V20.0555C82.434 19.5303 82.2262 19.0267 81.8563 18.6554C81.4864 18.2841 80.9847 18.0755 80.4616 18.0755C79.9385 18.0755 79.4368 18.2841 79.0669 18.6554C78.697 19.0267 78.4892 19.5303 78.4892 20.0555V47.9402C78.4892 48.4653 78.697 48.969 79.0669 49.3403C79.4368 49.7116 79.9385 49.9202 80.4616 49.9202C80.9847 49.9202 81.4864 49.7116 81.8563 49.3403C82.2262 48.969 82.434 48.4653 82.434 47.9402M121.142 33.9978C121.149 35.7006 120.82 37.3878 120.174 38.9622C119.527 40.5367 118.577 41.9671 117.378 43.1712C116.178 44.3752 114.753 45.329 113.185 45.9776C111.617 46.6262 109.936 46.9568 108.24 46.9502C106.543 46.9579 104.862 46.6281 103.293 45.9799C101.724 45.3316 100.299 44.3779 99.099 43.1736C97.8993 41.9693 96.9492 40.5385 96.3035 38.9635C95.6578 37.3886 95.3292 35.7009 95.3368 33.9978C95.3292 32.2948 95.6578 30.6071 96.3035 29.0322C96.9492 27.4572 97.8993 26.0264 99.099 24.8221C100.299 23.6178 101.724 22.664 103.293 22.0158C104.862 21.3676 106.543 21.0378 108.24 21.0455C109.936 21.0389 111.617 21.3695 113.185 22.0181C114.753 22.6667 116.178 23.6205 117.378 24.8245C118.577 26.0286 119.527 27.459 120.174 29.0334C120.82 30.6079 121.149 32.2951 121.142 33.9978ZM125.083 33.9978C125.086 31.776 124.653 29.5753 123.807 27.5219C122.962 25.4686 121.721 23.6029 120.156 22.0317C118.591 20.4606 116.732 19.215 114.687 18.3662C112.641 17.5175 110.449 17.0822 108.236 17.0855C103.767 17.0855 99.482 18.8673 96.3225 22.039C93.1629 25.2107 91.3879 29.5124 91.3879 33.9978C91.3879 38.4833 93.1629 42.785 96.3225 45.9567C99.482 49.1284 103.767 50.9102 108.236 50.9102C110.449 50.9134 112.641 50.4782 114.687 49.6295C116.732 48.7807 118.591 47.535 120.156 45.9639C121.721 44.3928 122.962 42.5271 123.807 40.4738C124.653 38.4204 125.086 36.2197 125.083 33.9978ZM167.819 47.668L162.888 18.7066C162.832 18.3624 162.687 18.0393 162.466 17.7703C162.245 17.5013 161.956 17.2963 161.63 17.1762C161.389 17.0835 161.132 17.0403 160.875 17.0492C160.617 17.0582 160.363 17.1191 160.129 17.2284C159.896 17.3378 159.686 17.4932 159.513 17.6855C159.34 17.8778 159.208 18.103 159.124 18.3477L150.083 42.3633L140.94 18.4385C140.851 18.0868 140.658 17.7702 140.387 17.5298C140.116 17.2893 139.779 17.136 139.42 17.0896C138.898 16.9979 138.361 17.1161 137.925 17.4187C137.489 17.7213 137.189 18.1839 137.09 18.7066L132.159 47.668C132.064 48.1925 132.18 48.7337 132.482 49.1723C132.784 49.6109 133.247 49.9111 133.77 50.0068C134.293 50.1025 134.832 49.986 135.269 49.6827C135.705 49.3795 136.005 48.9144 136.1 48.3898L139.864 26.6224L148.197 48.7487C148.396 49.2429 148.777 49.6408 149.261 49.8592C149.745 50.0776 150.294 50.0994 150.794 49.9202C151.064 49.8268 151.309 49.6727 151.511 49.4696C151.712 49.2666 151.865 49.02 151.957 48.7487L160.291 26.6224L164.055 48.3898C164.099 48.6509 164.195 48.9005 164.337 49.1238C164.479 49.3472 164.664 49.5398 164.881 49.6905C165.098 49.8411 165.342 49.9467 165.601 50.001C165.859 50.0553 166.125 50.0573 166.385 50.0068C166.861 49.8512 167.267 49.5305 167.53 49.102C167.793 48.6735 167.895 48.1652 167.819 47.668Z" fill="#000100"/>
<path d="M57.167 33.9979C66.3963 22.9348 75.0255 11.6021 83.0549 0C73.1928 9.80091 63.7006 20.0556 54.5618 30.9372C45.423 20.0514 35.9267 9.79679 26.1592 0C34.2241 11.6021 42.8534 22.9348 52.047 33.9979C42.8178 45.0611 34.1885 56.3937 26.1592 67.9959C36.0212 58.195 45.5189 47.8826 54.6522 37.0587C63.791 47.8551 73.2887 58.1675 83.1453 67.9959C74.9968 56.3924 66.3963 45.0611 57.167 33.9979Z" fill="#000100"/>
<path d="M54.5657 29.3202C55.0605 29.3202 55.4615 28.9176 55.4615 28.421C55.4615 27.9243 55.0605 27.5217 54.5657 27.5217C54.071 27.5217 53.6699 27.9243 53.6699 28.421C53.6699 28.9176 54.071 29.3202 54.5657 29.3202Z" fill="#000100"/>
<path d="M56.0901 27.7032C56.5349 27.7032 56.8955 27.3412 56.8955 26.8947C56.8955 26.4482 56.5349 26.0862 56.0901 26.0862C55.6453 26.0862 55.2847 26.4482 55.2847 26.8947C55.2847 27.3412 55.6453 27.7032 56.0901 27.7032Z" fill="#000100"/>
<path d="M57.5242 26.1729C57.969 26.1729 58.3295 25.8109 58.3295 25.3644C58.3295 24.9179 57.969 24.5559 57.5242 24.5559C57.0793 24.5559 56.7188 24.9179 56.7188 25.3644C56.7188 25.8109 57.0793 26.1729 57.5242 26.1729Z" fill="#000100"/>
<path d="M58.9587 24.6426C59.4035 24.6426 59.7641 24.2806 59.7641 23.8341C59.7641 23.3876 59.4035 23.0256 58.9587 23.0256C58.5139 23.0256 58.1533 23.3876 58.1533 23.8341C58.1533 24.2806 58.5139 24.6426 58.9587 24.6426Z" fill="#000100"/>
<path d="M60.3927 23.0256C60.7876 23.0256 61.1077 22.7042 61.1077 22.3078C61.1077 21.9114 60.7876 21.5901 60.3927 21.5901C59.9979 21.5901 59.6777 21.9114 59.6777 22.3078C59.6777 22.7042 59.9979 23.0256 60.3927 23.0256Z" fill="#000100"/>
<path d="M61.9128 21.4951C62.3076 21.4951 62.6278 21.1737 62.6278 20.7773C62.6278 20.3809 62.3076 20.0596 61.9128 20.0596C61.5179 20.0596 61.1978 20.3809 61.1978 20.7773C61.1978 21.1737 61.5179 21.4951 61.9128 21.4951Z" fill="#000100"/>
<path d="M63.347 19.8782C63.6942 19.8782 63.9757 19.5956 63.9757 19.2471C63.9757 18.8985 63.6942 18.616 63.347 18.616C62.9997 18.616 62.7183 18.8985 62.7183 19.2471C62.7183 19.5956 62.9997 19.8782 63.347 19.8782Z" fill="#000100"/>
<path d="M64.781 18.3518C65.1283 18.3518 65.4098 18.0693 65.4098 17.7207C65.4098 17.3722 65.1283 17.0896 64.781 17.0896C64.4338 17.0896 64.1523 17.3722 64.1523 17.7207C64.1523 18.0693 64.4338 18.3518 64.781 18.3518Z" fill="#000100"/>
<path d="M66.3059 16.7309C66.6032 16.7309 66.8442 16.489 66.8442 16.1905C66.8442 15.8921 66.6032 15.6501 66.3059 15.6501C66.0086 15.6501 65.7676 15.8921 65.7676 16.1905C65.7676 16.489 66.0086 16.7309 66.3059 16.7309Z" fill="#000100"/>
<path d="M67.74 15.2004C68.0373 15.2004 68.2783 14.9584 68.2783 14.66C68.2783 14.3616 68.0373 14.1196 67.74 14.1196C67.4427 14.1196 67.2017 14.3616 67.2017 14.66C67.2017 14.9584 67.4427 15.2004 67.74 15.2004Z" fill="#000100"/>
<path d="M69.174 13.5836C69.4213 13.5836 69.6219 13.3823 69.6219 13.1339C69.6219 12.8856 69.4213 12.6843 69.174 12.6843C68.9266 12.6843 68.7261 12.8856 68.7261 13.1339C68.7261 13.3823 68.9266 13.5836 69.174 13.5836Z" fill="#000100"/>
<path d="M70.6945 12.053C70.9418 12.053 71.1424 11.8517 71.1424 11.6034C71.1424 11.3551 70.9418 11.1538 70.6945 11.1538C70.4471 11.1538 70.2466 11.3551 70.2466 11.6034C70.2466 11.8517 70.4471 12.053 70.6945 12.053Z" fill="#000100"/>
<path d="M72.1285 10.4321C72.3259 10.4321 72.486 10.2714 72.486 10.0732C72.486 9.87503 72.3259 9.71436 72.1285 9.71436C71.9311 9.71436 71.771 9.87503 71.771 10.0732C71.771 10.2714 71.9311 10.4321 72.1285 10.4321Z" fill="#000100"/>
<path d="M73.5626 8.90158C73.76 8.90158 73.9201 8.74091 73.9201 8.54271C73.9201 8.34451 73.76 8.18384 73.5626 8.18384C73.3651 8.18384 73.2051 8.34451 73.2051 8.54271C73.2051 8.74091 73.3651 8.90158 73.5626 8.90158Z" fill="#000100"/>
<path d="M74.9966 7.28478C75.1441 7.28478 75.2637 7.16474 75.2637 7.01666C75.2637 6.86858 75.1441 6.74854 74.9966 6.74854C74.8491 6.74854 74.7295 6.86858 74.7295 7.01666C74.7295 7.16474 74.8491 7.28478 74.9966 7.28478Z" fill="#000100"/>
<path d="M76.521 5.75426C76.6685 5.75426 76.7881 5.63422 76.7881 5.48614C76.7881 5.33806 76.6685 5.21802 76.521 5.21802C76.3735 5.21802 76.2539 5.33806 76.2539 5.48614C76.2539 5.63422 76.3735 5.75426 76.521 5.75426Z" fill="#000100"/>
<path d="M53.1316 27.7032C53.5764 27.7032 53.937 27.3412 53.937 26.8947C53.937 26.4482 53.5764 26.0862 53.1316 26.0862C52.6868 26.0862 52.3262 26.4482 52.3262 26.8947C52.3262 27.3412 52.6868 27.7032 53.1316 27.7032Z" fill="#000100"/>
<path d="M54.656 26.1729C55.1008 26.1729 55.4614 25.8109 55.4614 25.3644C55.4614 24.9179 55.1008 24.5559 54.656 24.5559C54.2112 24.5559 53.8506 24.9179 53.8506 25.3644C53.8506 25.8109 54.2112 26.1729 54.656 26.1729Z" fill="#000100"/>
<path d="M56.0901 24.6426C56.5349 24.6426 56.8955 24.2806 56.8955 23.8341C56.8955 23.3876 56.5349 23.0256 56.0901 23.0256C55.6453 23.0256 55.2847 23.3876 55.2847 23.8341C55.2847 24.2806 55.6453 24.6426 56.0901 24.6426Z" fill="#000100"/>
<path d="M57.5246 23.0256C57.9195 23.0256 58.2396 22.7042 58.2396 22.3078C58.2396 21.9114 57.9195 21.5901 57.5246 21.5901C57.1297 21.5901 56.8096 21.9114 56.8096 22.3078C56.8096 22.7042 57.1297 23.0256 57.5246 23.0256Z" fill="#000100"/>
<path d="M58.9586 21.4951C59.3535 21.4951 59.6736 21.1737 59.6736 20.7773C59.6736 20.3809 59.3535 20.0596 58.9586 20.0596C58.5638 20.0596 58.2437 20.3809 58.2437 20.7773C58.2437 21.1737 58.5638 21.4951 58.9586 21.4951Z" fill="#000100"/>
<path d="M60.4788 19.8782C60.826 19.8782 61.1075 19.5956 61.1075 19.2471C61.1075 18.8985 60.826 18.616 60.4788 18.616C60.1316 18.616 59.8501 18.8985 59.8501 19.2471C59.8501 19.5956 60.1316 19.8782 60.4788 19.8782Z" fill="#000100"/>
<path d="M61.9129 18.3518C62.2601 18.3518 62.5416 18.0693 62.5416 17.7207C62.5416 17.3722 62.2601 17.0896 61.9129 17.0896C61.5657 17.0896 61.2842 17.3722 61.2842 17.7207C61.2842 18.0693 61.5657 18.3518 61.9129 18.3518Z" fill="#000100"/>
<path d="M63.3469 16.7309C63.6442 16.7309 63.8852 16.489 63.8852 16.1905C63.8852 15.8921 63.6442 15.6501 63.3469 15.6501C63.0496 15.6501 62.8086 15.8921 62.8086 16.1905C62.8086 16.489 63.0496 16.7309 63.3469 16.7309Z" fill="#000100"/>
<path d="M64.8718 15.2004C65.1691 15.2004 65.4101 14.9584 65.4101 14.66C65.4101 14.3616 65.1691 14.1196 64.8718 14.1196C64.5745 14.1196 64.3335 14.3616 64.3335 14.66C64.3335 14.9584 64.5745 15.2004 64.8718 15.2004Z" fill="#000100"/>
<path d="M66.3058 13.5836C66.5532 13.5836 66.7537 13.3823 66.7537 13.1339C66.7537 12.8856 66.5532 12.6843 66.3058 12.6843C66.0584 12.6843 65.8579 12.8856 65.8579 13.1339C65.8579 13.3823 66.0584 13.5836 66.3058 13.5836Z" fill="#000100"/>
<path d="M67.7399 12.053C67.9873 12.053 68.1878 11.8517 68.1878 11.6034C68.1878 11.3551 67.9873 11.1538 67.7399 11.1538C67.4925 11.1538 67.292 11.3551 67.292 11.6034C67.292 11.8517 67.4925 12.053 67.7399 12.053Z" fill="#000100"/>
<path d="M69.2603 10.4321C69.4578 10.4321 69.6178 10.2714 69.6178 10.0732C69.6178 9.87503 69.4578 9.71436 69.2603 9.71436C69.0629 9.71436 68.9028 9.87503 68.9028 10.0732C68.9028 10.2714 69.0629 10.4321 69.2603 10.4321Z" fill="#000100"/>
<path d="M70.6944 8.90158C70.8919 8.90158 71.0519 8.74091 71.0519 8.54271C71.0519 8.34451 70.8919 8.18384 70.6944 8.18384C70.497 8.18384 70.3369 8.34451 70.3369 8.54271C70.3369 8.74091 70.497 8.90158 70.6944 8.90158Z" fill="#000100"/>
<path d="M72.1284 7.28478C72.2759 7.28478 72.3955 7.16474 72.3955 7.01666C72.3955 6.86858 72.2759 6.74854 72.1284 6.74854C71.9809 6.74854 71.8613 6.86858 71.8613 7.01666C71.8613 7.16474 71.9809 7.28478 72.1284 7.28478Z" fill="#000100"/>
<path d="M73.6528 5.75426C73.8004 5.75426 73.9199 5.63422 73.9199 5.48614C73.9199 5.33806 73.8004 5.21802 73.6528 5.21802C73.5053 5.21802 73.3857 5.33806 73.3857 5.48614C73.3857 5.63422 73.5053 5.75426 73.6528 5.75426Z" fill="#000100"/>
<path d="M51.7019 26.1729C52.1467 26.1729 52.5073 25.8109 52.5073 25.3644C52.5073 24.9179 52.1467 24.5559 51.7019 24.5559C51.2571 24.5559 50.8965 24.9179 50.8965 25.3644C50.8965 25.8109 51.2571 26.1729 51.7019 26.1729Z" fill="#000100"/>
<path d="M53.2219 24.6426C53.6667 24.6426 54.0273 24.2806 54.0273 23.8341C54.0273 23.3876 53.6667 23.0256 53.2219 23.0256C52.7771 23.0256 52.4165 23.3876 52.4165 23.8341C52.4165 24.2806 52.7771 24.6426 53.2219 24.6426Z" fill="#000100"/>
<path d="M54.6564 23.0256C55.0513 23.0256 55.3714 22.7042 55.3714 22.3078C55.3714 21.9114 55.0513 21.5901 54.6564 21.5901C54.2615 21.5901 53.9414 21.9114 53.9414 22.3078C53.9414 22.7042 54.2615 23.0256 54.6564 23.0256Z" fill="#000100"/>
<path d="M56.0905 21.4951C56.4854 21.4951 56.8055 21.1737 56.8055 20.7773C56.8055 20.3809 56.4854 20.0596 56.0905 20.0596C55.6956 20.0596 55.3755 20.3809 55.3755 20.7773C55.3755 21.1737 55.6956 21.4951 56.0905 21.4951Z" fill="#000100"/>
<path d="M57.6145 19.8782C57.9618 19.8782 58.2433 19.5956 58.2433 19.2471C58.2433 18.8985 57.9618 18.616 57.6145 18.616C57.2673 18.616 56.9858 18.8985 56.9858 19.2471C56.9858 19.5956 57.2673 19.8782 57.6145 19.8782Z" fill="#000100"/>
<path d="M59.0491 18.3518C59.3963 18.3518 59.6778 18.0693 59.6778 17.7207C59.6778 17.3722 59.3963 17.0896 59.0491 17.0896C58.7019 17.0896 58.4204 17.3722 58.4204 17.7207C58.4204 18.0693 58.7019 18.3518 59.0491 18.3518Z" fill="#000100"/>
<path d="M60.4787 16.7309C60.776 16.7309 61.017 16.489 61.017 16.1905C61.017 15.8921 60.776 15.6501 60.4787 15.6501C60.1814 15.6501 59.9404 15.8921 59.9404 16.1905C59.9404 16.489 60.1814 16.7309 60.4787 16.7309Z" fill="#000100"/>
<path d="M61.9128 15.2004C62.2101 15.2004 62.4511 14.9584 62.4511 14.66C62.4511 14.3616 62.2101 14.1196 61.9128 14.1196C61.6155 14.1196 61.3745 14.3616 61.3745 14.66C61.3745 14.9584 61.6155 15.2004 61.9128 15.2004Z" fill="#000100"/>
<path d="M63.4377 13.5836C63.685 13.5836 63.8856 13.3823 63.8856 13.1339C63.8856 12.8856 63.685 12.6843 63.4377 12.6843C63.1903 12.6843 62.9897 12.8856 62.9897 13.1339C62.9897 13.3823 63.1903 13.5836 63.4377 13.5836Z" fill="#000100"/>
<path d="M64.8717 12.053C65.1191 12.053 65.3196 11.8517 65.3196 11.6034C65.3196 11.3551 65.1191 11.1538 64.8717 11.1538C64.6244 11.1538 64.4238 11.3551 64.4238 11.6034C64.4238 11.8517 64.6244 12.053 64.8717 12.053Z" fill="#000100"/>
<path d="M66.3057 10.4321C66.5032 10.4321 66.6632 10.2714 66.6632 10.0732C66.6632 9.87503 66.5032 9.71436 66.3057 9.71436C66.1083 9.71436 65.9482 9.87503 65.9482 10.0732C65.9482 10.2714 66.1083 10.4321 66.3057 10.4321Z" fill="#000100"/>
<path d="M67.8262 8.90158C68.0237 8.90158 68.1837 8.74091 68.1837 8.54271C68.1837 8.34451 68.0237 8.18384 67.8262 8.18384C67.6288 8.18384 67.4688 8.34451 67.4688 8.54271C67.4688 8.74091 67.6288 8.90158 67.8262 8.90158Z" fill="#000100"/>
<path d="M69.2603 7.28478C69.4078 7.28478 69.5274 7.16474 69.5274 7.01666C69.5274 6.86858 69.4078 6.74854 69.2603 6.74854C69.1128 6.74854 68.9932 6.86858 68.9932 7.01666C68.9932 7.16474 69.1128 7.28478 69.2603 7.28478Z" fill="#000100"/>
<path d="M70.6943 5.75426C70.8419 5.75426 70.9614 5.63422 70.9614 5.48614C70.9614 5.33806 70.8419 5.21802 70.6943 5.21802C70.5468 5.21802 70.4272 5.33806 70.4272 5.48614C70.4272 5.63422 70.5468 5.75426 70.6943 5.75426Z" fill="#000100"/>
<path d="M50.2678 24.6426C50.7126 24.6426 51.0732 24.2806 51.0732 23.8341C51.0732 23.3876 50.7126 23.0256 50.2678 23.0256C49.823 23.0256 49.4624 23.3876 49.4624 23.8341C49.4624 24.2806 49.823 24.6426 50.2678 24.6426Z" fill="#000100"/>
<path d="M51.7877 23.0256C52.1826 23.0256 52.5027 22.7042 52.5027 22.3078C52.5027 21.9114 52.1826 21.5901 51.7877 21.5901C51.3929 21.5901 51.0728 21.9114 51.0728 22.3078C51.0728 22.7042 51.3929 23.0256 51.7877 23.0256Z" fill="#000100"/>
<path d="M53.2218 21.4951C53.6167 21.4951 53.9368 21.1737 53.9368 20.7773C53.9368 20.3809 53.6167 20.0596 53.2218 20.0596C52.827 20.0596 52.5068 20.3809 52.5068 20.7773C52.5068 21.1737 52.827 21.4951 53.2218 21.4951Z" fill="#000100"/>
<path d="M54.656 19.8782C55.0033 19.8782 55.2848 19.5956 55.2848 19.2471C55.2848 18.8985 55.0033 18.616 54.656 18.616C54.3088 18.616 54.0273 18.8985 54.0273 19.2471C54.0273 19.5956 54.3088 19.8782 54.656 19.8782Z" fill="#000100"/>
<path d="M56.1805 18.3518C56.5277 18.3518 56.8092 18.0693 56.8092 17.7207C56.8092 17.3722 56.5277 17.0896 56.1805 17.0896C55.8332 17.0896 55.5518 17.3722 55.5518 17.7207C55.5518 18.0693 55.8332 18.3518 56.1805 18.3518Z" fill="#000100"/>
<path d="M57.615 16.7309C57.9123 16.7309 58.1533 16.489 58.1533 16.1905C58.1533 15.8921 57.9123 15.6501 57.615 15.6501C57.3177 15.6501 57.0767 15.8921 57.0767 16.1905C57.0767 16.489 57.3177 16.7309 57.615 16.7309Z" fill="#000100"/>
<path d="M59.049 15.2004C59.3463 15.2004 59.5873 14.9584 59.5873 14.66C59.5873 14.3616 59.3463 14.1196 59.049 14.1196C58.7517 14.1196 58.5107 14.3616 58.5107 14.66C58.5107 14.9584 58.7517 15.2004 59.049 15.2004Z" fill="#000100"/>
<path d="M60.4787 13.5836C60.726 13.5836 60.9266 13.3823 60.9266 13.1339C60.9266 12.8856 60.726 12.6843 60.4787 12.6843C60.2313 12.6843 60.0308 12.8856 60.0308 13.1339C60.0308 13.3823 60.2313 13.5836 60.4787 13.5836Z" fill="#000100"/>
<path d="M62.0036 12.053C62.2509 12.053 62.4515 11.8517 62.4515 11.6034C62.4515 11.3551 62.2509 11.1538 62.0036 11.1538C61.7562 11.1538 61.5557 11.3551 61.5557 11.6034C61.5557 11.8517 61.7562 12.053 62.0036 12.053Z" fill="#000100"/>
<path d="M63.4376 10.4321C63.635 10.4321 63.7951 10.2714 63.7951 10.0732C63.7951 9.87503 63.635 9.71436 63.4376 9.71436C63.2401 9.71436 63.0801 9.87503 63.0801 10.0732C63.0801 10.2714 63.2401 10.4321 63.4376 10.4321Z" fill="#000100"/>
<path d="M64.8717 8.90158C65.0691 8.90158 65.2292 8.74091 65.2292 8.54271C65.2292 8.34451 65.0691 8.18384 64.8717 8.18384C64.6742 8.18384 64.5142 8.34451 64.5142 8.54271C64.5142 8.74091 64.6742 8.90158 64.8717 8.90158Z" fill="#000100"/>
<path d="M66.396 7.28478C66.5435 7.28478 66.6631 7.16474 66.6631 7.01666C66.6631 6.86858 66.5435 6.74854 66.396 6.74854C66.2485 6.74854 66.1289 6.86858 66.1289 7.01666C66.1289 7.16474 66.2485 7.28478 66.396 7.28478Z" fill="#000100"/>
<path d="M67.8262 5.75426C67.9737 5.75426 68.0933 5.63422 68.0933 5.48614C68.0933 5.33806 67.9737 5.21802 67.8262 5.21802C67.6787 5.21802 67.5591 5.33806 67.5591 5.48614C67.5591 5.63422 67.6787 5.75426 67.8262 5.75426Z" fill="#000100"/>
<path d="M48.8336 23.0256C49.2285 23.0256 49.5486 22.7042 49.5486 22.3078C49.5486 21.9114 49.2285 21.5901 48.8336 21.5901C48.4388 21.5901 48.1187 21.9114 48.1187 22.3078C48.1187 22.7042 48.4388 23.0256 48.8336 23.0256Z" fill="#000100"/>
<path d="M50.3537 21.4951C50.7485 21.4951 51.0687 21.1737 51.0687 20.7773C51.0687 20.3809 50.7485 20.0596 50.3537 20.0596C49.9588 20.0596 49.6387 20.3809 49.6387 20.7773C49.6387 21.1737 49.9588 21.4951 50.3537 21.4951Z" fill="#000100"/>
<path d="M51.7879 19.8782C52.1351 19.8782 52.4166 19.5956 52.4166 19.2471C52.4166 18.8985 52.1351 18.616 51.7879 18.616C51.4407 18.616 51.1592 18.8985 51.1592 19.2471C51.1592 19.5956 51.4407 19.8782 51.7879 19.8782Z" fill="#000100"/>
<path d="M53.222 18.3518C53.5692 18.3518 53.8507 18.0693 53.8507 17.7207C53.8507 17.3722 53.5692 17.0896 53.222 17.0896C52.8747 17.0896 52.5933 17.3722 52.5933 17.7207C52.5933 18.0693 52.8747 18.3518 53.222 18.3518Z" fill="#000100"/>
<path d="M54.7468 16.7309C55.0441 16.7309 55.2851 16.489 55.2851 16.1905C55.2851 15.8921 55.0441 15.6501 54.7468 15.6501C54.4495 15.6501 54.2085 15.8921 54.2085 16.1905C54.2085 16.489 54.4495 16.7309 54.7468 16.7309Z" fill="#000100"/>
<path d="M56.1809 15.2004C56.4782 15.2004 56.7192 14.9584 56.7192 14.66C56.7192 14.3616 56.4782 14.1196 56.1809 14.1196C55.8836 14.1196 55.6426 14.3616 55.6426 14.66C55.6426 14.9584 55.8836 15.2004 56.1809 15.2004Z" fill="#000100"/>
<path d="M57.6149 13.5836C57.8623 13.5836 58.0628 13.3823 58.0628 13.1339C58.0628 12.8856 57.8623 12.6843 57.6149 12.6843C57.3675 12.6843 57.167 12.8856 57.167 13.1339C57.167 13.3823 57.3675 13.5836 57.6149 13.5836Z" fill="#000100"/>
<path d="M59.1354 12.053C59.3828 12.053 59.5833 11.8517 59.5833 11.6034C59.5833 11.3551 59.3828 11.1538 59.1354 11.1538C58.888 11.1538 58.6875 11.3551 58.6875 11.6034C58.6875 11.8517 58.888 12.053 59.1354 12.053Z" fill="#000100"/>
<path d="M60.5694 10.4321C60.7669 10.4321 60.9269 10.2714 60.9269 10.0732C60.9269 9.87503 60.7669 9.71436 60.5694 9.71436C60.372 9.71436 60.2119 9.87503 60.2119 10.0732C60.2119 10.2714 60.372 10.4321 60.5694 10.4321Z" fill="#000100"/>
<path d="M62.0035 8.90158C62.2009 8.90158 62.361 8.74091 62.361 8.54271C62.361 8.34451 62.2009 8.18384 62.0035 8.18384C61.8061 8.18384 61.646 8.34451 61.646 8.54271C61.646 8.74091 61.8061 8.90158 62.0035 8.90158Z" fill="#000100"/>
<path d="M63.4375 7.28478C63.585 7.28478 63.7046 7.16474 63.7046 7.01666C63.7046 6.86858 63.585 6.74854 63.4375 6.74854C63.29 6.74854 63.1704 6.86858 63.1704 7.01666C63.1704 7.16474 63.29 7.28478 63.4375 7.28478Z" fill="#000100"/>
<path d="M64.9619 5.75426C65.1094 5.75426 65.229 5.63422 65.229 5.48614C65.229 5.33806 65.1094 5.21802 64.9619 5.21802C64.8144 5.21802 64.6948 5.33806 64.6948 5.48614C64.6948 5.63422 64.8144 5.75426 64.9619 5.75426Z" fill="#000100"/>
<path d="M47.3996 21.4951C47.7944 21.4951 48.1146 21.1737 48.1146 20.7773C48.1146 20.3809 47.7944 20.0596 47.3996 20.0596C47.0047 20.0596 46.6846 20.3809 46.6846 20.7773C46.6846 21.1737 47.0047 21.4951 47.3996 21.4951Z" fill="#000100"/>
<path d="M48.9236 19.8782C49.2708 19.8782 49.5523 19.5956 49.5523 19.2471C49.5523 18.8985 49.2708 18.616 48.9236 18.616C48.5764 18.616 48.2949 18.8985 48.2949 19.2471C48.2949 19.5956 48.5764 19.8782 48.9236 19.8782Z" fill="#000100"/>
<path d="M50.3538 18.3518C50.701 18.3518 50.9825 18.0693 50.9825 17.7207C50.9825 17.3722 50.701 17.0896 50.3538 17.0896C50.0066 17.0896 49.7251 17.3722 49.7251 17.7207C49.7251 18.0693 50.0066 18.3518 50.3538 18.3518Z" fill="#000100"/>
<path d="M51.7878 16.7309C52.0851 16.7309 52.3261 16.489 52.3261 16.1905C52.3261 15.8921 52.0851 15.6501 51.7878 15.6501C51.4905 15.6501 51.2495 15.8921 51.2495 16.1905C51.2495 16.489 51.4905 16.7309 51.7878 16.7309Z" fill="#000100"/>
<path d="M53.3122 15.2004C53.6095 15.2004 53.8505 14.9584 53.8505 14.66C53.8505 14.3616 53.6095 14.1196 53.3122 14.1196C53.0149 14.1196 52.7739 14.3616 52.7739 14.66C52.7739 14.9584 53.0149 15.2004 53.3122 15.2004Z" fill="#000100"/>
<path d="M54.7467 13.5836C54.9941 13.5836 55.1946 13.3823 55.1946 13.1339C55.1946 12.8856 54.9941 12.6843 54.7467 12.6843C54.4994 12.6843 54.2988 12.8856 54.2988 13.1339C54.2988 13.3823 54.4994 13.5836 54.7467 13.5836Z" fill="#000100"/>
<path d="M56.1808 12.053C56.4282 12.053 56.6287 11.8517 56.6287 11.6034C56.6287 11.3551 56.4282 11.1538 56.1808 11.1538C55.9334 11.1538 55.7329 11.3551 55.7329 11.6034C55.7329 11.8517 55.9334 12.053 56.1808 12.053Z" fill="#000100"/>
<path d="M57.7052 10.4321C57.9026 10.4321 58.0627 10.2714 58.0627 10.0732C58.0627 9.87503 57.9026 9.71436 57.7052 9.71436C57.5077 9.71436 57.3477 9.87503 57.3477 10.0732C57.3477 10.2714 57.5077 10.4321 57.7052 10.4321Z" fill="#000100"/>
<path d="M59.1353 8.90158C59.3328 8.90158 59.4928 8.74091 59.4928 8.54271C59.4928 8.34451 59.3328 8.18384 59.1353 8.18384C58.9379 8.18384 58.7778 8.34451 58.7778 8.54271C58.7778 8.74091 58.9379 8.90158 59.1353 8.90158Z" fill="#000100"/>
<path d="M60.5693 7.28478C60.7169 7.28478 60.8364 7.16474 60.8364 7.01666C60.8364 6.86858 60.7169 6.74854 60.5693 6.74854C60.4218 6.74854 60.3022 6.86858 60.3022 7.01666C60.3022 7.16474 60.4218 7.28478 60.5693 7.28478Z" fill="#000100"/>
<path d="M62.0034 5.75426C62.1509 5.75426 62.2705 5.63422 62.2705 5.48614C62.2705 5.33806 62.1509 5.21802 62.0034 5.21802C61.8559 5.21802 61.7363 5.33806 61.7363 5.48614C61.7363 5.63422 61.8559 5.75426 62.0034 5.75426Z" fill="#000100"/>
<path d="M46.0555 19.8782C46.4027 19.8782 46.6842 19.5956 46.6842 19.2471C46.6842 18.8985 46.4027 18.616 46.0555 18.616C45.7082 18.616 45.4268 18.8985 45.4268 19.2471C45.4268 19.5956 45.7082 19.8782 46.0555 19.8782Z" fill="#000100"/>
<path d="M47.4895 18.3518C47.8368 18.3518 48.1182 18.0693 48.1182 17.7207C48.1182 17.3722 47.8368 17.0896 47.4895 17.0896C47.1423 17.0896 46.8608 17.3722 46.8608 17.7207C46.8608 18.0693 47.1423 18.3518 47.4895 18.3518Z" fill="#000100"/>
<path d="M48.924 16.7309C49.2213 16.7309 49.4623 16.489 49.4623 16.1905C49.4623 15.8921 49.2213 15.6501 48.924 15.6501C48.6267 15.6501 48.3857 15.8921 48.3857 16.1905C48.3857 16.489 48.6267 16.7309 48.924 16.7309Z" fill="#000100"/>
<path d="M50.3537 15.2004C50.651 15.2004 50.892 14.9584 50.892 14.66C50.892 14.3616 50.651 14.1196 50.3537 14.1196C50.0564 14.1196 49.8154 14.3616 49.8154 14.66C49.8154 14.9584 50.0564 15.2004 50.3537 15.2004Z" fill="#000100"/>
<path d="M51.8786 13.5836C52.1259 13.5836 52.3265 13.3823 52.3265 13.1339C52.3265 12.8856 52.1259 12.6843 51.8786 12.6843C51.6312 12.6843 51.4307 12.8856 51.4307 13.1339C51.4307 13.3823 51.6312 13.5836 51.8786 13.5836Z" fill="#000100"/>
<path d="M53.3127 12.053C53.56 12.053 53.7606 11.8517 53.7606 11.6034C53.7606 11.3551 53.56 11.1538 53.3127 11.1538C53.0653 11.1538 52.8647 11.3551 52.8647 11.6034C52.8647 11.8517 53.0653 12.053 53.3127 12.053Z" fill="#000100"/>
<path d="M54.7467 10.4321C54.9441 10.4321 55.1042 10.2714 55.1042 10.0732C55.1042 9.87503 54.9441 9.71436 54.7467 9.71436C54.5492 9.71436 54.3892 9.87503 54.3892 10.0732C54.3892 10.2714 54.5492 10.4321 54.7467 10.4321Z" fill="#000100"/>
<path d="M56.2711 8.90158C56.4685 8.90158 56.6286 8.74091 56.6286 8.54271C56.6286 8.34451 56.4685 8.18384 56.2711 8.18384C56.0736 8.18384 55.9136 8.34451 55.9136 8.54271C55.9136 8.74091 56.0736 8.90158 56.2711 8.90158Z" fill="#000100"/>
<path d="M57.7051 7.28478C57.8526 7.28478 57.9722 7.16474 57.9722 7.01666C57.9722 6.86858 57.8526 6.74854 57.7051 6.74854C57.5576 6.74854 57.438 6.86858 57.438 7.01666C57.438 7.16474 57.5576 7.28478 57.7051 7.28478Z" fill="#000100"/>
<path d="M59.1353 5.75426C59.2828 5.75426 59.4024 5.63422 59.4024 5.48614C59.4024 5.33806 59.2828 5.21802 59.1353 5.21802C58.9878 5.21802 58.8682 5.33806 58.8682 5.48614C58.8682 5.63422 58.9878 5.75426 59.1353 5.75426Z" fill="#000100"/>
<path d="M44.6214 18.3518C44.9686 18.3518 45.2501 18.0693 45.2501 17.7207C45.2501 17.3722 44.9686 17.0896 44.6214 17.0896C44.2742 17.0896 43.9927 17.3722 43.9927 17.7207C43.9927 18.0693 44.2742 18.3518 44.6214 18.3518Z" fill="#000100"/>
<path d="M46.0559 16.7309C46.3532 16.7309 46.5942 16.489 46.5942 16.1905C46.5942 15.8921 46.3532 15.6501 46.0559 15.6501C45.7586 15.6501 45.5176 15.8921 45.5176 16.1905C45.5176 16.489 45.7586 16.7309 46.0559 16.7309Z" fill="#000100"/>
<path d="M47.49 15.2004C47.7873 15.2004 48.0283 14.9584 48.0283 14.66C48.0283 14.3616 47.7873 14.1196 47.49 14.1196C47.1927 14.1196 46.9517 14.3616 46.9517 14.66C46.9517 14.9584 47.1927 15.2004 47.49 15.2004Z" fill="#000100"/>
<path d="M48.924 13.5836C49.1713 13.5836 49.3719 13.3823 49.3719 13.1339C49.3719 12.8856 49.1713 12.6843 48.924 12.6843C48.6766 12.6843 48.4761 12.8856 48.4761 13.1339C48.4761 13.3823 48.6766 13.5836 48.924 13.5836Z" fill="#000100"/>
<path d="M50.4445 12.053C50.6919 12.053 50.8924 11.8517 50.8924 11.6034C50.8924 11.3551 50.6919 11.1538 50.4445 11.1538C50.1971 11.1538 49.9966 11.3551 49.9966 11.6034C49.9966 11.8517 50.1971 12.053 50.4445 12.053Z" fill="#000100"/>
<path d="M51.8785 10.4321C52.0759 10.4321 52.236 10.2714 52.236 10.0732C52.236 9.87503 52.0759 9.71436 51.8785 9.71436C51.6811 9.71436 51.521 9.87503 51.521 10.0732C51.521 10.2714 51.6811 10.4321 51.8785 10.4321Z" fill="#000100"/>
<path d="M53.3126 8.90158C53.51 8.90158 53.6701 8.74091 53.6701 8.54271C53.6701 8.34451 53.51 8.18384 53.3126 8.18384C53.1151 8.18384 52.9551 8.34451 52.9551 8.54271C52.9551 8.74091 53.1151 8.90158 53.3126 8.90158Z" fill="#000100"/>
<path d="M54.8369 7.28478C54.9844 7.28478 55.104 7.16474 55.104 7.01666C55.104 6.86858 54.9844 6.74854 54.8369 6.74854C54.6894 6.74854 54.5698 6.86858 54.5698 7.01666C54.5698 7.16474 54.6894 7.28478 54.8369 7.28478Z" fill="#000100"/>
<path d="M56.271 5.75426C56.4185 5.75426 56.5381 5.63422 56.5381 5.48614C56.5381 5.33806 56.4185 5.21802 56.271 5.21802C56.1235 5.21802 56.0039 5.33806 56.0039 5.48614C56.0039 5.63422 56.1235 5.75426 56.271 5.75426Z" fill="#000100"/>
<path d="M43.1872 16.7309C43.4845 16.7309 43.7255 16.489 43.7255 16.1905C43.7255 15.8921 43.4845 15.6501 43.1872 15.6501C42.8899 15.6501 42.6489 15.8921 42.6489 16.1905C42.6489 16.489 42.8899 16.7309 43.1872 16.7309Z" fill="#000100"/>
<path d="M44.6213 15.2004C44.9186 15.2004 45.1596 14.9584 45.1596 14.66C45.1596 14.3616 44.9186 14.1196 44.6213 14.1196C44.324 14.1196 44.083 14.3616 44.083 14.66C44.083 14.9584 44.324 15.2004 44.6213 15.2004Z" fill="#000100"/>
<path d="M46.0558 13.5836C46.3032 13.5836 46.5037 13.3823 46.5037 13.1339C46.5037 12.8856 46.3032 12.6843 46.0558 12.6843C45.8084 12.6843 45.6079 12.8856 45.6079 13.1339C45.6079 13.3823 45.8084 13.5836 46.0558 13.5836Z" fill="#000100"/>
<path d="M47.4899 12.053C47.7373 12.053 47.9378 11.8517 47.9378 11.6034C47.9378 11.3551 47.7373 11.1538 47.4899 11.1538C47.2425 11.1538 47.042 11.3551 47.042 11.6034C47.042 11.8517 47.2425 12.053 47.4899 12.053Z" fill="#000100"/>
<path d="M49.0103 10.4321C49.2078 10.4321 49.3678 10.2714 49.3678 10.0732C49.3678 9.87503 49.2078 9.71436 49.0103 9.71436C48.8129 9.71436 48.6528 9.87503 48.6528 10.0732C48.6528 10.2714 48.8129 10.4321 49.0103 10.4321Z" fill="#000100"/>
<path d="M50.4444 8.90158C50.6419 8.90158 50.8019 8.74091 50.8019 8.54271C50.8019 8.34451 50.6419 8.18384 50.4444 8.18384C50.247 8.18384 50.0869 8.34451 50.0869 8.54271C50.0869 8.74091 50.247 8.90158 50.4444 8.90158Z" fill="#000100"/>
<path d="M51.8784 7.28478C52.0259 7.28478 52.1455 7.16474 52.1455 7.01666C52.1455 6.86858 52.0259 6.74854 51.8784 6.74854C51.7309 6.74854 51.6113 6.86858 51.6113 7.01666C51.6113 7.16474 51.7309 7.28478 51.8784 7.28478Z" fill="#000100"/>
<path d="M53.4028 5.75426C53.5504 5.75426 53.6699 5.63422 53.6699 5.48614C53.6699 5.33806 53.5504 5.21802 53.4028 5.21802C53.2553 5.21802 53.1357 5.33806 53.1357 5.48614C53.1357 5.63422 53.2553 5.75426 53.4028 5.75426Z" fill="#000100"/>
<path d="M41.7531 15.2004C42.0504 15.2004 42.2914 14.9584 42.2914 14.66C42.2914 14.3616 42.0504 14.1196 41.7531 14.1196C41.4558 14.1196 41.2148 14.3616 41.2148 14.66C41.2148 14.9584 41.4558 15.2004 41.7531 15.2004Z" fill="#000100"/>
<path d="M43.1876 13.5836C43.435 13.5836 43.6355 13.3823 43.6355 13.1339C43.6355 12.8856 43.435 12.6843 43.1876 12.6843C42.9403 12.6843 42.7397 12.8856 42.7397 13.1339C42.7397 13.3823 42.9403 13.5836 43.1876 13.5836Z" fill="#000100"/>
<path d="M44.6217 12.053C44.8691 12.053 45.0696 11.8517 45.0696 11.6034C45.0696 11.3551 44.8691 11.1538 44.6217 11.1538C44.3744 11.1538 44.1738 11.3551 44.1738 11.6034C44.1738 11.8517 44.3744 12.053 44.6217 12.053Z" fill="#000100"/>
<path d="M46.1461 10.4321C46.3435 10.4321 46.5036 10.2714 46.5036 10.0732C46.5036 9.87503 46.3435 9.71436 46.1461 9.71436C45.9486 9.71436 45.7886 9.87503 45.7886 10.0732C45.7886 10.2714 45.9486 10.4321 46.1461 10.4321Z" fill="#000100"/>
<path d="M47.5802 8.90158C47.7776 8.90158 47.9377 8.74091 47.9377 8.54271C47.9377 8.34451 47.7776 8.18384 47.5802 8.18384C47.3827 8.18384 47.2227 8.34451 47.2227 8.54271C47.2227 8.74091 47.3827 8.90158 47.5802 8.90158Z" fill="#000100"/>
<path d="M49.0103 7.28478C49.1578 7.28478 49.2774 7.16474 49.2774 7.01666C49.2774 6.86858 49.1578 6.74854 49.0103 6.74854C48.8627 6.74854 48.7432 6.86858 48.7432 7.01666C48.7432 7.16474 48.8627 7.28478 49.0103 7.28478Z" fill="#000100"/>
<path d="M50.4443 5.75426C50.5919 5.75426 50.7114 5.63422 50.7114 5.48614C50.7114 5.33806 50.5919 5.21802 50.4443 5.21802C50.2968 5.21802 50.1772 5.33806 50.1772 5.48614C50.1772 5.63422 50.2968 5.75426 50.4443 5.75426Z" fill="#000100"/>
<path d="M40.3195 13.5836C40.5669 13.5836 40.7674 13.3823 40.7674 13.1339C40.7674 12.8856 40.5669 12.6843 40.3195 12.6843C40.0721 12.6843 39.8716 12.8856 39.8716 13.1339C39.8716 13.3823 40.0721 13.5836 40.3195 13.5836Z" fill="#000100"/>
<path d="M41.7536 12.053C42.0009 12.053 42.2015 11.8517 42.2015 11.6034C42.2015 11.3551 42.0009 11.1538 41.7536 11.1538C41.5062 11.1538 41.3057 11.3551 41.3057 11.6034C41.3057 11.8517 41.5062 12.053 41.7536 12.053Z" fill="#000100"/>
<path d="M43.1876 10.4321C43.385 10.4321 43.5451 10.2714 43.5451 10.0732C43.5451 9.87503 43.385 9.71436 43.1876 9.71436C42.9901 9.71436 42.8301 9.87503 42.8301 10.0732C42.8301 10.2714 42.9901 10.4321 43.1876 10.4321Z" fill="#000100"/>
<path d="M44.712 8.90158C44.9094 8.90158 45.0695 8.74091 45.0695 8.54271C45.0695 8.34451 44.9094 8.18384 44.712 8.18384C44.5145 8.18384 44.3545 8.34451 44.3545 8.54271C44.3545 8.74091 44.5145 8.90158 44.712 8.90158Z" fill="#000100"/>
<path d="M46.146 7.28478C46.2935 7.28478 46.4131 7.16474 46.4131 7.01666C46.4131 6.86858 46.2935 6.74854 46.146 6.74854C45.9985 6.74854 45.8789 6.86858 45.8789 7.01666C45.8789 7.16474 45.9985 7.28478 46.146 7.28478Z" fill="#000100"/>
<path d="M47.5801 5.75426C47.7276 5.75426 47.8472 5.63422 47.8472 5.48614C47.8472 5.33806 47.7276 5.21802 47.5801 5.21802C47.4326 5.21802 47.313 5.33806 47.313 5.48614C47.313 5.63422 47.4326 5.75426 47.5801 5.75426Z" fill="#000100"/>
<path d="M38.8849 12.053C39.1323 12.053 39.3328 11.8517 39.3328 11.6034C39.3328 11.3551 39.1323 11.1538 38.8849 11.1538C38.6375 11.1538 38.437 11.3551 38.437 11.6034C38.437 11.8517 38.6375 12.053 38.8849 12.053Z" fill="#000100"/>
<path d="M40.3194 10.4321C40.5169 10.4321 40.6769 10.2714 40.6769 10.0732C40.6769 9.87503 40.5169 9.71436 40.3194 9.71436C40.122 9.71436 39.9619 9.87503 39.9619 10.0732C39.9619 10.2714 40.122 10.4321 40.3194 10.4321Z" fill="#000100"/>
<path d="M41.7535 8.90158C41.9509 8.90158 42.111 8.74091 42.111 8.54271C42.111 8.34451 41.9509 8.18384 41.7535 8.18384C41.5561 8.18384 41.396 8.34451 41.396 8.54271C41.396 8.74091 41.5561 8.90158 41.7535 8.90158Z" fill="#000100"/>
<path d="M43.2778 7.28478C43.4254 7.28478 43.5449 7.16474 43.5449 7.01666C43.5449 6.86858 43.4254 6.74854 43.2778 6.74854C43.1303 6.74854 43.0107 6.86858 43.0107 7.01666C43.0107 7.16474 43.1303 7.28478 43.2778 7.28478Z" fill="#000100"/>
<path d="M44.7119 5.75426C44.8594 5.75426 44.979 5.63422 44.979 5.48614C44.979 5.33806 44.8594 5.21802 44.7119 5.21802C44.5644 5.21802 44.4448 5.33806 44.4448 5.48614C44.4448 5.63422 44.5644 5.75426 44.7119 5.75426Z" fill="#000100"/>
<path d="M37.4552 10.4321C37.6526 10.4321 37.8127 10.2714 37.8127 10.0732C37.8127 9.87503 37.6526 9.71436 37.4552 9.71436C37.2577 9.71436 37.0977 9.87503 37.0977 10.0732C37.0977 10.2714 37.2577 10.4321 37.4552 10.4321Z" fill="#000100"/>
<path d="M38.8853 8.90158C39.0828 8.90158 39.2428 8.74091 39.2428 8.54271C39.2428 8.34451 39.0828 8.18384 38.8853 8.18384C38.6879 8.18384 38.5278 8.34451 38.5278 8.54271C38.5278 8.74091 38.6879 8.90158 38.8853 8.90158Z" fill="#000100"/>
<path d="M40.3193 7.28478C40.4669 7.28478 40.5864 7.16474 40.5864 7.01666C40.5864 6.86858 40.4669 6.74854 40.3193 6.74854C40.1718 6.74854 40.0522 6.86858 40.0522 7.01666C40.0522 7.16474 40.1718 7.28478 40.3193 7.28478Z" fill="#000100"/>
<path d="M41.8438 5.75426C41.9913 5.75426 42.1109 5.63422 42.1109 5.48614C42.1109 5.33806 41.9913 5.21802 41.8438 5.21802C41.6962 5.21802 41.5767 5.33806 41.5767 5.48614C41.5767 5.63422 41.6962 5.75426 41.8438 5.75426Z" fill="#000100"/>
<path d="M36.0211 8.90158C36.2185 8.90158 36.3786 8.74091 36.3786 8.54271C36.3786 8.34451 36.2185 8.18384 36.0211 8.18384C35.8236 8.18384 35.6636 8.34451 35.6636 8.54271C35.6636 8.74091 35.8236 8.90158 36.0211 8.90158Z" fill="#000100"/>
<path d="M37.4551 7.28478C37.6026 7.28478 37.7222 7.16474 37.7222 7.01666C37.7222 6.86858 37.6026 6.74854 37.4551 6.74854C37.3076 6.74854 37.188 6.86858 37.188 7.01666C37.188 7.16474 37.3076 7.28478 37.4551 7.28478Z" fill="#000100"/>
<path d="M38.8853 5.75426C39.0328 5.75426 39.1524 5.63422 39.1524 5.48614C39.1524 5.33806 39.0328 5.21802 38.8853 5.21802C38.7377 5.21802 38.6182 5.33806 38.6182 5.48614C38.6182 5.63422 38.7377 5.75426 38.8853 5.75426Z" fill="#000100"/>
<path d="M34.5869 7.28478C34.7344 7.28478 34.854 7.16474 34.854 7.01666C34.854 6.86858 34.7344 6.74854 34.5869 6.74854C34.4394 6.74854 34.3198 6.86858 34.3198 7.01666C34.3198 7.16474 34.4394 7.28478 34.5869 7.28478Z" fill="#000100"/>
<path d="M36.021 5.75426C36.1685 5.75426 36.2881 5.63422 36.2881 5.48614C36.2881 5.33806 36.1685 5.21802 36.021 5.21802C35.8735 5.21802 35.7539 5.33806 35.7539 5.48614C35.7539 5.63422 35.8735 5.75426 36.021 5.75426Z" fill="#000100"/>
<path d="M33.1528 5.75426C33.3004 5.75426 33.4199 5.63422 33.4199 5.48614C33.4199 5.33806 33.3004 5.21802 33.1528 5.21802C33.0053 5.21802 32.8857 5.33806 32.8857 5.48614C32.8857 5.63422 33.0053 5.75426 33.1528 5.75426Z" fill="#000100"/>
<path d="M54.5657 40.474C55.0605 40.474 55.4615 40.0714 55.4615 39.5748C55.4615 39.0781 55.0605 38.6755 54.5657 38.6755C54.071 38.6755 53.6699 39.0781 53.6699 39.5748C53.6699 40.0714 54.071 40.474 54.5657 40.474Z" fill="#000100"/>
<path d="M56.0901 41.9139C56.5349 41.9139 56.8955 41.5519 56.8955 41.1054C56.8955 40.6588 56.5349 40.2969 56.0901 40.2969C55.6453 40.2969 55.2847 40.6588 55.2847 41.1054C55.2847 41.5519 55.6453 41.9139 56.0901 41.9139Z" fill="#000100"/>
<path d="M57.5242 43.4441C57.969 43.4441 58.3295 43.0822 58.3295 42.6356C58.3295 42.1891 57.969 41.8271 57.5242 41.8271C57.0793 41.8271 56.7188 42.1891 56.7188 42.6356C56.7188 43.0822 57.0793 43.4441 57.5242 43.4441Z" fill="#000100"/>
<path d="M58.9587 44.9703C59.4035 44.9703 59.7641 44.6083 59.7641 44.1618C59.7641 43.7152 59.4035 43.3533 58.9587 43.3533C58.5139 43.3533 58.1533 43.7152 58.1533 44.1618C58.1533 44.6083 58.5139 44.9703 58.9587 44.9703Z" fill="#000100"/>
<path d="M60.3927 46.4099C60.7876 46.4099 61.1077 46.0885 61.1077 45.6921C61.1077 45.2957 60.7876 44.9744 60.3927 44.9744C59.9979 44.9744 59.6777 45.2957 59.6777 45.6921C59.6777 46.0885 59.9979 46.4099 60.3927 46.4099Z" fill="#000100"/>
<path d="M61.9128 47.9404C62.3076 47.9404 62.6278 47.619 62.6278 47.2226C62.6278 46.8262 62.3076 46.5049 61.9128 46.5049C61.5179 46.5049 61.1978 46.8262 61.1978 47.2226C61.1978 47.619 61.5179 47.9404 61.9128 47.9404Z" fill="#000100"/>
<path d="M63.347 49.3799C63.6942 49.3799 63.9757 49.0974 63.9757 48.7488C63.9757 48.4002 63.6942 48.1177 63.347 48.1177C62.9997 48.1177 62.7183 48.4002 62.7183 48.7488C62.7183 49.0974 62.9997 49.3799 63.347 49.3799Z" fill="#000100"/>
<path d="M64.781 50.9102C65.1283 50.9102 65.4098 50.6276 65.4098 50.2791C65.4098 49.9305 65.1283 49.6479 64.781 49.6479C64.4338 49.6479 64.1523 49.9305 64.1523 50.2791C64.1523 50.6276 64.4338 50.9102 64.781 50.9102Z" fill="#000100"/>
<path d="M66.3059 52.3498C66.6032 52.3498 66.8442 52.1079 66.8442 51.8094C66.8442 51.511 66.6032 51.269 66.3059 51.269C66.0086 51.269 65.7676 51.511 65.7676 51.8094C65.7676 52.1079 66.0086 52.3498 66.3059 52.3498Z" fill="#000100"/>
<path d="M67.74 53.8762C68.0373 53.8762 68.2783 53.6342 68.2783 53.3358C68.2783 53.0373 68.0373 52.7954 67.74 52.7954C67.4427 52.7954 67.2017 53.0373 67.2017 53.3358C67.2017 53.6342 67.4427 53.8762 67.74 53.8762Z" fill="#000100"/>
<path d="M69.174 55.3157C69.4213 55.3157 69.6219 55.1144 69.6219 54.8661C69.6219 54.6178 69.4213 54.4165 69.174 54.4165C68.9266 54.4165 68.7261 54.6178 68.7261 54.8661C68.7261 55.1144 68.9266 55.3157 69.174 55.3157Z" fill="#000100"/>
<path d="M70.6945 56.846C70.9418 56.846 71.1424 56.6447 71.1424 56.3964C71.1424 56.1481 70.9418 55.9468 70.6945 55.9468C70.4471 55.9468 70.2466 56.1481 70.2466 56.3964C70.2466 56.6447 70.4471 56.846 70.6945 56.846Z" fill="#000100"/>
<path d="M72.1285 58.2856C72.3259 58.2856 72.486 58.1249 72.486 57.9267C72.486 57.7285 72.3259 57.5679 72.1285 57.5679C71.9311 57.5679 71.771 57.7285 71.771 57.9267C71.771 58.1249 71.9311 58.2856 72.1285 58.2856Z" fill="#000100"/>
<path d="M73.5626 59.812C73.76 59.812 73.9201 59.6513 73.9201 59.4531C73.9201 59.2549 73.76 59.0942 73.5626 59.0942C73.3651 59.0942 73.2051 59.2549 73.2051 59.4531C73.2051 59.6513 73.3651 59.812 73.5626 59.812Z" fill="#000100"/>
<path d="M74.9966 61.2516C75.1441 61.2516 75.2637 61.1315 75.2637 60.9835C75.2637 60.8354 75.1441 60.7153 74.9966 60.7153C74.8491 60.7153 74.7295 60.8354 74.7295 60.9835C74.7295 61.1315 74.8491 61.2516 74.9966 61.2516Z" fill="#000100"/>
<path d="M76.521 62.7819C76.6685 62.7819 76.7881 62.6618 76.7881 62.5137C76.7881 62.3657 76.6685 62.2456 76.521 62.2456C76.3735 62.2456 76.2539 62.3657 76.2539 62.5137C76.2539 62.6618 76.3735 62.7819 76.521 62.7819Z" fill="#000100"/>
<path d="M53.1316 41.9139C53.5764 41.9139 53.937 41.5519 53.937 41.1054C53.937 40.6588 53.5764 40.2969 53.1316 40.2969C52.6868 40.2969 52.3262 40.6588 52.3262 41.1054C52.3262 41.5519 52.6868 41.9139 53.1316 41.9139Z" fill="#000100"/>
<path d="M54.656 43.4441C55.1008 43.4441 55.4614 43.0822 55.4614 42.6356C55.4614 42.1891 55.1008 41.8271 54.656 41.8271C54.2112 41.8271 53.8506 42.1891 53.8506 42.6356C53.8506 43.0822 54.2112 43.4441 54.656 43.4441Z" fill="#000100"/>
<path d="M56.0901 44.9703C56.5349 44.9703 56.8955 44.6083 56.8955 44.1618C56.8955 43.7152 56.5349 43.3533 56.0901 43.3533C55.6453 43.3533 55.2847 43.7152 55.2847 44.1618C55.2847 44.6083 55.6453 44.9703 56.0901 44.9703Z" fill="#000100"/>
<path d="M57.5246 46.4099C57.9195 46.4099 58.2396 46.0885 58.2396 45.6921C58.2396 45.2957 57.9195 44.9744 57.5246 44.9744C57.1297 44.9744 56.8096 45.2957 56.8096 45.6921C56.8096 46.0885 57.1297 46.4099 57.5246 46.4099Z" fill="#000100"/>
<path d="M58.9586 47.9404C59.3535 47.9404 59.6736 47.619 59.6736 47.2226C59.6736 46.8262 59.3535 46.5049 58.9586 46.5049C58.5638 46.5049 58.2437 46.8262 58.2437 47.2226C58.2437 47.619 58.5638 47.9404 58.9586 47.9404Z" fill="#000100"/>
<path d="M60.4788 49.3799C60.826 49.3799 61.1075 49.0974 61.1075 48.7488C61.1075 48.4002 60.826 48.1177 60.4788 48.1177C60.1316 48.1177 59.8501 48.4002 59.8501 48.7488C59.8501 49.0974 60.1316 49.3799 60.4788 49.3799Z" fill="#000100"/>
<path d="M61.9129 50.9102C62.2601 50.9102 62.5416 50.6276 62.5416 50.2791C62.5416 49.9305 62.2601 49.6479 61.9129 49.6479C61.5657 49.6479 61.2842 49.9305 61.2842 50.2791C61.2842 50.6276 61.5657 50.9102 61.9129 50.9102Z" fill="#000100"/>
<path d="M63.3469 52.3498C63.6442 52.3498 63.8852 52.1079 63.8852 51.8094C63.8852 51.511 63.6442 51.269 63.3469 51.269C63.0496 51.269 62.8086 51.511 62.8086 51.8094C62.8086 52.1079 63.0496 52.3498 63.3469 52.3498Z" fill="#000100"/>
<path d="M64.8718 53.8762C65.1691 53.8762 65.4101 53.6342 65.4101 53.3358C65.4101 53.0373 65.1691 52.7954 64.8718 52.7954C64.5745 52.7954 64.3335 53.0373 64.3335 53.3358C64.3335 53.6342 64.5745 53.8762 64.8718 53.8762Z" fill="#000100"/>
<path d="M66.3058 55.3157C66.5532 55.3157 66.7537 55.1144 66.7537 54.8661C66.7537 54.6178 66.5532 54.4165 66.3058 54.4165C66.0584 54.4165 65.8579 54.6178 65.8579 54.8661C65.8579 55.1144 66.0584 55.3157 66.3058 55.3157Z" fill="#000100"/>
<path d="M67.7399 56.846C67.9873 56.846 68.1878 56.6447 68.1878 56.3964C68.1878 56.1481 67.9873 55.9468 67.7399 55.9468C67.4925 55.9468 67.292 56.1481 67.292 56.3964C67.292 56.6447 67.4925 56.846 67.7399 56.846Z" fill="#000100"/>
<path d="M69.2603 58.2856C69.4578 58.2856 69.6178 58.1249 69.6178 57.9267C69.6178 57.7285 69.4578 57.5679 69.2603 57.5679C69.0629 57.5679 68.9028 57.7285 68.9028 57.9267C68.9028 58.1249 69.0629 58.2856 69.2603 58.2856Z" fill="#000100"/>
<path d="M70.6944 59.812C70.8919 59.812 71.0519 59.6513 71.0519 59.4531C71.0519 59.2549 70.8919 59.0942 70.6944 59.0942C70.497 59.0942 70.3369 59.2549 70.3369 59.4531C70.3369 59.6513 70.497 59.812 70.6944 59.812Z" fill="#000100"/>
<path d="M72.1284 61.2516C72.2759 61.2516 72.3955 61.1315 72.3955 60.9835C72.3955 60.8354 72.2759 60.7153 72.1284 60.7153C71.9809 60.7153 71.8613 60.8354 71.8613 60.9835C71.8613 61.1315 71.9809 61.2516 72.1284 61.2516Z" fill="#000100"/>
<path d="M73.6528 62.7819C73.8004 62.7819 73.9199 62.6618 73.9199 62.5137C73.9199 62.3657 73.8004 62.2456 73.6528 62.2456C73.5053 62.2456 73.3857 62.3657 73.3857 62.5137C73.3857 62.6618 73.5053 62.7819 73.6528 62.7819Z" fill="#000100"/>
<path d="M51.7019 43.4441C52.1467 43.4441 52.5073 43.0822 52.5073 42.6356C52.5073 42.1891 52.1467 41.8271 51.7019 41.8271C51.2571 41.8271 50.8965 42.1891 50.8965 42.6356C50.8965 43.0822 51.2571 43.4441 51.7019 43.4441Z" fill="#000100"/>
<path d="M53.2219 44.9703C53.6667 44.9703 54.0273 44.6083 54.0273 44.1618C54.0273 43.7152 53.6667 43.3533 53.2219 43.3533C52.7771 43.3533 52.4165 43.7152 52.4165 44.1618C52.4165 44.6083 52.7771 44.9703 53.2219 44.9703Z" fill="#000100"/>
<path d="M54.6564 46.4099C55.0513 46.4099 55.3714 46.0885 55.3714 45.6921C55.3714 45.2957 55.0513 44.9744 54.6564 44.9744C54.2615 44.9744 53.9414 45.2957 53.9414 45.6921C53.9414 46.0885 54.2615 46.4099 54.6564 46.4099Z" fill="#000100"/>
<path d="M56.0905 47.9404C56.4854 47.9404 56.8055 47.619 56.8055 47.2226C56.8055 46.8262 56.4854 46.5049 56.0905 46.5049C55.6956 46.5049 55.3755 46.8262 55.3755 47.2226C55.3755 47.619 55.6956 47.9404 56.0905 47.9404Z" fill="#000100"/>
<path d="M57.6145 49.3799C57.9618 49.3799 58.2433 49.0974 58.2433 48.7488C58.2433 48.4002 57.9618 48.1177 57.6145 48.1177C57.2673 48.1177 56.9858 48.4002 56.9858 48.7488C56.9858 49.0974 57.2673 49.3799 57.6145 49.3799Z" fill="#000100"/>
<path d="M59.0491 50.9102C59.3963 50.9102 59.6778 50.6276 59.6778 50.2791C59.6778 49.9305 59.3963 49.6479 59.0491 49.6479C58.7019 49.6479 58.4204 49.9305 58.4204 50.2791C58.4204 50.6276 58.7019 50.9102 59.0491 50.9102Z" fill="#000100"/>
<path d="M60.4787 52.3498C60.776 52.3498 61.017 52.1079 61.017 51.8094C61.017 51.511 60.776 51.269 60.4787 51.269C60.1814 51.269 59.9404 51.511 59.9404 51.8094C59.9404 52.1079 60.1814 52.3498 60.4787 52.3498Z" fill="#000100"/>
<path d="M61.9128 53.8762C62.2101 53.8762 62.4511 53.6342 62.4511 53.3358C62.4511 53.0373 62.2101 52.7954 61.9128 52.7954C61.6155 52.7954 61.3745 53.0373 61.3745 53.3358C61.3745 53.6342 61.6155 53.8762 61.9128 53.8762Z" fill="#000100"/>
<path d="M63.4377 55.3157C63.685 55.3157 63.8856 55.1144 63.8856 54.8661C63.8856 54.6178 63.685 54.4165 63.4377 54.4165C63.1903 54.4165 62.9897 54.6178 62.9897 54.8661C62.9897 55.1144 63.1903 55.3157 63.4377 55.3157Z" fill="#000100"/>
<path d="M64.8717 56.846C65.1191 56.846 65.3196 56.6447 65.3196 56.3964C65.3196 56.1481 65.1191 55.9468 64.8717 55.9468C64.6244 55.9468 64.4238 56.1481 64.4238 56.3964C64.4238 56.6447 64.6244 56.846 64.8717 56.846Z" fill="#000100"/>
<path d="M66.3057 58.2856C66.5032 58.2856 66.6632 58.1249 66.6632 57.9267C66.6632 57.7285 66.5032 57.5679 66.3057 57.5679C66.1083 57.5679 65.9482 57.7285 65.9482 57.9267C65.9482 58.1249 66.1083 58.2856 66.3057 58.2856Z" fill="#000100"/>
<path d="M67.8262 59.812C68.0237 59.812 68.1837 59.6513 68.1837 59.4531C68.1837 59.2549 68.0237 59.0942 67.8262 59.0942C67.6288 59.0942 67.4688 59.2549 67.4688 59.4531C67.4688 59.6513 67.6288 59.812 67.8262 59.812Z" fill="#000100"/>
<path d="M69.2603 61.2516C69.4078 61.2516 69.5274 61.1315 69.5274 60.9835C69.5274 60.8354 69.4078 60.7153 69.2603 60.7153C69.1128 60.7153 68.9932 60.8354 68.9932 60.9835C68.9932 61.1315 69.1128 61.2516 69.2603 61.2516Z" fill="#000100"/>
<path d="M70.6943 62.7819C70.8419 62.7819 70.9614 62.6618 70.9614 62.5137C70.9614 62.3657 70.8419 62.2456 70.6943 62.2456C70.5468 62.2456 70.4272 62.3657 70.4272 62.5137C70.4272 62.6618 70.5468 62.7819 70.6943 62.7819Z" fill="#000100"/>
<path d="M50.2678 44.9703C50.7126 44.9703 51.0732 44.6083 51.0732 44.1618C51.0732 43.7152 50.7126 43.3533 50.2678 43.3533C49.823 43.3533 49.4624 43.7152 49.4624 44.1618C49.4624 44.6083 49.823 44.9703 50.2678 44.9703Z" fill="#000100"/>
<path d="M51.7877 46.4099C52.1826 46.4099 52.5027 46.0885 52.5027 45.6921C52.5027 45.2957 52.1826 44.9744 51.7877 44.9744C51.3929 44.9744 51.0728 45.2957 51.0728 45.6921C51.0728 46.0885 51.3929 46.4099 51.7877 46.4099Z" fill="#000100"/>
<path d="M53.2218 47.9404C53.6167 47.9404 53.9368 47.619 53.9368 47.2226C53.9368 46.8262 53.6167 46.5049 53.2218 46.5049C52.827 46.5049 52.5068 46.8262 52.5068 47.2226C52.5068 47.619 52.827 47.9404 53.2218 47.9404Z" fill="#000100"/>
<path d="M54.656 49.3799C55.0033 49.3799 55.2848 49.0974 55.2848 48.7488C55.2848 48.4002 55.0033 48.1177 54.656 48.1177C54.3088 48.1177 54.0273 48.4002 54.0273 48.7488C54.0273 49.0974 54.3088 49.3799 54.656 49.3799Z" fill="#000100"/>
<path d="M56.1805 50.9102C56.5277 50.9102 56.8092 50.6276 56.8092 50.2791C56.8092 49.9305 56.5277 49.6479 56.1805 49.6479C55.8332 49.6479 55.5518 49.9305 55.5518 50.2791C55.5518 50.6276 55.8332 50.9102 56.1805 50.9102Z" fill="#000100"/>
<path d="M57.615 52.3498C57.9123 52.3498 58.1533 52.1079 58.1533 51.8094C58.1533 51.511 57.9123 51.269 57.615 51.269C57.3177 51.269 57.0767 51.511 57.0767 51.8094C57.0767 52.1079 57.3177 52.3498 57.615 52.3498Z" fill="#000100"/>
<path d="M59.049 53.8762C59.3463 53.8762 59.5873 53.6342 59.5873 53.3358C59.5873 53.0373 59.3463 52.7954 59.049 52.7954C58.7517 52.7954 58.5107 53.0373 58.5107 53.3358C58.5107 53.6342 58.7517 53.8762 59.049 53.8762Z" fill="#000100"/>
<path d="M60.4787 55.3157C60.726 55.3157 60.9266 55.1144 60.9266 54.8661C60.9266 54.6178 60.726 54.4165 60.4787 54.4165C60.2313 54.4165 60.0308 54.6178 60.0308 54.8661C60.0308 55.1144 60.2313 55.3157 60.4787 55.3157Z" fill="#000100"/>
<path d="M62.0036 56.846C62.2509 56.846 62.4515 56.6447 62.4515 56.3964C62.4515 56.1481 62.2509 55.9468 62.0036 55.9468C61.7562 55.9468 61.5557 56.1481 61.5557 56.3964C61.5557 56.6447 61.7562 56.846 62.0036 56.846Z" fill="#000100"/>
<path d="M63.4376 58.2856C63.635 58.2856 63.7951 58.1249 63.7951 57.9267C63.7951 57.7285 63.635 57.5679 63.4376 57.5679C63.2401 57.5679 63.0801 57.7285 63.0801 57.9267C63.0801 58.1249 63.2401 58.2856 63.4376 58.2856Z" fill="#000100"/>
<path d="M64.8717 59.812C65.0691 59.812 65.2292 59.6513 65.2292 59.4531C65.2292 59.2549 65.0691 59.0942 64.8717 59.0942C64.6742 59.0942 64.5142 59.2549 64.5142 59.4531C64.5142 59.6513 64.6742 59.812 64.8717 59.812Z" fill="#000100"/>
<path d="M66.396 61.2516C66.5435 61.2516 66.6631 61.1315 66.6631 60.9835C66.6631 60.8354 66.5435 60.7153 66.396 60.7153C66.2485 60.7153 66.1289 60.8354 66.1289 60.9835C66.1289 61.1315 66.2485 61.2516 66.396 61.2516Z" fill="#000100"/>
<path d="M67.8262 62.7819C67.9737 62.7819 68.0933 62.6618 68.0933 62.5137C68.0933 62.3657 67.9737 62.2456 67.8262 62.2456C67.6787 62.2456 67.5591 62.3657 67.5591 62.5137C67.5591 62.6618 67.6787 62.7819 67.8262 62.7819Z" fill="#000100"/>
<path d="M48.8336 46.4099C49.2285 46.4099 49.5486 46.0885 49.5486 45.6921C49.5486 45.2957 49.2285 44.9744 48.8336 44.9744C48.4388 44.9744 48.1187 45.2957 48.1187 45.6921C48.1187 46.0885 48.4388 46.4099 48.8336 46.4099Z" fill="#000100"/>
<path d="M50.3537 47.9404C50.7485 47.9404 51.0687 47.619 51.0687 47.2226C51.0687 46.8262 50.7485 46.5049 50.3537 46.5049C49.9588 46.5049 49.6387 46.8262 49.6387 47.2226C49.6387 47.619 49.9588 47.9404 50.3537 47.9404Z" fill="#000100"/>
<path d="M51.7879 49.3799C52.1351 49.3799 52.4166 49.0974 52.4166 48.7488C52.4166 48.4002 52.1351 48.1177 51.7879 48.1177C51.4407 48.1177 51.1592 48.4002 51.1592 48.7488C51.1592 49.0974 51.4407 49.3799 51.7879 49.3799Z" fill="#000100"/>
<path d="M53.222 50.9102C53.5692 50.9102 53.8507 50.6276 53.8507 50.2791C53.8507 49.9305 53.5692 49.6479 53.222 49.6479C52.8747 49.6479 52.5933 49.9305 52.5933 50.2791C52.5933 50.6276 52.8747 50.9102 53.222 50.9102Z" fill="#000100"/>
<path d="M54.7468 52.3498C55.0441 52.3498 55.2851 52.1079 55.2851 51.8094C55.2851 51.511 55.0441 51.269 54.7468 51.269C54.4495 51.269 54.2085 51.511 54.2085 51.8094C54.2085 52.1079 54.4495 52.3498 54.7468 52.3498Z" fill="#000100"/>
<path d="M56.1809 53.8762C56.4782 53.8762 56.7192 53.6342 56.7192 53.3358C56.7192 53.0373 56.4782 52.7954 56.1809 52.7954C55.8836 52.7954 55.6426 53.0373 55.6426 53.3358C55.6426 53.6342 55.8836 53.8762 56.1809 53.8762Z" fill="#000100"/>
<path d="M57.6149 55.3157C57.8623 55.3157 58.0628 55.1144 58.0628 54.8661C58.0628 54.6178 57.8623 54.4165 57.6149 54.4165C57.3675 54.4165 57.167 54.6178 57.167 54.8661C57.167 55.1144 57.3675 55.3157 57.6149 55.3157Z" fill="#000100"/>
<path d="M59.1354 56.846C59.3828 56.846 59.5833 56.6447 59.5833 56.3964C59.5833 56.1481 59.3828 55.9468 59.1354 55.9468C58.888 55.9468 58.6875 56.1481 58.6875 56.3964C58.6875 56.6447 58.888 56.846 59.1354 56.846Z" fill="#000100"/>
<path d="M60.5694 58.2856C60.7669 58.2856 60.9269 58.1249 60.9269 57.9267C60.9269 57.7285 60.7669 57.5679 60.5694 57.5679C60.372 57.5679 60.2119 57.7285 60.2119 57.9267C60.2119 58.1249 60.372 58.2856 60.5694 58.2856Z" fill="#000100"/>
<path d="M62.0035 59.812C62.2009 59.812 62.361 59.6513 62.361 59.4531C62.361 59.2549 62.2009 59.0942 62.0035 59.0942C61.8061 59.0942 61.646 59.2549 61.646 59.4531C61.646 59.6513 61.8061 59.812 62.0035 59.812Z" fill="#000100"/>
<path d="M63.4375 61.2516C63.585 61.2516 63.7046 61.1315 63.7046 60.9835C63.7046 60.8354 63.585 60.7153 63.4375 60.7153C63.29 60.7153 63.1704 60.8354 63.1704 60.9835C63.1704 61.1315 63.29 61.2516 63.4375 61.2516Z" fill="#000100"/>
<path d="M64.9619 62.7819C65.1094 62.7819 65.229 62.6618 65.229 62.5137C65.229 62.3657 65.1094 62.2456 64.9619 62.2456C64.8144 62.2456 64.6948 62.3657 64.6948 62.5137C64.6948 62.6618 64.8144 62.7819 64.9619 62.7819Z" fill="#000100"/>
<path d="M47.3996 47.9404C47.7944 47.9404 48.1146 47.619 48.1146 47.2226C48.1146 46.8262 47.7944 46.5049 47.3996 46.5049C47.0047 46.5049 46.6846 46.8262 46.6846 47.2226C46.6846 47.619 47.0047 47.9404 47.3996 47.9404Z" fill="#000100"/>
<path d="M48.9236 49.3799C49.2708 49.3799 49.5523 49.0974 49.5523 48.7488C49.5523 48.4002 49.2708 48.1177 48.9236 48.1177C48.5764 48.1177 48.2949 48.4002 48.2949 48.7488C48.2949 49.0974 48.5764 49.3799 48.9236 49.3799Z" fill="#000100"/>
<path d="M50.3538 50.9102C50.701 50.9102 50.9825 50.6276 50.9825 50.2791C50.9825 49.9305 50.701 49.6479 50.3538 49.6479C50.0066 49.6479 49.7251 49.9305 49.7251 50.2791C49.7251 50.6276 50.0066 50.9102 50.3538 50.9102Z" fill="#000100"/>
<path d="M51.7878 52.3498C52.0851 52.3498 52.3261 52.1079 52.3261 51.8094C52.3261 51.511 52.0851 51.269 51.7878 51.269C51.4905 51.269 51.2495 51.511 51.2495 51.8094C51.2495 52.1079 51.4905 52.3498 51.7878 52.3498Z" fill="#000100"/>
<path d="M53.3122 53.8762C53.6095 53.8762 53.8505 53.6342 53.8505 53.3358C53.8505 53.0373 53.6095 52.7954 53.3122 52.7954C53.0149 52.7954 52.7739 53.0373 52.7739 53.3358C52.7739 53.6342 53.0149 53.8762 53.3122 53.8762Z" fill="#000100"/>
<path d="M54.7467 55.3157C54.9941 55.3157 55.1946 55.1144 55.1946 54.8661C55.1946 54.6178 54.9941 54.4165 54.7467 54.4165C54.4994 54.4165 54.2988 54.6178 54.2988 54.8661C54.2988 55.1144 54.4994 55.3157 54.7467 55.3157Z" fill="#000100"/>
<path d="M56.1808 56.846C56.4282 56.846 56.6287 56.6447 56.6287 56.3964C56.6287 56.1481 56.4282 55.9468 56.1808 55.9468C55.9334 55.9468 55.7329 56.1481 55.7329 56.3964C55.7329 56.6447 55.9334 56.846 56.1808 56.846Z" fill="#000100"/>
<path d="M57.7052 58.2856C57.9026 58.2856 58.0627 58.1249 58.0627 57.9267C58.0627 57.7285 57.9026 57.5679 57.7052 57.5679C57.5077 57.5679 57.3477 57.7285 57.3477 57.9267C57.3477 58.1249 57.5077 58.2856 57.7052 58.2856Z" fill="#000100"/>
<path d="M59.1353 59.812C59.3328 59.812 59.4928 59.6513 59.4928 59.4531C59.4928 59.2549 59.3328 59.0942 59.1353 59.0942C58.9379 59.0942 58.7778 59.2549 58.7778 59.4531C58.7778 59.6513 58.9379 59.812 59.1353 59.812Z" fill="#000100"/>
<path d="M60.5693 61.2516C60.7169 61.2516 60.8364 61.1315 60.8364 60.9835C60.8364 60.8354 60.7169 60.7153 60.5693 60.7153C60.4218 60.7153 60.3022 60.8354 60.3022 60.9835C60.3022 61.1315 60.4218 61.2516 60.5693 61.2516Z" fill="#000100"/>
<path d="M62.0034 62.7819C62.1509 62.7819 62.2705 62.6618 62.2705 62.5137C62.2705 62.3657 62.1509 62.2456 62.0034 62.2456C61.8559 62.2456 61.7363 62.3657 61.7363 62.5137C61.7363 62.6618 61.8559 62.7819 62.0034 62.7819Z" fill="#000100"/>
<path d="M46.0555 49.3799C46.4027 49.3799 46.6842 49.0974 46.6842 48.7488C46.6842 48.4002 46.4027 48.1177 46.0555 48.1177C45.7082 48.1177 45.4268 48.4002 45.4268 48.7488C45.4268 49.0974 45.7082 49.3799 46.0555 49.3799Z" fill="#000100"/>
<path d="M47.4895 50.9102C47.8368 50.9102 48.1182 50.6276 48.1182 50.2791C48.1182 49.9305 47.8368 49.6479 47.4895 49.6479C47.1423 49.6479 46.8608 49.9305 46.8608 50.2791C46.8608 50.6276 47.1423 50.9102 47.4895 50.9102Z" fill="#000100"/>
<path d="M48.924 52.3498C49.2213 52.3498 49.4623 52.1079 49.4623 51.8094C49.4623 51.511 49.2213 51.269 48.924 51.269C48.6267 51.269 48.3857 51.511 48.3857 51.8094C48.3857 52.1079 48.6267 52.3498 48.924 52.3498Z" fill="#000100"/>
<path d="M50.3537 53.8762C50.651 53.8762 50.892 53.6342 50.892 53.3358C50.892 53.0373 50.651 52.7954 50.3537 52.7954C50.0564 52.7954 49.8154 53.0373 49.8154 53.3358C49.8154 53.6342 50.0564 53.8762 50.3537 53.8762Z" fill="#000100"/>
<path d="M51.8786 55.3157C52.1259 55.3157 52.3265 55.1144 52.3265 54.8661C52.3265 54.6178 52.1259 54.4165 51.8786 54.4165C51.6312 54.4165 51.4307 54.6178 51.4307 54.8661C51.4307 55.1144 51.6312 55.3157 51.8786 55.3157Z" fill="#000100"/>
<path d="M53.3127 56.846C53.56 56.846 53.7606 56.6447 53.7606 56.3964C53.7606 56.1481 53.56 55.9468 53.3127 55.9468C53.0653 55.9468 52.8647 56.1481 52.8647 56.3964C52.8647 56.6447 53.0653 56.846 53.3127 56.846Z" fill="#000100"/>
<path d="M54.7467 58.2856C54.9441 58.2856 55.1042 58.1249 55.1042 57.9267C55.1042 57.7285 54.9441 57.5679 54.7467 57.5679C54.5492 57.5679 54.3892 57.7285 54.3892 57.9267C54.3892 58.1249 54.5492 58.2856 54.7467 58.2856Z" fill="#000100"/>
<path d="M56.2711 59.812C56.4685 59.812 56.6286 59.6513 56.6286 59.4531C56.6286 59.2549 56.4685 59.0942 56.2711 59.0942C56.0736 59.0942 55.9136 59.2549 55.9136 59.4531C55.9136 59.6513 56.0736 59.812 56.2711 59.812Z" fill="#000100"/>
<path d="M57.7051 61.2516C57.8526 61.2516 57.9722 61.1315 57.9722 60.9835C57.9722 60.8354 57.8526 60.7153 57.7051 60.7153C57.5576 60.7153 57.438 60.8354 57.438 60.9835C57.438 61.1315 57.5576 61.2516 57.7051 61.2516Z" fill="#000100"/>
<path d="M59.1353 62.7819C59.2828 62.7819 59.4024 62.6618 59.4024 62.5137C59.4024 62.3657 59.2828 62.2456 59.1353 62.2456C58.9878 62.2456 58.8682 62.3657 58.8682 62.5137C58.8682 62.6618 58.9878 62.7819 59.1353 62.7819Z" fill="#000100"/>
<path d="M44.6214 50.9102C44.9686 50.9102 45.2501 50.6276 45.2501 50.2791C45.2501 49.9305 44.9686 49.6479 44.6214 49.6479C44.2742 49.6479 43.9927 49.9305 43.9927 50.2791C43.9927 50.6276 44.2742 50.9102 44.6214 50.9102Z" fill="#000100"/>
<path d="M46.0559 52.3498C46.3532 52.3498 46.5942 52.1079 46.5942 51.8094C46.5942 51.511 46.3532 51.269 46.0559 51.269C45.7586 51.269 45.5176 51.511 45.5176 51.8094C45.5176 52.1079 45.7586 52.3498 46.0559 52.3498Z" fill="#000100"/>
<path d="M47.49 53.8762C47.7873 53.8762 48.0283 53.6342 48.0283 53.3358C48.0283 53.0373 47.7873 52.7954 47.49 52.7954C47.1927 52.7954 46.9517 53.0373 46.9517 53.3358C46.9517 53.6342 47.1927 53.8762 47.49 53.8762Z" fill="#000100"/>
<path d="M48.924 55.3157C49.1713 55.3157 49.3719 55.1144 49.3719 54.8661C49.3719 54.6178 49.1713 54.4165 48.924 54.4165C48.6766 54.4165 48.4761 54.6178 48.4761 54.8661C48.4761 55.1144 48.6766 55.3157 48.924 55.3157Z" fill="#000100"/>
<path d="M50.4445 56.846C50.6919 56.846 50.8924 56.6447 50.8924 56.3964C50.8924 56.1481 50.6919 55.9468 50.4445 55.9468C50.1971 55.9468 49.9966 56.1481 49.9966 56.3964C49.9966 56.6447 50.1971 56.846 50.4445 56.846Z" fill="#000100"/>
<path d="M51.8785 58.2856C52.0759 58.2856 52.236 58.1249 52.236 57.9267C52.236 57.7285 52.0759 57.5679 51.8785 57.5679C51.6811 57.5679 51.521 57.7285 51.521 57.9267C51.521 58.1249 51.6811 58.2856 51.8785 58.2856Z" fill="#000100"/>
<path d="M53.3126 59.812C53.51 59.812 53.6701 59.6513 53.6701 59.4531C53.6701 59.2549 53.51 59.0942 53.3126 59.0942C53.1151 59.0942 52.9551 59.2549 52.9551 59.4531C52.9551 59.6513 53.1151 59.812 53.3126 59.812Z" fill="#000100"/>
<path d="M54.8369 61.2516C54.9844 61.2516 55.104 61.1315 55.104 60.9835C55.104 60.8354 54.9844 60.7153 54.8369 60.7153C54.6894 60.7153 54.5698 60.8354 54.5698 60.9835C54.5698 61.1315 54.6894 61.2516 54.8369 61.2516Z" fill="#000100"/>
<path d="M56.271 62.7819C56.4185 62.7819 56.5381 62.6618 56.5381 62.5137C56.5381 62.3657 56.4185 62.2456 56.271 62.2456C56.1235 62.2456 56.0039 62.3657 56.0039 62.5137C56.0039 62.6618 56.1235 62.7819 56.271 62.7819Z" fill="#000100"/>
<path d="M43.1872 52.3498C43.4845 52.3498 43.7255 52.1079 43.7255 51.8094C43.7255 51.511 43.4845 51.269 43.1872 51.269C42.8899 51.269 42.6489 51.511 42.6489 51.8094C42.6489 52.1079 42.8899 52.3498 43.1872 52.3498Z" fill="#000100"/>
<path d="M44.6213 53.8762C44.9186 53.8762 45.1596 53.6342 45.1596 53.3358C45.1596 53.0373 44.9186 52.7954 44.6213 52.7954C44.324 52.7954 44.083 53.0373 44.083 53.3358C44.083 53.6342 44.324 53.8762 44.6213 53.8762Z" fill="#000100"/>
<path d="M46.0558 55.3157C46.3032 55.3157 46.5037 55.1144 46.5037 54.8661C46.5037 54.6178 46.3032 54.4165 46.0558 54.4165C45.8084 54.4165 45.6079 54.6178 45.6079 54.8661C45.6079 55.1144 45.8084 55.3157 46.0558 55.3157Z" fill="#000100"/>
<path d="M47.4899 56.846C47.7373 56.846 47.9378 56.6447 47.9378 56.3964C47.9378 56.1481 47.7373 55.9468 47.4899 55.9468C47.2425 55.9468 47.042 56.1481 47.042 56.3964C47.042 56.6447 47.2425 56.846 47.4899 56.846Z" fill="#000100"/>
<path d="M49.0103 58.2856C49.2078 58.2856 49.3678 58.1249 49.3678 57.9267C49.3678 57.7285 49.2078 57.5679 49.0103 57.5679C48.8129 57.5679 48.6528 57.7285 48.6528 57.9267C48.6528 58.1249 48.8129 58.2856 49.0103 58.2856Z" fill="#000100"/>
<path d="M50.4444 59.812C50.6419 59.812 50.8019 59.6513 50.8019 59.4531C50.8019 59.2549 50.6419 59.0942 50.4444 59.0942C50.247 59.0942 50.0869 59.2549 50.0869 59.4531C50.0869 59.6513 50.247 59.812 50.4444 59.812Z" fill="#000100"/>
<path d="M51.8784 61.2516C52.0259 61.2516 52.1455 61.1315 52.1455 60.9835C52.1455 60.8354 52.0259 60.7153 51.8784 60.7153C51.7309 60.7153 51.6113 60.8354 51.6113 60.9835C51.6113 61.1315 51.7309 61.2516 51.8784 61.2516Z" fill="#000100"/>
<path d="M53.4028 62.7819C53.5504 62.7819 53.6699 62.6618 53.6699 62.5137C53.6699 62.3657 53.5504 62.2456 53.4028 62.2456C53.2553 62.2456 53.1357 62.3657 53.1357 62.5137C53.1357 62.6618 53.2553 62.7819 53.4028 62.7819Z" fill="#000100"/>
<path d="M41.7531 53.8762C42.0504 53.8762 42.2914 53.6342 42.2914 53.3358C42.2914 53.0373 42.0504 52.7954 41.7531 52.7954C41.4558 52.7954 41.2148 53.0373 41.2148 53.3358C41.2148 53.6342 41.4558 53.8762 41.7531 53.8762Z" fill="#000100"/>
<path d="M43.1876 55.3157C43.435 55.3157 43.6355 55.1144 43.6355 54.8661C43.6355 54.6178 43.435 54.4165 43.1876 54.4165C42.9403 54.4165 42.7397 54.6178 42.7397 54.8661C42.7397 55.1144 42.9403 55.3157 43.1876 55.3157Z" fill="#000100"/>
<path d="M44.6217 56.846C44.8691 56.846 45.0696 56.6447 45.0696 56.3964C45.0696 56.1481 44.8691 55.9468 44.6217 55.9468C44.3744 55.9468 44.1738 56.1481 44.1738 56.3964C44.1738 56.6447 44.3744 56.846 44.6217 56.846Z" fill="#000100"/>
<path d="M46.1461 58.2856C46.3435 58.2856 46.5036 58.1249 46.5036 57.9267C46.5036 57.7285 46.3435 57.5679 46.1461 57.5679C45.9486 57.5679 45.7886 57.7285 45.7886 57.9267C45.7886 58.1249 45.9486 58.2856 46.1461 58.2856Z" fill="#000100"/>
<path d="M47.5802 59.812C47.7776 59.812 47.9377 59.6513 47.9377 59.4531C47.9377 59.2549 47.7776 59.0942 47.5802 59.0942C47.3827 59.0942 47.2227 59.2549 47.2227 59.4531C47.2227 59.6513 47.3827 59.812 47.5802 59.812Z" fill="#000100"/>
<path d="M49.0103 61.2516C49.1578 61.2516 49.2774 61.1315 49.2774 60.9835C49.2774 60.8354 49.1578 60.7153 49.0103 60.7153C48.8627 60.7153 48.7432 60.8354 48.7432 60.9835C48.7432 61.1315 48.8627 61.2516 49.0103 61.2516Z" fill="#000100"/>
<path d="M50.4443 62.7819C50.5919 62.7819 50.7114 62.6618 50.7114 62.5137C50.7114 62.3657 50.5919 62.2456 50.4443 62.2456C50.2968 62.2456 50.1772 62.3657 50.1772 62.5137C50.1772 62.6618 50.2968 62.7819 50.4443 62.7819Z" fill="#000100"/>
<path d="M40.3195 55.3157C40.5669 55.3157 40.7674 55.1144 40.7674 54.8661C40.7674 54.6178 40.5669 54.4165 40.3195 54.4165C40.0721 54.4165 39.8716 54.6178 39.8716 54.8661C39.8716 55.1144 40.0721 55.3157 40.3195 55.3157Z" fill="#000100"/>
<path d="M41.7536 56.846C42.0009 56.846 42.2015 56.6447 42.2015 56.3964C42.2015 56.1481 42.0009 55.9468 41.7536 55.9468C41.5062 55.9468 41.3057 56.1481 41.3057 56.3964C41.3057 56.6447 41.5062 56.846 41.7536 56.846Z" fill="#000100"/>
<path d="M43.1876 58.2856C43.385 58.2856 43.5451 58.1249 43.5451 57.9267C43.5451 57.7285 43.385 57.5679 43.1876 57.5679C42.9901 57.5679 42.8301 57.7285 42.8301 57.9267C42.8301 58.1249 42.9901 58.2856 43.1876 58.2856Z" fill="#000100"/>
<path d="M44.712 59.812C44.9094 59.812 45.0695 59.6513 45.0695 59.4531C45.0695 59.2549 44.9094 59.0942 44.712 59.0942C44.5145 59.0942 44.3545 59.2549 44.3545 59.4531C44.3545 59.6513 44.5145 59.812 44.712 59.812Z" fill="#000100"/>
<path d="M46.146 61.2516C46.2935 61.2516 46.4131 61.1315 46.4131 60.9835C46.4131 60.8354 46.2935 60.7153 46.146 60.7153C45.9985 60.7153 45.8789 60.8354 45.8789 60.9835C45.8789 61.1315 45.9985 61.2516 46.146 61.2516Z" fill="#000100"/>
<path d="M47.5801 62.7819C47.7276 62.7819 47.8472 62.6618 47.8472 62.5137C47.8472 62.3657 47.7276 62.2456 47.5801 62.2456C47.4326 62.2456 47.313 62.3657 47.313 62.5137C47.313 62.6618 47.4326 62.7819 47.5801 62.7819Z" fill="#000100"/>
<path d="M38.8849 56.846C39.1323 56.846 39.3328 56.6447 39.3328 56.3964C39.3328 56.1481 39.1323 55.9468 38.8849 55.9468C38.6375 55.9468 38.437 56.1481 38.437 56.3964C38.437 56.6447 38.6375 56.846 38.8849 56.846Z" fill="#000100"/>
<path d="M40.3194 58.2856C40.5169 58.2856 40.6769 58.1249 40.6769 57.9267C40.6769 57.7285 40.5169 57.5679 40.3194 57.5679C40.122 57.5679 39.9619 57.7285 39.9619 57.9267C39.9619 58.1249 40.122 58.2856 40.3194 58.2856Z" fill="#000100"/>
<path d="M41.7535 59.812C41.9509 59.812 42.111 59.6513 42.111 59.4531C42.111 59.2549 41.9509 59.0942 41.7535 59.0942C41.5561 59.0942 41.396 59.2549 41.396 59.4531C41.396 59.6513 41.5561 59.812 41.7535 59.812Z" fill="#000100"/>
<path d="M43.2778 61.2516C43.4254 61.2516 43.5449 61.1315 43.5449 60.9835C43.5449 60.8354 43.4254 60.7153 43.2778 60.7153C43.1303 60.7153 43.0107 60.8354 43.0107 60.9835C43.0107 61.1315 43.1303 61.2516 43.2778 61.2516Z" fill="#000100"/>
<path d="M44.7119 62.7819C44.8594 62.7819 44.979 62.6618 44.979 62.5137C44.979 62.3657 44.8594 62.2456 44.7119 62.2456C44.5644 62.2456 44.4448 62.3657 44.4448 62.5137C44.4448 62.6618 44.5644 62.7819 44.7119 62.7819Z" fill="#000100"/>
<path d="M37.4552 58.2856C37.6526 58.2856 37.8127 58.1249 37.8127 57.9267C37.8127 57.7285 37.6526 57.5679 37.4552 57.5679C37.2577 57.5679 37.0977 57.7285 37.0977 57.9267C37.0977 58.1249 37.2577 58.2856 37.4552 58.2856Z" fill="#000100"/>
<path d="M38.8853 59.812C39.0828 59.812 39.2428 59.6513 39.2428 59.4531C39.2428 59.2549 39.0828 59.0942 38.8853 59.0942C38.6879 59.0942 38.5278 59.2549 38.5278 59.4531C38.5278 59.6513 38.6879 59.812 38.8853 59.812Z" fill="#000100"/>
<path d="M40.3193 61.2516C40.4669 61.2516 40.5864 61.1315 40.5864 60.9835C40.5864 60.8354 40.4669 60.7153 40.3193 60.7153C40.1718 60.7153 40.0522 60.8354 40.0522 60.9835C40.0522 61.1315 40.1718 61.2516 40.3193 61.2516Z" fill="#000100"/>
<path d="M41.8438 62.7819C41.9913 62.7819 42.1109 62.6618 42.1109 62.5137C42.1109 62.3657 41.9913 62.2456 41.8438 62.2456C41.6962 62.2456 41.5767 62.3657 41.5767 62.5137C41.5767 62.6618 41.6962 62.7819 41.8438 62.7819Z" fill="#000100"/>
<path d="M36.0211 59.812C36.2185 59.812 36.3786 59.6513 36.3786 59.4531C36.3786 59.2549 36.2185 59.0942 36.0211 59.0942C35.8236 59.0942 35.6636 59.2549 35.6636 59.4531C35.6636 59.6513 35.8236 59.812 36.0211 59.812Z" fill="#000100"/>
<path d="M37.4551 61.2516C37.6026 61.2516 37.7222 61.1315 37.7222 60.9835C37.7222 60.8354 37.6026 60.7153 37.4551 60.7153C37.3076 60.7153 37.188 60.8354 37.188 60.9835C37.188 61.1315 37.3076 61.2516 37.4551 61.2516Z" fill="#000100"/>
<path d="M38.8853 62.7819C39.0328 62.7819 39.1524 62.6618 39.1524 62.5137C39.1524 62.3657 39.0328 62.2456 38.8853 62.2456C38.7377 62.2456 38.6182 62.3657 38.6182 62.5137C38.6182 62.6618 38.7377 62.7819 38.8853 62.7819Z" fill="#000100"/>
<path d="M34.5869 61.2516C34.7344 61.2516 34.854 61.1315 34.854 60.9835C34.854 60.8354 34.7344 60.7153 34.5869 60.7153C34.4394 60.7153 34.3198 60.8354 34.3198 60.9835C34.3198 61.1315 34.4394 61.2516 34.5869 61.2516Z" fill="#000100"/>
<path d="M36.021 62.7819C36.1685 62.7819 36.2881 62.6618 36.2881 62.5137C36.2881 62.3657 36.1685 62.2456 36.021 62.2456C35.8735 62.2456 35.7539 62.3657 35.7539 62.5137C35.7539 62.6618 35.8735 62.7819 36.021 62.7819Z" fill="#000100"/>
<path d="M33.1528 62.7819C33.3004 62.7819 33.4199 62.6618 33.4199 62.5137C33.4199 62.3657 33.3004 62.2456 33.1528 62.2456C33.0053 62.2456 32.8857 62.3657 32.8857 62.5137C32.8857 62.6618 33.0053 62.7819 33.1528 62.7819Z" fill="#000100"/>
<path d="M171.229 18.979V19.6968H172.051C172.142 19.6968 172.228 19.6968 172.228 19.606L172.318 19.5153V19.3379C172.318 19.2471 172.318 19.1564 172.228 19.1564L172.142 19.0656H171.229V18.979ZM170.691 18.7068C170.686 18.6704 170.69 18.6335 170.702 18.5988C170.714 18.5641 170.733 18.5326 170.759 18.5067C170.785 18.4808 170.816 18.4612 170.851 18.4494C170.885 18.4376 170.922 18.4339 170.958 18.4386H172.035C172.161 18.4253 172.288 18.4575 172.392 18.5294H172.483C172.573 18.5294 172.659 18.616 172.75 18.7068L172.84 18.7975C172.84 18.8216 172.85 18.8447 172.867 18.8617C172.884 18.8787 172.907 18.8883 172.931 18.8883C173.021 19.0656 173.111 19.1564 173.111 19.3379C173.125 19.4645 173.093 19.5917 173.021 19.6968V19.7875C173.021 19.8783 172.931 19.9649 172.84 20.0556L172.75 20.1464L173.378 21.2271C173.469 21.3137 173.378 21.4952 173.288 21.586C173.198 21.6767 173.021 21.586 172.931 21.4952L172.302 20.3279H171.229V21.3137C171.234 21.352 171.231 21.3909 171.219 21.4277C171.208 21.4646 171.189 21.4986 171.163 21.5275C171.138 21.5564 171.107 21.5795 171.072 21.5954C171.037 21.6112 170.999 21.6194 170.96 21.6194C170.922 21.6194 170.884 21.6112 170.849 21.5954C170.814 21.5795 170.782 21.5564 170.757 21.5275C170.732 21.4986 170.713 21.4646 170.701 21.4277C170.69 21.3909 170.686 21.352 170.691 21.3137V18.7068ZM171.764 17.5394C171.446 17.5342 171.131 17.5953 170.838 17.7189C170.545 17.8424 170.281 18.0257 170.062 18.2571C169.613 18.712 169.357 19.3242 169.347 19.9649C169.353 20.6069 169.609 21.2211 170.061 21.6755C170.513 22.1298 171.124 22.388 171.764 22.3945C172.404 22.3891 173.016 22.1314 173.469 21.6769C173.922 21.2224 174.179 20.6076 174.184 19.9649C174.175 19.3242 173.918 18.712 173.469 18.2571C173.25 18.0254 172.985 17.842 172.691 17.7184C172.398 17.5948 172.082 17.5339 171.764 17.5394ZM171.764 16.999C172.539 17.0257 173.276 17.3466 173.825 17.897C174.374 18.4474 174.695 19.1864 174.722 19.9649C174.696 20.7441 174.375 21.4841 173.826 22.0354C173.277 22.5867 172.54 22.9081 171.764 22.9348C170.988 22.9071 170.252 22.5852 169.704 22.034C169.155 21.4828 168.836 20.7434 168.809 19.9649C168.837 19.1871 169.157 18.4487 169.705 17.8984C170.253 17.3481 170.989 17.0267 171.764 16.999Z" fill="#000100"/>
</g>
<defs>
<clipPath id="clip0_41_2783">
<rect width="174.722" height="68" fill="white"/>
</clipPath>
</defs>
</svg>
