<svg width="237" height="92" viewBox="0 0 237 92" fill="none" xmlns="http://www.w3.org/2000/svg">
<g clip-path="url(#clip0_39_575)">
<path d="M1.33427 47.3366C0.980399 47.3366 0.641024 47.1955 0.390799 46.9443C0.140574 46.6931 0 46.3524 0 45.9972C0 45.642 0.140574 45.3013 0.390799 45.0501C0.641024 44.7989 0.980399 44.6578 1.33427 44.6578H146.437C146.79 44.6578 147.13 44.7989 147.38 45.0501C147.63 45.3013 147.771 45.642 147.771 45.9972C147.771 46.3524 147.63 46.6931 147.38 46.9443C147.13 47.1955 146.79 47.3366 146.437 47.3366H1.33427Z" fill="#DA292F"/>
<path d="M30.5491 43.3184H17.8179L24.1223 30.5439L30.5491 43.3184ZM46.8106 63.7666L37.4762 45.1433C37.3539 44.9034 37.3539 44.7806 37.2316 44.6578L26.6686 23.4841C26.3951 22.8634 25.9264 22.3497 25.3343 22.022C24.6885 21.7177 23.9509 21.6742 23.2741 21.9007C22.5973 22.1272 22.0332 22.6062 21.6984 23.2386L11.0298 44.6578C11.0298 44.7806 10.9075 44.9034 10.9075 45.0261L1.57311 63.7666C1.2679 64.4107 1.22659 65.1493 1.45804 65.8236C1.68949 66.4979 2.17524 67.0542 2.81089 67.3729C3.44654 67.6916 4.18138 67.7472 4.85746 67.5279C5.53354 67.3085 6.09692 66.8317 6.42653 66.1998L15.1549 48.676H33.2176L41.946 66.1998C42.2808 66.8322 42.8449 67.3112 43.5217 67.5377C44.1985 67.7642 44.9361 67.7207 45.5819 67.4164C46.2119 67.0804 46.6891 66.5141 46.9147 65.8347C47.1403 65.1553 47.097 64.4149 46.7939 63.7666M111.528 64.8828V27.134C111.528 26.4235 111.247 25.7422 110.747 25.2398C110.246 24.7374 109.568 24.4552 108.86 24.4552C108.152 24.4552 107.473 24.7374 106.973 25.2398C106.472 25.7422 106.191 26.4235 106.191 27.134V64.8604C106.191 65.5709 106.472 66.2522 106.973 66.7546C107.473 67.257 108.152 67.5392 108.86 67.5392C109.568 67.5392 110.246 67.257 110.747 66.7546C111.247 66.2522 111.528 65.5709 111.528 64.8604M163.899 45.9972C163.907 48.3009 163.462 50.5837 162.588 52.7138C161.714 54.8438 160.428 56.7792 158.805 58.4082C157.183 60.0372 155.255 61.3276 153.133 62.2051C151.011 63.0827 148.737 63.5299 146.442 63.521C144.147 63.5314 141.872 63.0852 139.749 62.2082C137.627 61.3312 135.698 60.0408 134.075 58.4115C132.452 56.7822 131.167 54.8463 130.293 52.7155C129.419 50.5848 128.975 48.3014 128.985 45.9972C128.975 43.6931 129.419 41.4097 130.293 39.2789C131.167 37.1482 132.452 35.2123 134.075 33.583C135.698 31.9537 137.627 30.6632 139.749 29.7863C141.872 28.9093 144.147 28.4631 146.442 28.4734C148.737 28.4645 151.011 28.9118 153.133 29.7893C155.255 30.6668 157.183 31.9573 158.805 33.5863C160.428 35.2153 161.714 37.1506 162.588 39.2807C163.462 41.4108 163.907 43.6935 163.899 45.9972ZM169.23 45.9972C169.235 42.9911 168.648 40.0138 167.504 37.2357C166.36 34.4576 164.681 31.9334 162.564 29.8078C160.446 27.6822 157.932 25.9969 155.164 24.8486C152.397 23.7002 149.431 23.1114 146.436 23.1158C140.391 23.1158 134.593 25.5265 130.319 29.8176C126.044 34.1087 123.643 39.9287 123.643 45.9972C123.643 52.0657 126.044 57.8857 130.319 62.1768C134.593 66.4679 140.391 68.8786 146.436 68.8786C149.431 68.883 152.397 68.2942 155.164 67.1459C157.932 65.9975 160.446 64.3123 162.564 62.1866C164.681 60.061 166.36 57.5368 167.504 54.7588C168.648 51.9807 169.235 49.0033 169.23 45.9972ZM227.049 64.4921L220.377 25.3091C220.302 24.8434 220.105 24.4062 219.806 24.0423C219.507 23.6784 219.117 23.401 218.676 23.2386C218.35 23.113 218.003 23.0546 217.654 23.0667C217.305 23.0789 216.962 23.1613 216.646 23.3092C216.329 23.4571 216.046 23.6674 215.812 23.9275C215.578 24.1877 215.399 24.4924 215.285 24.8235L203.054 57.3151L190.684 24.9463C190.563 24.4705 190.301 24.0422 189.935 23.7169C189.568 23.3916 189.113 23.1841 188.627 23.1214C187.921 22.9973 187.194 23.1572 186.604 23.5666C186.015 23.976 185.609 24.6019 185.475 25.3091L178.804 64.4921C178.675 65.2018 178.832 65.9339 179.24 66.5273C179.649 67.1208 180.276 67.5269 180.983 67.6564C181.69 67.7859 182.419 67.6282 183.01 67.2179C183.602 66.8077 184.006 66.1785 184.135 65.4687L189.228 36.0187L200.502 65.9543C200.771 66.6229 201.286 67.1613 201.941 67.4567C202.596 67.7522 203.34 67.7817 204.016 67.5392C204.381 67.4128 204.713 67.2043 204.985 66.9296C205.258 66.6549 205.465 66.3213 205.589 65.9543L216.864 36.0187L221.956 65.4687C222.016 65.822 222.146 66.1596 222.338 66.4618C222.53 66.764 222.78 67.0246 223.074 67.2284C223.367 67.4322 223.699 67.5751 224.048 67.6486C224.398 67.7221 224.758 67.7247 225.109 67.6564C225.753 67.4458 226.303 67.0119 226.658 66.4322C227.013 65.8525 227.152 65.1649 227.049 64.4921Z" fill="#000100"/>
<path d="M77.3434 45.9972C89.83 31.0294 101.505 15.697 112.368 0C99.0254 13.2601 86.183 27.134 73.8187 41.8562C61.4544 27.1284 48.6065 13.2545 35.3916 0C46.303 15.697 57.9779 31.0294 70.4163 45.9972C57.9297 60.965 46.2548 76.2974 35.3916 91.9944C48.7343 78.7344 61.5841 64.7823 73.941 50.1382C86.3053 64.7451 99.1551 78.6972 112.49 91.9944C101.466 76.2955 89.83 60.965 77.3434 45.9972Z" fill="#000100"/>
<path d="M73.8243 39.6685C74.4936 39.6685 75.0362 39.1238 75.0362 38.4519C75.0362 37.78 74.4936 37.2353 73.8243 37.2353C73.1549 37.2353 72.6123 37.78 72.6123 38.4519C72.6123 39.1238 73.1549 39.6685 73.8243 39.6685Z" fill="#000100"/>
<path d="M75.887 37.4809C76.4888 37.4809 76.9767 36.9911 76.9767 36.387C76.9767 35.7829 76.4888 35.2932 75.887 35.2932C75.2852 35.2932 74.7974 35.7829 74.7974 36.387C74.7974 36.9911 75.2852 37.4809 75.887 37.4809Z" fill="#000100"/>
<path d="M77.827 35.4104C78.4288 35.4104 78.9166 34.9206 78.9166 34.3165C78.9166 33.7124 78.4288 33.2227 77.827 33.2227C77.2252 33.2227 76.7373 33.7124 76.7373 34.3165C76.7373 34.9206 77.2252 35.4104 77.827 35.4104Z" fill="#000100"/>
<path d="M79.7674 33.3399C80.3692 33.3399 80.857 32.8501 80.857 32.246C80.857 31.6419 80.3692 31.1522 79.7674 31.1522C79.1656 31.1522 78.6777 31.6419 78.6777 32.246C78.6777 32.8501 79.1656 33.3399 79.7674 33.3399Z" fill="#000100"/>
<path d="M81.7076 31.1522C82.2418 31.1522 82.6749 30.7175 82.6749 30.1811C82.6749 29.6448 82.2418 29.2101 81.7076 29.2101C81.1733 29.2101 80.7402 29.6448 80.7402 30.1811C80.7402 30.7175 81.1733 31.1522 81.7076 31.1522Z" fill="#000100"/>
<path d="M83.7647 29.0817C84.299 29.0817 84.7321 28.647 84.7321 28.1107C84.7321 27.5743 84.299 27.1396 83.7647 27.1396C83.2305 27.1396 82.7974 27.5743 82.7974 28.1107C82.7974 28.647 83.2305 29.0817 83.7647 29.0817Z" fill="#000100"/>
<path d="M85.7051 26.894C86.1749 26.894 86.5557 26.5117 86.5557 26.0401C86.5557 25.5686 86.1749 25.1863 85.7051 25.1863C85.2353 25.1863 84.8545 25.5686 84.8545 26.0401C84.8545 26.5117 85.2353 26.894 85.7051 26.894Z" fill="#000100"/>
<path d="M87.645 24.8291C88.1148 24.8291 88.4956 24.4468 88.4956 23.9753C88.4956 23.5037 88.1148 23.1214 87.645 23.1214C87.1753 23.1214 86.7944 23.5037 86.7944 23.9753C86.7944 24.4468 87.1753 24.8291 87.645 24.8291Z" fill="#000100"/>
<path d="M89.7078 22.6359C90.11 22.6359 90.4361 22.3085 90.4361 21.9048C90.4361 21.501 90.11 21.1737 89.7078 21.1737C89.3056 21.1737 88.9795 21.501 88.9795 21.9048C88.9795 22.3085 89.3056 22.6359 89.7078 22.6359Z" fill="#000100"/>
<path d="M91.6477 20.5654C92.05 20.5654 92.376 20.238 92.376 19.8343C92.376 19.4305 92.05 19.1032 91.6477 19.1032C91.2455 19.1032 90.9194 19.4305 90.9194 19.8343C90.9194 20.238 91.2455 20.5654 91.6477 20.5654Z" fill="#000100"/>
<path d="M93.5884 18.3777C93.9231 18.3777 94.1944 18.1053 94.1944 17.7694C94.1944 17.4334 93.9231 17.1611 93.5884 17.1611C93.2537 17.1611 92.9824 17.4334 92.9824 17.7694C92.9824 18.1053 93.2537 18.3777 93.5884 18.3777Z" fill="#000100"/>
<path d="M95.645 16.3072C95.9797 16.3072 96.251 16.0348 96.251 15.6989C96.251 15.3629 95.9797 15.0906 95.645 15.0906C95.3104 15.0906 95.0391 15.3629 95.0391 15.6989C95.0391 16.0348 95.3104 16.3072 95.645 16.3072Z" fill="#000100"/>
<path d="M97.5852 14.1139C97.8524 14.1139 98.0689 13.8965 98.0689 13.6284C98.0689 13.3602 97.8524 13.1429 97.5852 13.1429C97.3181 13.1429 97.1016 13.3602 97.1016 13.6284C97.1016 13.8965 97.3181 14.1139 97.5852 14.1139Z" fill="#000100"/>
<path d="M99.5257 12.0434C99.7928 12.0434 100.009 11.826 100.009 11.5579C100.009 11.2897 99.7928 11.0724 99.5257 11.0724C99.2585 11.0724 99.042 11.2897 99.042 11.5579C99.042 11.826 99.2585 12.0434 99.5257 12.0434Z" fill="#000100"/>
<path d="M101.466 9.85576C101.665 9.85576 101.827 9.69335 101.827 9.493C101.827 9.29266 101.665 9.13025 101.466 9.13025C101.266 9.13025 101.104 9.29266 101.104 9.493C101.104 9.69335 101.266 9.85576 101.466 9.85576Z" fill="#000100"/>
<path d="M103.528 7.78526C103.728 7.78526 103.89 7.62285 103.89 7.42251C103.89 7.22216 103.728 7.05975 103.528 7.05975C103.329 7.05975 103.167 7.22216 103.167 7.42251C103.167 7.62285 103.329 7.78526 103.528 7.78526Z" fill="#000100"/>
<path d="M71.8841 37.4809C72.4859 37.4809 72.9737 36.9911 72.9737 36.387C72.9737 35.7829 72.4859 35.2932 71.8841 35.2932C71.2823 35.2932 70.7944 35.7829 70.7944 36.387C70.7944 36.9911 71.2823 37.4809 71.8841 37.4809Z" fill="#000100"/>
<path d="M73.9466 35.4104C74.5484 35.4104 75.0362 34.9206 75.0362 34.3165C75.0362 33.7124 74.5484 33.2227 73.9466 33.2227C73.3448 33.2227 72.8569 33.7124 72.8569 34.3165C72.8569 34.9206 73.3448 35.4104 73.9466 35.4104Z" fill="#000100"/>
<path d="M75.887 33.3399C76.4888 33.3399 76.9767 32.8501 76.9767 32.246C76.9767 31.6419 76.4888 31.1522 75.887 31.1522C75.2852 31.1522 74.7974 31.6419 74.7974 32.246C74.7974 32.8501 75.2852 33.3399 75.887 33.3399Z" fill="#000100"/>
<path d="M77.8272 31.1522C78.3615 31.1522 78.7946 30.7175 78.7946 30.1811C78.7946 29.6448 78.3615 29.2101 77.8272 29.2101C77.293 29.2101 76.8599 29.6448 76.8599 30.1811C76.8599 30.7175 77.293 31.1522 77.8272 31.1522Z" fill="#000100"/>
<path d="M79.7671 29.0817C80.3014 29.0817 80.7345 28.647 80.7345 28.1107C80.7345 27.5743 80.3014 27.1396 79.7671 27.1396C79.2329 27.1396 78.7998 27.5743 78.7998 28.1107C78.7998 28.647 79.2329 29.0817 79.7671 29.0817Z" fill="#000100"/>
<path d="M81.8242 26.894C82.294 26.894 82.6748 26.5117 82.6748 26.0401C82.6748 25.5686 82.294 25.1863 81.8242 25.1863C81.3545 25.1863 80.9736 25.5686 80.9736 26.0401C80.9736 26.5117 81.3545 26.894 81.8242 26.894Z" fill="#000100"/>
<path d="M83.7647 24.8291C84.2344 24.8291 84.6153 24.4468 84.6153 23.9753C84.6153 23.5037 84.2344 23.1214 83.7647 23.1214C83.2949 23.1214 82.9141 23.5037 82.9141 23.9753C82.9141 24.4468 83.2949 24.8291 83.7647 24.8291Z" fill="#000100"/>
<path d="M85.7049 22.6359C86.1071 22.6359 86.4331 22.3085 86.4331 21.9048C86.4331 21.501 86.1071 21.1737 85.7049 21.1737C85.3026 21.1737 84.9766 21.501 84.9766 21.9048C84.9766 22.3085 85.3026 22.6359 85.7049 22.6359Z" fill="#000100"/>
<path d="M87.7674 20.5654C88.1696 20.5654 88.4956 20.238 88.4956 19.8343C88.4956 19.4305 88.1696 19.1032 87.7674 19.1032C87.3651 19.1032 87.0391 19.4305 87.0391 19.8343C87.0391 20.238 87.3651 20.5654 87.7674 20.5654Z" fill="#000100"/>
<path d="M89.7075 18.3777C90.0422 18.3777 90.3135 18.1053 90.3135 17.7694C90.3135 17.4334 90.0422 17.1611 89.7075 17.1611C89.3729 17.1611 89.1016 17.4334 89.1016 17.7694C89.1016 18.1053 89.3729 18.3777 89.7075 18.3777Z" fill="#000100"/>
<path d="M91.648 16.3072C91.9827 16.3072 92.254 16.0348 92.254 15.6989C92.254 15.3629 91.9827 15.0906 91.648 15.0906C91.3133 15.0906 91.042 15.3629 91.042 15.6989C91.042 16.0348 91.3133 16.3072 91.648 16.3072Z" fill="#000100"/>
<path d="M93.7049 14.1139C93.972 14.1139 94.1885 13.8965 94.1885 13.6284C94.1885 13.3602 93.972 13.1429 93.7049 13.1429C93.4377 13.1429 93.2212 13.3602 93.2212 13.6284C93.2212 13.8965 93.4377 14.1139 93.7049 14.1139Z" fill="#000100"/>
<path d="M95.6453 12.0434C95.9124 12.0434 96.129 11.826 96.129 11.5579C96.129 11.2897 95.9124 11.0724 95.6453 11.0724C95.3782 11.0724 95.1616 11.2897 95.1616 11.5579C95.1616 11.826 95.3782 12.0434 95.6453 12.0434Z" fill="#000100"/>
<path d="M97.5855 9.85576C97.7851 9.85576 97.9468 9.69335 97.9468 9.493C97.9468 9.29266 97.7851 9.13025 97.5855 9.13025C97.3859 9.13025 97.2241 9.29266 97.2241 9.493C97.2241 9.69335 97.3859 9.85576 97.5855 9.85576Z" fill="#000100"/>
<path d="M99.648 7.78526C99.8476 7.78526 100.009 7.62285 100.009 7.42251C100.009 7.22216 99.8476 7.05975 99.648 7.05975C99.4484 7.05975 99.2866 7.22216 99.2866 7.42251C99.2866 7.62285 99.4484 7.78526 99.648 7.78526Z" fill="#000100"/>
<path d="M69.9495 35.4104C70.5513 35.4104 71.0392 34.9206 71.0392 34.3165C71.0392 33.7124 70.5513 33.2227 69.9495 33.2227C69.3477 33.2227 68.8599 33.7124 68.8599 34.3165C68.8599 34.9206 69.3477 35.4104 69.9495 35.4104Z" fill="#000100"/>
<path d="M72.0062 33.3399C72.608 33.3399 73.0958 32.8501 73.0958 32.246C73.0958 31.6419 72.608 31.1522 72.0062 31.1522C71.4044 31.1522 70.9165 31.6419 70.9165 32.246C70.9165 32.8501 71.4044 33.3399 72.0062 33.3399Z" fill="#000100"/>
<path d="M73.9463 31.1522C74.4806 31.1522 74.9137 30.7175 74.9137 30.1811C74.9137 29.6448 74.4806 29.2101 73.9463 29.2101C73.4121 29.2101 72.979 29.6448 72.979 30.1811C72.979 30.7175 73.4121 31.1522 73.9463 31.1522Z" fill="#000100"/>
<path d="M75.8868 29.0817C76.421 29.0817 76.8541 28.647 76.8541 28.1107C76.8541 27.5743 76.421 27.1396 75.8868 27.1396C75.3525 27.1396 74.9194 27.5743 74.9194 28.1107C74.9194 28.647 75.3525 29.0817 75.8868 29.0817Z" fill="#000100"/>
<path d="M77.9492 26.894C78.419 26.894 78.7998 26.5117 78.7998 26.0401C78.7998 25.5686 78.419 25.1863 77.9492 25.1863C77.4795 25.1863 77.0986 25.5686 77.0986 26.0401C77.0986 26.5117 77.4795 26.894 77.9492 26.894Z" fill="#000100"/>
<path d="M79.8897 24.8291C80.3594 24.8291 80.7403 24.4468 80.7403 23.9753C80.7403 23.5037 80.3594 23.1214 79.8897 23.1214C79.4199 23.1214 79.0391 23.5037 79.0391 23.9753C79.0391 24.4468 79.4199 24.8291 79.8897 24.8291Z" fill="#000100"/>
<path d="M81.8245 22.6359C82.2267 22.6359 82.5528 22.3085 82.5528 21.9048C82.5528 21.501 82.2267 21.1737 81.8245 21.1737C81.4223 21.1737 81.0962 21.501 81.0962 21.9048C81.0962 22.3085 81.4223 22.6359 81.8245 22.6359Z" fill="#000100"/>
<path d="M83.7644 20.5654C84.1666 20.5654 84.4927 20.238 84.4927 19.8343C84.4927 19.4305 84.1666 19.1032 83.7644 19.1032C83.3622 19.1032 83.0361 19.4305 83.0361 19.8343C83.0361 20.238 83.3622 20.5654 83.7644 20.5654Z" fill="#000100"/>
<path d="M85.8272 18.3777C86.1619 18.3777 86.4332 18.1053 86.4332 17.7694C86.4332 17.4334 86.1619 17.1611 85.8272 17.1611C85.4925 17.1611 85.2212 17.4334 85.2212 17.7694C85.2212 18.1053 85.4925 18.3777 85.8272 18.3777Z" fill="#000100"/>
<path d="M87.7676 16.3072C88.1023 16.3072 88.3736 16.0348 88.3736 15.6989C88.3736 15.3629 88.1023 15.0906 87.7676 15.0906C87.4329 15.0906 87.1616 15.3629 87.1616 15.6989C87.1616 16.0348 87.4329 16.3072 87.7676 16.3072Z" fill="#000100"/>
<path d="M89.7078 14.1139C89.9749 14.1139 90.1915 13.8965 90.1915 13.6284C90.1915 13.3602 89.9749 13.1429 89.7078 13.1429C89.4407 13.1429 89.2241 13.3602 89.2241 13.6284C89.2241 13.8965 89.4407 14.1139 89.7078 14.1139Z" fill="#000100"/>
<path d="M91.7649 12.0434C92.032 12.0434 92.2486 11.826 92.2486 11.5579C92.2486 11.2897 92.032 11.0724 91.7649 11.0724C91.4978 11.0724 91.2812 11.2897 91.2812 11.5579C91.2812 11.826 91.4978 12.0434 91.7649 12.0434Z" fill="#000100"/>
<path d="M93.7051 9.85576C93.9047 9.85576 94.0665 9.69335 94.0665 9.493C94.0665 9.29266 93.9047 9.13025 93.7051 9.13025C93.5055 9.13025 93.3438 9.29266 93.3438 9.493C93.3438 9.69335 93.5055 9.85576 93.7051 9.85576Z" fill="#000100"/>
<path d="M95.6451 7.78526C95.8446 7.78526 96.0064 7.62285 96.0064 7.42251C96.0064 7.22216 95.8446 7.05975 95.6451 7.05975C95.4455 7.05975 95.2837 7.22216 95.2837 7.42251C95.2837 7.62285 95.4455 7.78526 95.6451 7.78526Z" fill="#000100"/>
<path d="M68.0091 33.3399C68.6109 33.3399 69.0987 32.8501 69.0987 32.246C69.0987 31.6419 68.6109 31.1522 68.0091 31.1522C67.4073 31.1522 66.9194 31.6419 66.9194 32.246C66.9194 32.8501 67.4073 33.3399 68.0091 33.3399Z" fill="#000100"/>
<path d="M70.066 31.1522C70.6002 31.1522 71.0333 30.7175 71.0333 30.1811C71.0333 29.6448 70.6002 29.2101 70.066 29.2101C69.5317 29.2101 69.0986 29.6448 69.0986 30.1811C69.0986 30.7175 69.5317 31.1522 70.066 31.1522Z" fill="#000100"/>
<path d="M72.0064 29.0817C72.5407 29.0817 72.9738 28.647 72.9738 28.1107C72.9738 27.5743 72.5407 27.1396 72.0064 27.1396C71.4722 27.1396 71.0391 27.5743 71.0391 28.1107C71.0391 28.647 71.4722 29.0817 72.0064 29.0817Z" fill="#000100"/>
<path d="M73.9468 26.894C74.4166 26.894 74.7974 26.5117 74.7974 26.0401C74.7974 25.5686 74.4166 25.1863 73.9468 25.1863C73.477 25.1863 73.0962 25.5686 73.0962 26.0401C73.0962 26.5117 73.477 26.894 73.9468 26.894Z" fill="#000100"/>
<path d="M76.0093 24.8291C76.4791 24.8291 76.8599 24.4468 76.8599 23.9753C76.8599 23.5037 76.4791 23.1214 76.0093 23.1214C75.5395 23.1214 75.1587 23.5037 75.1587 23.9753C75.1587 24.4468 75.5395 24.8291 76.0093 24.8291Z" fill="#000100"/>
<path d="M77.9495 22.6359C78.3517 22.6359 78.6778 22.3085 78.6778 21.9048C78.6778 21.501 78.3517 21.1737 77.9495 21.1737C77.5473 21.1737 77.2212 21.501 77.2212 21.9048C77.2212 22.3085 77.5473 22.6359 77.9495 22.6359Z" fill="#000100"/>
<path d="M79.8894 20.5654C80.2916 20.5654 80.6177 20.238 80.6177 19.8343C80.6177 19.4305 80.2916 19.1032 79.8894 19.1032C79.4872 19.1032 79.1611 19.4305 79.1611 19.8343C79.1611 20.238 79.4872 20.5654 79.8894 20.5654Z" fill="#000100"/>
<path d="M81.8242 18.3777C82.1589 18.3777 82.4302 18.1053 82.4302 17.7694C82.4302 17.4334 82.1589 17.1611 81.8242 17.1611C81.4896 17.1611 81.2183 17.4334 81.2183 17.7694C81.2183 18.1053 81.4896 18.3777 81.8242 18.3777Z" fill="#000100"/>
<path d="M83.8867 16.3072C84.2214 16.3072 84.4927 16.0348 84.4927 15.6989C84.4927 15.3629 84.2214 15.0906 83.8867 15.0906C83.5521 15.0906 83.2808 15.3629 83.2808 15.6989C83.2808 16.0348 83.5521 16.3072 83.8867 16.3072Z" fill="#000100"/>
<path d="M85.8274 14.1139C86.0946 14.1139 86.3111 13.8965 86.3111 13.6284C86.3111 13.3602 86.0946 13.1429 85.8274 13.1429C85.5603 13.1429 85.3438 13.3602 85.3438 13.6284C85.3438 13.8965 85.5603 14.1139 85.8274 14.1139Z" fill="#000100"/>
<path d="M87.7674 12.0434C88.0345 12.0434 88.251 11.826 88.251 11.5579C88.251 11.2897 88.0345 11.0724 87.7674 11.0724C87.5002 11.0724 87.2837 11.2897 87.2837 11.5579C87.2837 11.826 87.5002 12.0434 87.7674 12.0434Z" fill="#000100"/>
<path d="M89.8301 9.85576C90.0297 9.85576 90.1915 9.69335 90.1915 9.493C90.1915 9.29266 90.0297 9.13025 89.8301 9.13025C89.6305 9.13025 89.4688 9.29266 89.4688 9.493C89.4688 9.69335 89.6305 9.85576 89.8301 9.85576Z" fill="#000100"/>
<path d="M91.7647 7.78526C91.9643 7.78526 92.1261 7.62285 92.1261 7.42251C92.1261 7.22216 91.9643 7.05975 91.7647 7.05975C91.5651 7.05975 91.4033 7.22216 91.4033 7.42251C91.4033 7.62285 91.5651 7.78526 91.7647 7.78526Z" fill="#000100"/>
<path d="M66.0689 31.1522C66.6032 31.1522 67.0363 30.7175 67.0363 30.1811C67.0363 29.6448 66.6032 29.2101 66.0689 29.2101C65.5347 29.2101 65.1016 29.6448 65.1016 30.1811C65.1016 30.7175 65.5347 31.1522 66.0689 31.1522Z" fill="#000100"/>
<path d="M68.126 29.0817C68.6603 29.0817 69.0934 28.647 69.0934 28.1107C69.0934 27.5743 68.6603 27.1396 68.126 27.1396C67.5918 27.1396 67.1587 27.5743 67.1587 28.1107C67.1587 28.647 67.5918 29.0817 68.126 29.0817Z" fill="#000100"/>
<path d="M70.0659 26.894C70.5357 26.894 70.9165 26.5117 70.9165 26.0401C70.9165 25.5686 70.5357 25.1863 70.0659 25.1863C69.5962 25.1863 69.2153 25.5686 69.2153 26.0401C69.2153 26.5117 69.5962 26.894 70.0659 26.894Z" fill="#000100"/>
<path d="M72.0064 24.8291C72.4761 24.8291 72.857 24.4468 72.857 23.9753C72.857 23.5037 72.4761 23.1214 72.0064 23.1214C71.5366 23.1214 71.1558 23.5037 71.1558 23.9753C71.1558 24.4468 71.5366 24.8291 72.0064 24.8291Z" fill="#000100"/>
<path d="M74.0691 22.6359C74.4713 22.6359 74.7974 22.3085 74.7974 21.9048C74.7974 21.501 74.4713 21.1737 74.0691 21.1737C73.6669 21.1737 73.3408 21.501 73.3408 21.9048C73.3408 22.3085 73.6669 22.6359 74.0691 22.6359Z" fill="#000100"/>
<path d="M76.0091 20.5654C76.4113 20.5654 76.7373 20.238 76.7373 19.8343C76.7373 19.4305 76.4113 19.1032 76.0091 19.1032C75.6068 19.1032 75.2808 19.4305 75.2808 19.8343C75.2808 20.238 75.6068 20.5654 76.0091 20.5654Z" fill="#000100"/>
<path d="M77.9493 18.3777C78.2839 18.3777 78.5552 18.1053 78.5552 17.7694C78.5552 17.4334 78.2839 17.1611 77.9493 17.1611C77.6146 17.1611 77.3433 17.4334 77.3433 17.7694C77.3433 18.1053 77.6146 18.3777 77.9493 18.3777Z" fill="#000100"/>
<path d="M80.0064 16.3072C80.341 16.3072 80.6124 16.0348 80.6124 15.6989C80.6124 15.3629 80.341 15.0906 80.0064 15.0906C79.6717 15.0906 79.4004 15.3629 79.4004 15.6989C79.4004 16.0348 79.6717 16.3072 80.0064 16.3072Z" fill="#000100"/>
<path d="M81.9466 14.1139C82.2137 14.1139 82.4302 13.8965 82.4302 13.6284C82.4302 13.3602 82.2137 13.1429 81.9466 13.1429C81.6794 13.1429 81.4629 13.3602 81.4629 13.6284C81.4629 13.8965 81.6794 14.1139 81.9466 14.1139Z" fill="#000100"/>
<path d="M83.887 12.0434C84.1541 12.0434 84.3707 11.826 84.3707 11.5579C84.3707 11.2897 84.1541 11.0724 83.887 11.0724C83.6199 11.0724 83.4033 11.2897 83.4033 11.5579C83.4033 11.826 83.6199 12.0434 83.887 12.0434Z" fill="#000100"/>
<path d="M85.8272 9.85576C86.0268 9.85576 86.1886 9.69335 86.1886 9.493C86.1886 9.29266 86.0268 9.13025 85.8272 9.13025C85.6276 9.13025 85.4658 9.29266 85.4658 9.493C85.4658 9.69335 85.6276 9.85576 85.8272 9.85576Z" fill="#000100"/>
<path d="M87.8897 7.78526C88.0893 7.78526 88.2511 7.62285 88.2511 7.42251C88.2511 7.22216 88.0893 7.05975 87.8897 7.05975C87.6901 7.05975 87.5283 7.22216 87.5283 7.42251C87.5283 7.62285 87.6901 7.78526 87.8897 7.78526Z" fill="#000100"/>
<path d="M64.1285 29.0817C64.6627 29.0817 65.0958 28.647 65.0958 28.1107C65.0958 27.5743 64.6627 27.1396 64.1285 27.1396C63.5942 27.1396 63.1611 27.5743 63.1611 28.1107C63.1611 28.647 63.5942 29.0817 64.1285 29.0817Z" fill="#000100"/>
<path d="M66.1909 26.894C66.6607 26.894 67.0415 26.5117 67.0415 26.0401C67.0415 25.5686 66.6607 25.1863 66.1909 25.1863C65.7212 25.1863 65.3403 25.5686 65.3403 26.0401C65.3403 26.5117 65.7212 26.894 66.1909 26.894Z" fill="#000100"/>
<path d="M68.126 24.8291C68.5958 24.8291 68.9766 24.4468 68.9766 23.9753C68.9766 23.5037 68.5958 23.1214 68.126 23.1214C67.6562 23.1214 67.2754 23.5037 67.2754 23.9753C67.2754 24.4468 67.6562 24.8291 68.126 24.8291Z" fill="#000100"/>
<path d="M70.0662 22.6359C70.4684 22.6359 70.7945 22.3085 70.7945 21.9048C70.7945 21.501 70.4684 21.1737 70.0662 21.1737C69.664 21.1737 69.3379 21.501 69.3379 21.9048C69.3379 22.3085 69.664 22.6359 70.0662 22.6359Z" fill="#000100"/>
<path d="M72.1287 20.5654C72.5309 20.5654 72.857 20.238 72.857 19.8343C72.857 19.4305 72.5309 19.1032 72.1287 19.1032C71.7265 19.1032 71.4004 19.4305 71.4004 19.8343C71.4004 20.238 71.7265 20.5654 72.1287 20.5654Z" fill="#000100"/>
<path d="M74.0689 18.3777C74.4035 18.3777 74.6749 18.1053 74.6749 17.7694C74.6749 17.4334 74.4035 17.1611 74.0689 17.1611C73.7342 17.1611 73.4629 17.4334 73.4629 17.7694C73.4629 18.1053 73.7342 18.3777 74.0689 18.3777Z" fill="#000100"/>
<path d="M76.0093 16.3072C76.344 16.3072 76.6153 16.0348 76.6153 15.6989C76.6153 15.3629 76.344 15.0906 76.0093 15.0906C75.6746 15.0906 75.4033 15.3629 75.4033 15.6989C75.4033 16.0348 75.6746 16.3072 76.0093 16.3072Z" fill="#000100"/>
<path d="M78.0716 14.1139C78.3387 14.1139 78.5552 13.8965 78.5552 13.6284C78.5552 13.3602 78.3387 13.1429 78.0716 13.1429C77.8044 13.1429 77.5879 13.3602 77.5879 13.6284C77.5879 13.8965 77.8044 14.1139 78.0716 14.1139Z" fill="#000100"/>
<path d="M80.0066 12.0434C80.2738 12.0434 80.4903 11.826 80.4903 11.5579C80.4903 11.2897 80.2738 11.0724 80.0066 11.0724C79.7395 11.0724 79.5229 11.2897 79.5229 11.5579C79.5229 11.826 79.7395 12.0434 80.0066 12.0434Z" fill="#000100"/>
<path d="M81.9468 9.85576C82.1464 9.85576 82.3082 9.69335 82.3082 9.493C82.3082 9.29266 82.1464 9.13025 81.9468 9.13025C81.7472 9.13025 81.5854 9.29266 81.5854 9.493C81.5854 9.69335 81.7472 9.85576 81.9468 9.85576Z" fill="#000100"/>
<path d="M83.8868 7.78526C84.0863 7.78526 84.2481 7.62285 84.2481 7.42251C84.2481 7.22216 84.0863 7.05975 83.8868 7.05975C83.6872 7.05975 83.5254 7.22216 83.5254 7.42251C83.5254 7.62285 83.6872 7.78526 83.8868 7.78526Z" fill="#000100"/>
<path d="M62.3106 26.894C62.7803 26.894 63.1612 26.5117 63.1612 26.0401C63.1612 25.5686 62.7803 25.1863 62.3106 25.1863C61.8408 25.1863 61.46 25.5686 61.46 26.0401C61.46 26.5117 61.8408 26.894 62.3106 26.894Z" fill="#000100"/>
<path d="M64.251 24.8291C64.7208 24.8291 65.1016 24.4468 65.1016 23.9753C65.1016 23.5037 64.7208 23.1214 64.251 23.1214C63.7812 23.1214 63.4004 23.5037 63.4004 23.9753C63.4004 24.4468 63.7812 24.8291 64.251 24.8291Z" fill="#000100"/>
<path d="M66.1912 22.6359C66.5934 22.6359 66.9195 22.3085 66.9195 21.9048C66.9195 21.501 66.5934 21.1737 66.1912 21.1737C65.789 21.1737 65.4629 21.501 65.4629 21.9048C65.4629 22.3085 65.789 22.6359 66.1912 22.6359Z" fill="#000100"/>
<path d="M68.1258 20.5654C68.528 20.5654 68.854 20.238 68.854 19.8343C68.854 19.4305 68.528 19.1032 68.1258 19.1032C67.7235 19.1032 67.3975 19.4305 67.3975 19.8343C67.3975 20.238 67.7235 20.5654 68.1258 20.5654Z" fill="#000100"/>
<path d="M70.1885 18.3777C70.5232 18.3777 70.7945 18.1053 70.7945 17.7694C70.7945 17.4334 70.5232 17.1611 70.1885 17.1611C69.8538 17.1611 69.5825 17.4334 69.5825 17.7694C69.5825 18.1053 69.8538 18.3777 70.1885 18.3777Z" fill="#000100"/>
<path d="M72.1285 16.3072C72.4631 16.3072 72.7344 16.0348 72.7344 15.6989C72.7344 15.3629 72.4631 15.0906 72.1285 15.0906C71.7938 15.0906 71.5225 15.3629 71.5225 15.6989C71.5225 16.0348 71.7938 16.3072 72.1285 16.3072Z" fill="#000100"/>
<path d="M74.0691 14.1139C74.3362 14.1139 74.5528 13.8965 74.5528 13.6284C74.5528 13.3602 74.3362 13.1429 74.0691 13.1429C73.802 13.1429 73.5854 13.3602 73.5854 13.6284C73.5854 13.8965 73.802 14.1139 74.0691 14.1139Z" fill="#000100"/>
<path d="M76.1316 12.0434C76.3987 12.0434 76.6153 11.826 76.6153 11.5579C76.6153 11.2897 76.3987 11.0724 76.1316 11.0724C75.8645 11.0724 75.6479 11.2897 75.6479 11.5579C75.6479 11.826 75.8645 12.0434 76.1316 12.0434Z" fill="#000100"/>
<path d="M78.0718 9.85576C78.2714 9.85576 78.4332 9.69335 78.4332 9.493C78.4332 9.29266 78.2714 9.13025 78.0718 9.13025C77.8722 9.13025 77.7104 9.29266 77.7104 9.493C77.7104 9.69335 77.8722 9.85576 78.0718 9.85576Z" fill="#000100"/>
<path d="M80.0064 7.78526C80.206 7.78526 80.3678 7.62285 80.3678 7.42251C80.3678 7.22216 80.206 7.05975 80.0064 7.05975C79.8068 7.05975 79.645 7.22216 79.645 7.42251C79.645 7.62285 79.8068 7.78526 80.0064 7.78526Z" fill="#000100"/>
<path d="M60.3701 24.8291C60.8399 24.8291 61.2207 24.4468 61.2207 23.9753C61.2207 23.5037 60.8399 23.1214 60.3701 23.1214C59.9004 23.1214 59.5195 23.5037 59.5195 23.9753C59.5195 24.4468 59.9004 24.8291 60.3701 24.8291Z" fill="#000100"/>
<path d="M62.3108 22.6359C62.713 22.6359 63.0391 22.3085 63.0391 21.9048C63.0391 21.501 62.713 21.1737 62.3108 21.1737C61.9086 21.1737 61.5825 21.501 61.5825 21.9048C61.5825 22.3085 61.9086 22.6359 62.3108 22.6359Z" fill="#000100"/>
<path d="M64.2508 20.5654C64.653 20.5654 64.979 20.238 64.979 19.8343C64.979 19.4305 64.653 19.1032 64.2508 19.1032C63.8485 19.1032 63.5225 19.4305 63.5225 19.8343C63.5225 20.238 63.8485 20.5654 64.2508 20.5654Z" fill="#000100"/>
<path d="M66.1909 18.3777C66.5256 18.3777 66.7969 18.1053 66.7969 17.7694C66.7969 17.4334 66.5256 17.1611 66.1909 17.1611C65.8563 17.1611 65.585 17.4334 65.585 17.7694C65.585 18.1053 65.8563 18.3777 66.1909 18.3777Z" fill="#000100"/>
<path d="M68.2481 16.3072C68.5827 16.3072 68.8541 16.0348 68.8541 15.6989C68.8541 15.3629 68.5827 15.0906 68.2481 15.0906C67.9134 15.0906 67.6421 15.3629 67.6421 15.6989C67.6421 16.0348 67.9134 16.3072 68.2481 16.3072Z" fill="#000100"/>
<path d="M70.1883 14.1139C70.4554 14.1139 70.6719 13.8965 70.6719 13.6284C70.6719 13.3602 70.4554 13.1429 70.1883 13.1429C69.9211 13.1429 69.7046 13.3602 69.7046 13.6284C69.7046 13.8965 69.9211 14.1139 70.1883 14.1139Z" fill="#000100"/>
<path d="M72.1287 12.0434C72.3958 12.0434 72.6124 11.826 72.6124 11.5579C72.6124 11.2897 72.3958 11.0724 72.1287 11.0724C71.8616 11.0724 71.645 11.2897 71.645 11.5579C71.645 11.826 71.8616 12.0434 72.1287 12.0434Z" fill="#000100"/>
<path d="M74.191 9.85576C74.3905 9.85576 74.5523 9.69335 74.5523 9.493C74.5523 9.29266 74.3905 9.13025 74.191 9.13025C73.9914 9.13025 73.8296 9.29266 73.8296 9.493C73.8296 9.69335 73.9914 9.85576 74.191 9.85576Z" fill="#000100"/>
<path d="M76.1314 7.78526C76.331 7.78526 76.4928 7.62285 76.4928 7.42251C76.4928 7.22216 76.331 7.05975 76.1314 7.05975C75.9318 7.05975 75.77 7.22216 75.77 7.42251C75.77 7.62285 75.9318 7.78526 76.1314 7.78526Z" fill="#000100"/>
<path d="M58.4299 22.6359C58.8322 22.6359 59.1582 22.3085 59.1582 21.9048C59.1582 21.501 58.8322 21.1737 58.4299 21.1737C58.0277 21.1737 57.7017 21.501 57.7017 21.9048C57.7017 22.3085 58.0277 22.6359 58.4299 22.6359Z" fill="#000100"/>
<path d="M60.3704 20.5654C60.7726 20.5654 61.0987 20.238 61.0987 19.8343C61.0987 19.4305 60.7726 19.1032 60.3704 19.1032C59.9682 19.1032 59.6421 19.4305 59.6421 19.8343C59.6421 20.238 59.9682 20.5654 60.3704 20.5654Z" fill="#000100"/>
<path d="M62.3106 18.3777C62.6452 18.3777 62.9166 18.1053 62.9166 17.7694C62.9166 17.4334 62.6452 17.1611 62.3106 17.1611C61.9759 17.1611 61.7046 17.4334 61.7046 17.7694C61.7046 18.1053 61.9759 18.3777 62.3106 18.3777Z" fill="#000100"/>
<path d="M64.251 16.3072C64.5857 16.3072 64.857 16.0348 64.857 15.6989C64.857 15.3629 64.5857 15.0906 64.251 15.0906C63.9163 15.0906 63.645 15.3629 63.645 15.6989C63.645 16.0348 63.9163 16.3072 64.251 16.3072Z" fill="#000100"/>
<path d="M66.3079 14.1139C66.575 14.1139 66.7916 13.8965 66.7916 13.6284C66.7916 13.3602 66.575 13.1429 66.3079 13.1429C66.0408 13.1429 65.8242 13.3602 65.8242 13.6284C65.8242 13.8965 66.0408 14.1139 66.3079 14.1139Z" fill="#000100"/>
<path d="M68.2483 12.0434C68.5155 12.0434 68.732 11.826 68.732 11.5579C68.732 11.2897 68.5155 11.0724 68.2483 11.0724C67.9812 11.0724 67.7646 11.2897 67.7646 11.5579C67.7646 11.826 67.9812 12.0434 68.2483 12.0434Z" fill="#000100"/>
<path d="M70.1885 9.85576C70.3881 9.85576 70.5499 9.69335 70.5499 9.493C70.5499 9.29266 70.3881 9.13025 70.1885 9.13025C69.9889 9.13025 69.8271 9.29266 69.8271 9.493C69.8271 9.69335 69.9889 9.85576 70.1885 9.85576Z" fill="#000100"/>
<path d="M72.251 7.78526C72.4506 7.78526 72.6124 7.62285 72.6124 7.42251C72.6124 7.22216 72.4506 7.05975 72.251 7.05975C72.0514 7.05975 71.8896 7.22216 71.8896 7.42251C71.8896 7.62285 72.0514 7.78526 72.251 7.78526Z" fill="#000100"/>
<path d="M56.49 20.5654C56.8922 20.5654 57.2183 20.238 57.2183 19.8343C57.2183 19.4305 56.8922 19.1032 56.49 19.1032C56.0878 19.1032 55.7617 19.4305 55.7617 19.8343C55.7617 20.238 56.0878 20.5654 56.49 20.5654Z" fill="#000100"/>
<path d="M58.4302 18.3777C58.7649 18.3777 59.0362 18.1053 59.0362 17.7694C59.0362 17.4334 58.7649 17.1611 58.4302 17.1611C58.0955 17.1611 57.8242 17.4334 57.8242 17.7694C57.8242 18.1053 58.0955 18.3777 58.4302 18.3777Z" fill="#000100"/>
<path d="M60.3701 16.3072C60.7048 16.3072 60.9761 16.0348 60.9761 15.6989C60.9761 15.3629 60.7048 15.0906 60.3701 15.0906C60.0355 15.0906 59.7642 15.3629 59.7642 15.6989C59.7642 16.0348 60.0355 16.3072 60.3701 16.3072Z" fill="#000100"/>
<path d="M62.4329 14.1139C62.7 14.1139 62.9166 13.8965 62.9166 13.6284C62.9166 13.3602 62.7 13.1429 62.4329 13.1429C62.1658 13.1429 61.9492 13.3602 61.9492 13.6284C61.9492 13.8965 62.1658 14.1139 62.4329 14.1139Z" fill="#000100"/>
<path d="M64.3733 12.0434C64.6405 12.0434 64.857 11.826 64.857 11.5579C64.857 11.2897 64.6405 11.0724 64.3733 11.0724C64.1062 11.0724 63.8896 11.2897 63.8896 11.5579C63.8896 11.826 64.1062 12.0434 64.3733 12.0434Z" fill="#000100"/>
<path d="M66.3077 9.85576C66.5072 9.85576 66.669 9.69335 66.669 9.493C66.669 9.29266 66.5072 9.13025 66.3077 9.13025C66.1081 9.13025 65.9463 9.29266 65.9463 9.493C65.9463 9.69335 66.1081 9.85576 66.3077 9.85576Z" fill="#000100"/>
<path d="M68.2481 7.78526C68.4477 7.78526 68.6095 7.62285 68.6095 7.42251C68.6095 7.22216 68.4477 7.05975 68.2481 7.05975C68.0485 7.05975 67.8867 7.22216 67.8867 7.42251C67.8867 7.62285 68.0485 7.78526 68.2481 7.78526Z" fill="#000100"/>
<path d="M54.5493 18.3777C54.884 18.3777 55.1553 18.1053 55.1553 17.7694C55.1553 17.4334 54.884 17.1611 54.5493 17.1611C54.2147 17.1611 53.9434 17.4334 53.9434 17.7694C53.9434 18.1053 54.2147 18.3777 54.5493 18.3777Z" fill="#000100"/>
<path d="M56.4898 16.3072C56.8244 16.3072 57.0958 16.0348 57.0958 15.6989C57.0958 15.3629 56.8244 15.0906 56.4898 15.0906C56.1551 15.0906 55.8838 15.3629 55.8838 15.6989C55.8838 16.0348 56.1551 16.3072 56.4898 16.3072Z" fill="#000100"/>
<path d="M58.43 14.1139C58.6971 14.1139 58.9136 13.8965 58.9136 13.6284C58.9136 13.3602 58.6971 13.1429 58.43 13.1429C58.1628 13.1429 57.9463 13.3602 57.9463 13.6284C57.9463 13.8965 58.1628 14.1139 58.43 14.1139Z" fill="#000100"/>
<path d="M60.4925 12.0434C60.7596 12.0434 60.9761 11.826 60.9761 11.5579C60.9761 11.2897 60.7596 11.0724 60.4925 11.0724C60.2253 11.0724 60.0088 11.2897 60.0088 11.5579C60.0088 11.826 60.2253 12.0434 60.4925 12.0434Z" fill="#000100"/>
<path d="M62.4331 9.85576C62.6327 9.85576 62.7945 9.69335 62.7945 9.493C62.7945 9.29266 62.6327 9.13025 62.4331 9.13025C62.2336 9.13025 62.0718 9.29266 62.0718 9.493C62.0718 9.69335 62.2336 9.85576 62.4331 9.85576Z" fill="#000100"/>
<path d="M64.3731 7.78526C64.5727 7.78526 64.7345 7.62285 64.7345 7.42251C64.7345 7.22216 64.5727 7.05975 64.3731 7.05975C64.1735 7.05975 64.0117 7.22216 64.0117 7.42251C64.0117 7.62285 64.1735 7.78526 64.3731 7.78526Z" fill="#000100"/>
<path d="M52.6094 16.3072C52.9441 16.3072 53.2154 16.0348 53.2154 15.6989C53.2154 15.3629 52.9441 15.0906 52.6094 15.0906C52.2747 15.0906 52.0034 15.3629 52.0034 15.6989C52.0034 16.0348 52.2747 16.3072 52.6094 16.3072Z" fill="#000100"/>
<path d="M54.5496 14.1139C54.8167 14.1139 55.0333 13.8965 55.0333 13.6284C55.0333 13.3602 54.8167 13.1429 54.5496 13.1429C54.2825 13.1429 54.0659 13.3602 54.0659 13.6284C54.0659 13.8965 54.2825 14.1139 54.5496 14.1139Z" fill="#000100"/>
<path d="M56.49 12.0434C56.7571 12.0434 56.9737 11.826 56.9737 11.5579C56.9737 11.2897 56.7571 11.0724 56.49 11.0724C56.2229 11.0724 56.0063 11.2897 56.0063 11.5579C56.0063 11.826 56.2229 12.0434 56.49 12.0434Z" fill="#000100"/>
<path d="M58.5523 9.85576C58.7519 9.85576 58.9137 9.69335 58.9137 9.493C58.9137 9.29266 58.7519 9.13025 58.5523 9.13025C58.3527 9.13025 58.1909 9.29266 58.1909 9.493C58.1909 9.69335 58.3527 9.85576 58.5523 9.85576Z" fill="#000100"/>
<path d="M60.4927 7.78526C60.6923 7.78526 60.8541 7.62285 60.8541 7.42251C60.8541 7.22216 60.6923 7.05975 60.4927 7.05975C60.2931 7.05975 60.1313 7.22216 60.1313 7.42251C60.1313 7.62285 60.2931 7.78526 60.4927 7.78526Z" fill="#000100"/>
<path d="M50.6746 14.1139C50.9417 14.1139 51.1583 13.8965 51.1583 13.6284C51.1583 13.3602 50.9417 13.1429 50.6746 13.1429C50.4075 13.1429 50.1909 13.3602 50.1909 13.6284C50.1909 13.8965 50.4075 14.1139 50.6746 14.1139Z" fill="#000100"/>
<path d="M52.6092 12.0434C52.8763 12.0434 53.0928 11.826 53.0928 11.5579C53.0928 11.2897 52.8763 11.0724 52.6092 11.0724C52.342 11.0724 52.1255 11.2897 52.1255 11.5579C52.1255 11.826 52.342 12.0434 52.6092 12.0434Z" fill="#000100"/>
<path d="M54.5494 9.85576C54.7489 9.85576 54.9107 9.69335 54.9107 9.493C54.9107 9.29266 54.7489 9.13025 54.5494 9.13025C54.3498 9.13025 54.188 9.29266 54.188 9.493C54.188 9.69335 54.3498 9.85576 54.5494 9.85576Z" fill="#000100"/>
<path d="M56.6123 7.78526C56.8119 7.78526 56.9737 7.62285 56.9737 7.42251C56.9737 7.22216 56.8119 7.05975 56.6123 7.05975C56.4128 7.05975 56.251 7.22216 56.251 7.42251C56.251 7.62285 56.4128 7.78526 56.6123 7.78526Z" fill="#000100"/>
<path d="M48.7342 12.0434C49.0013 12.0434 49.2178 11.826 49.2178 11.5579C49.2178 11.2897 49.0013 11.0724 48.7342 11.0724C48.467 11.0724 48.2505 11.2897 48.2505 11.5579C48.2505 11.826 48.467 12.0434 48.7342 12.0434Z" fill="#000100"/>
<path d="M50.6748 9.85576C50.8744 9.85576 51.0362 9.69335 51.0362 9.493C51.0362 9.29266 50.8744 9.13025 50.6748 9.13025C50.4753 9.13025 50.3135 9.29266 50.3135 9.493C50.3135 9.69335 50.4753 9.85576 50.6748 9.85576Z" fill="#000100"/>
<path d="M52.6094 7.78526C52.809 7.78526 52.9708 7.62285 52.9708 7.42251C52.9708 7.22216 52.809 7.05975 52.6094 7.05975C52.4098 7.05975 52.248 7.22216 52.248 7.42251C52.248 7.62285 52.4098 7.78526 52.6094 7.78526Z" fill="#000100"/>
<path d="M46.794 9.85576C46.9936 9.85576 47.1554 9.69335 47.1554 9.493C47.1554 9.29266 46.9936 9.13025 46.794 9.13025C46.5944 9.13025 46.4326 9.29266 46.4326 9.493C46.4326 9.69335 46.5944 9.85576 46.794 9.85576Z" fill="#000100"/>
<path d="M48.7344 7.78526C48.934 7.78526 49.0958 7.62285 49.0958 7.42251C49.0958 7.22216 48.934 7.05975 48.7344 7.05975C48.5348 7.05975 48.373 7.22216 48.373 7.42251C48.373 7.62285 48.5348 7.78526 48.7344 7.78526Z" fill="#000100"/>
<path d="M44.854 7.78526C45.0536 7.78526 45.2154 7.62285 45.2154 7.42251C45.2154 7.22216 45.0536 7.05975 44.854 7.05975C44.6545 7.05975 44.4927 7.22216 44.4927 7.42251C44.4927 7.62285 44.6545 7.78526 44.854 7.78526Z" fill="#000100"/>
<path d="M73.8243 54.7591C74.4936 54.7591 75.0362 54.2144 75.0362 53.5425C75.0362 52.8706 74.4936 52.3259 73.8243 52.3259C73.1549 52.3259 72.6123 52.8706 72.6123 53.5425C72.6123 54.2144 73.1549 54.7591 73.8243 54.7591Z" fill="#000100"/>
<path d="M75.887 56.7068C76.4888 56.7068 76.9767 56.2171 76.9767 55.613C76.9767 55.0089 76.4888 54.5191 75.887 54.5191C75.2852 54.5191 74.7974 55.0089 74.7974 55.613C74.7974 56.2171 75.2852 56.7068 75.887 56.7068Z" fill="#000100"/>
<path d="M77.827 58.7773C78.4288 58.7773 78.9166 58.2876 78.9166 57.6835C78.9166 57.0794 78.4288 56.5896 77.827 56.5896C77.2252 56.5896 76.7373 57.0794 76.7373 57.6835C76.7373 58.2876 77.2252 58.7773 77.827 58.7773Z" fill="#000100"/>
<path d="M79.7674 60.8422C80.3692 60.8422 80.857 60.3525 80.857 59.7484C80.857 59.1443 80.3692 58.6545 79.7674 58.6545C79.1656 58.6545 78.6777 59.1443 78.6777 59.7484C78.6777 60.3525 79.1656 60.8422 79.7674 60.8422Z" fill="#000100"/>
<path d="M81.7076 62.7899C82.2418 62.7899 82.6749 62.3552 82.6749 61.8189C82.6749 61.2826 82.2418 60.8478 81.7076 60.8478C81.1733 60.8478 80.7402 61.2826 80.7402 61.8189C80.7402 62.3552 81.1733 62.7899 81.7076 62.7899Z" fill="#000100"/>
<path d="M83.7647 64.8604C84.299 64.8604 84.7321 64.4256 84.7321 63.8893C84.7321 63.353 84.299 62.9183 83.7647 62.9183C83.2305 62.9183 82.7974 63.353 82.7974 63.8893C82.7974 64.4256 83.2305 64.8604 83.7647 64.8604Z" fill="#000100"/>
<path d="M85.7051 66.8081C86.1749 66.8081 86.5557 66.4258 86.5557 65.9543C86.5557 65.4827 86.1749 65.1004 85.7051 65.1004C85.2353 65.1004 84.8545 65.4827 84.8545 65.9543C84.8545 66.4258 85.2353 66.8081 85.7051 66.8081Z" fill="#000100"/>
<path d="M87.645 68.8786C88.1148 68.8786 88.4956 68.4963 88.4956 68.0248C88.4956 67.5532 88.1148 67.1709 87.645 67.1709C87.1753 67.1709 86.7944 67.5532 86.7944 68.0248C86.7944 68.4963 87.1753 68.8786 87.645 68.8786Z" fill="#000100"/>
<path d="M89.7078 70.8263C90.11 70.8263 90.4361 70.499 90.4361 70.0952C90.4361 69.6915 90.11 69.3641 89.7078 69.3641C89.3056 69.3641 88.9795 69.6915 88.9795 70.0952C88.9795 70.499 89.3056 70.8263 89.7078 70.8263Z" fill="#000100"/>
<path d="M91.6477 72.8912C92.05 72.8912 92.376 72.5639 92.376 72.1601C92.376 71.7564 92.05 71.429 91.6477 71.429C91.2455 71.429 90.9194 71.7564 90.9194 72.1601C90.9194 72.5639 91.2455 72.8912 91.6477 72.8912Z" fill="#000100"/>
<path d="M93.5884 74.8389C93.9231 74.8389 94.1944 74.5666 94.1944 74.2306C94.1944 73.8947 93.9231 73.6223 93.5884 73.6223C93.2537 73.6223 92.9824 73.8947 92.9824 74.2306C92.9824 74.5666 93.2537 74.8389 93.5884 74.8389Z" fill="#000100"/>
<path d="M95.645 76.9094C95.9797 76.9094 96.251 76.6371 96.251 76.3011C96.251 75.9652 95.9797 75.6928 95.645 75.6928C95.3104 75.6928 95.0391 75.9652 95.0391 76.3011C95.0391 76.6371 95.3104 76.9094 95.645 76.9094Z" fill="#000100"/>
<path d="M97.5852 78.8571C97.8524 78.8571 98.0689 78.6398 98.0689 78.3716C98.0689 78.1035 97.8524 77.8861 97.5852 77.8861C97.3181 77.8861 97.1016 78.1035 97.1016 78.3716C97.1016 78.6398 97.3181 78.8571 97.5852 78.8571Z" fill="#000100"/>
<path d="M99.5257 80.9221C99.7928 80.9221 100.009 80.7047 100.009 80.4365C100.009 80.1684 99.7928 79.951 99.5257 79.951C99.2585 79.951 99.042 80.1684 99.042 80.4365C99.042 80.7047 99.2585 80.9221 99.5257 80.9221Z" fill="#000100"/>
<path d="M101.466 82.8698C101.665 82.8698 101.827 82.7074 101.827 82.507C101.827 82.3067 101.665 82.1443 101.466 82.1443C101.266 82.1443 101.104 82.3067 101.104 82.507C101.104 82.7074 101.266 82.8698 101.466 82.8698Z" fill="#000100"/>
<path d="M103.528 84.9402C103.728 84.9402 103.89 84.7778 103.89 84.5775C103.89 84.3771 103.728 84.2147 103.528 84.2147C103.329 84.2147 103.167 84.3771 103.167 84.5775C103.167 84.7778 103.329 84.9402 103.528 84.9402Z" fill="#000100"/>
<path d="M71.8841 56.7068C72.4859 56.7068 72.9737 56.2171 72.9737 55.613C72.9737 55.0089 72.4859 54.5191 71.8841 54.5191C71.2823 54.5191 70.7944 55.0089 70.7944 55.613C70.7944 56.2171 71.2823 56.7068 71.8841 56.7068Z" fill="#000100"/>
<path d="M73.9466 58.7773C74.5484 58.7773 75.0362 58.2876 75.0362 57.6835C75.0362 57.0794 74.5484 56.5896 73.9466 56.5896C73.3448 56.5896 72.8569 57.0794 72.8569 57.6835C72.8569 58.2876 73.3448 58.7773 73.9466 58.7773Z" fill="#000100"/>
<path d="M75.887 60.8422C76.4888 60.8422 76.9767 60.3525 76.9767 59.7484C76.9767 59.1443 76.4888 58.6545 75.887 58.6545C75.2852 58.6545 74.7974 59.1443 74.7974 59.7484C74.7974 60.3525 75.2852 60.8422 75.887 60.8422Z" fill="#000100"/>
<path d="M77.8272 62.7899C78.3615 62.7899 78.7946 62.3552 78.7946 61.8189C78.7946 61.2826 78.3615 60.8478 77.8272 60.8478C77.293 60.8478 76.8599 61.2826 76.8599 61.8189C76.8599 62.3552 77.293 62.7899 77.8272 62.7899Z" fill="#000100"/>
<path d="M79.7671 64.8604C80.3014 64.8604 80.7345 64.4256 80.7345 63.8893C80.7345 63.353 80.3014 62.9183 79.7671 62.9183C79.2329 62.9183 78.7998 63.353 78.7998 63.8893C78.7998 64.4256 79.2329 64.8604 79.7671 64.8604Z" fill="#000100"/>
<path d="M81.8242 66.8081C82.294 66.8081 82.6748 66.4258 82.6748 65.9543C82.6748 65.4827 82.294 65.1004 81.8242 65.1004C81.3545 65.1004 80.9736 65.4827 80.9736 65.9543C80.9736 66.4258 81.3545 66.8081 81.8242 66.8081Z" fill="#000100"/>
<path d="M83.7647 68.8786C84.2344 68.8786 84.6153 68.4963 84.6153 68.0248C84.6153 67.5532 84.2344 67.1709 83.7647 67.1709C83.2949 67.1709 82.9141 67.5532 82.9141 68.0248C82.9141 68.4963 83.2949 68.8786 83.7647 68.8786Z" fill="#000100"/>
<path d="M85.7049 70.8263C86.1071 70.8263 86.4331 70.499 86.4331 70.0952C86.4331 69.6915 86.1071 69.3641 85.7049 69.3641C85.3026 69.3641 84.9766 69.6915 84.9766 70.0952C84.9766 70.499 85.3026 70.8263 85.7049 70.8263Z" fill="#000100"/>
<path d="M87.7674 72.8912C88.1696 72.8912 88.4956 72.5639 88.4956 72.1601C88.4956 71.7564 88.1696 71.429 87.7674 71.429C87.3651 71.429 87.0391 71.7564 87.0391 72.1601C87.0391 72.5639 87.3651 72.8912 87.7674 72.8912Z" fill="#000100"/>
<path d="M89.7075 74.8389C90.0422 74.8389 90.3135 74.5666 90.3135 74.2306C90.3135 73.8947 90.0422 73.6223 89.7075 73.6223C89.3729 73.6223 89.1016 73.8947 89.1016 74.2306C89.1016 74.5666 89.3729 74.8389 89.7075 74.8389Z" fill="#000100"/>
<path d="M91.648 76.9094C91.9827 76.9094 92.254 76.6371 92.254 76.3011C92.254 75.9652 91.9827 75.6928 91.648 75.6928C91.3133 75.6928 91.042 75.9652 91.042 76.3011C91.042 76.6371 91.3133 76.9094 91.648 76.9094Z" fill="#000100"/>
<path d="M93.7049 78.8571C93.972 78.8571 94.1885 78.6398 94.1885 78.3716C94.1885 78.1035 93.972 77.8861 93.7049 77.8861C93.4377 77.8861 93.2212 78.1035 93.2212 78.3716C93.2212 78.6398 93.4377 78.8571 93.7049 78.8571Z" fill="#000100"/>
<path d="M95.6453 80.9221C95.9124 80.9221 96.129 80.7047 96.129 80.4365C96.129 80.1684 95.9124 79.951 95.6453 79.951C95.3782 79.951 95.1616 80.1684 95.1616 80.4365C95.1616 80.7047 95.3782 80.9221 95.6453 80.9221Z" fill="#000100"/>
<path d="M97.5855 82.8698C97.7851 82.8698 97.9468 82.7074 97.9468 82.507C97.9468 82.3067 97.7851 82.1443 97.5855 82.1443C97.3859 82.1443 97.2241 82.3067 97.2241 82.507C97.2241 82.7074 97.3859 82.8698 97.5855 82.8698Z" fill="#000100"/>
<path d="M99.648 84.9402C99.8476 84.9402 100.009 84.7778 100.009 84.5775C100.009 84.3771 99.8476 84.2147 99.648 84.2147C99.4484 84.2147 99.2866 84.3771 99.2866 84.5775C99.2866 84.7778 99.4484 84.9402 99.648 84.9402Z" fill="#000100"/>
<path d="M69.9495 58.7773C70.5513 58.7773 71.0392 58.2876 71.0392 57.6835C71.0392 57.0794 70.5513 56.5896 69.9495 56.5896C69.3477 56.5896 68.8599 57.0794 68.8599 57.6835C68.8599 58.2876 69.3477 58.7773 69.9495 58.7773Z" fill="#000100"/>
<path d="M72.0062 60.8422C72.608 60.8422 73.0958 60.3525 73.0958 59.7484C73.0958 59.1443 72.608 58.6545 72.0062 58.6545C71.4044 58.6545 70.9165 59.1443 70.9165 59.7484C70.9165 60.3525 71.4044 60.8422 72.0062 60.8422Z" fill="#000100"/>
<path d="M73.9463 62.7899C74.4806 62.7899 74.9137 62.3552 74.9137 61.8189C74.9137 61.2826 74.4806 60.8478 73.9463 60.8478C73.4121 60.8478 72.979 61.2826 72.979 61.8189C72.979 62.3552 73.4121 62.7899 73.9463 62.7899Z" fill="#000100"/>
<path d="M75.8868 64.8604C76.421 64.8604 76.8541 64.4256 76.8541 63.8893C76.8541 63.353 76.421 62.9183 75.8868 62.9183C75.3525 62.9183 74.9194 63.353 74.9194 63.8893C74.9194 64.4256 75.3525 64.8604 75.8868 64.8604Z" fill="#000100"/>
<path d="M77.9492 66.8081C78.419 66.8081 78.7998 66.4258 78.7998 65.9543C78.7998 65.4827 78.419 65.1004 77.9492 65.1004C77.4795 65.1004 77.0986 65.4827 77.0986 65.9543C77.0986 66.4258 77.4795 66.8081 77.9492 66.8081Z" fill="#000100"/>
<path d="M79.8897 68.8786C80.3594 68.8786 80.7403 68.4963 80.7403 68.0248C80.7403 67.5532 80.3594 67.1709 79.8897 67.1709C79.4199 67.1709 79.0391 67.5532 79.0391 68.0248C79.0391 68.4963 79.4199 68.8786 79.8897 68.8786Z" fill="#000100"/>
<path d="M81.8245 70.8263C82.2267 70.8263 82.5528 70.499 82.5528 70.0952C82.5528 69.6915 82.2267 69.3641 81.8245 69.3641C81.4223 69.3641 81.0962 69.6915 81.0962 70.0952C81.0962 70.499 81.4223 70.8263 81.8245 70.8263Z" fill="#000100"/>
<path d="M83.7644 72.8912C84.1666 72.8912 84.4927 72.5639 84.4927 72.1601C84.4927 71.7564 84.1666 71.429 83.7644 71.429C83.3622 71.429 83.0361 71.7564 83.0361 72.1601C83.0361 72.5639 83.3622 72.8912 83.7644 72.8912Z" fill="#000100"/>
<path d="M85.8272 74.8389C86.1619 74.8389 86.4332 74.5666 86.4332 74.2306C86.4332 73.8947 86.1619 73.6223 85.8272 73.6223C85.4925 73.6223 85.2212 73.8947 85.2212 74.2306C85.2212 74.5666 85.4925 74.8389 85.8272 74.8389Z" fill="#000100"/>
<path d="M87.7676 76.9094C88.1023 76.9094 88.3736 76.6371 88.3736 76.3011C88.3736 75.9652 88.1023 75.6928 87.7676 75.6928C87.4329 75.6928 87.1616 75.9652 87.1616 76.3011C87.1616 76.6371 87.4329 76.9094 87.7676 76.9094Z" fill="#000100"/>
<path d="M89.7078 78.8571C89.9749 78.8571 90.1915 78.6398 90.1915 78.3716C90.1915 78.1035 89.9749 77.8861 89.7078 77.8861C89.4407 77.8861 89.2241 78.1035 89.2241 78.3716C89.2241 78.6398 89.4407 78.8571 89.7078 78.8571Z" fill="#000100"/>
<path d="M91.7649 80.9221C92.032 80.9221 92.2486 80.7047 92.2486 80.4365C92.2486 80.1684 92.032 79.951 91.7649 79.951C91.4978 79.951 91.2812 80.1684 91.2812 80.4365C91.2812 80.7047 91.4978 80.9221 91.7649 80.9221Z" fill="#000100"/>
<path d="M93.7051 82.8698C93.9047 82.8698 94.0665 82.7074 94.0665 82.507C94.0665 82.3067 93.9047 82.1443 93.7051 82.1443C93.5055 82.1443 93.3438 82.3067 93.3438 82.507C93.3438 82.7074 93.5055 82.8698 93.7051 82.8698Z" fill="#000100"/>
<path d="M95.6451 84.9402C95.8446 84.9402 96.0064 84.7778 96.0064 84.5775C96.0064 84.3771 95.8446 84.2147 95.6451 84.2147C95.4455 84.2147 95.2837 84.3771 95.2837 84.5775C95.2837 84.7778 95.4455 84.9402 95.6451 84.9402Z" fill="#000100"/>
<path d="M68.0091 60.8422C68.6109 60.8422 69.0987 60.3525 69.0987 59.7484C69.0987 59.1443 68.6109 58.6545 68.0091 58.6545C67.4073 58.6545 66.9194 59.1443 66.9194 59.7484C66.9194 60.3525 67.4073 60.8422 68.0091 60.8422Z" fill="#000100"/>
<path d="M70.066 62.7899C70.6002 62.7899 71.0333 62.3552 71.0333 61.8189C71.0333 61.2826 70.6002 60.8478 70.066 60.8478C69.5317 60.8478 69.0986 61.2826 69.0986 61.8189C69.0986 62.3552 69.5317 62.7899 70.066 62.7899Z" fill="#000100"/>
<path d="M72.0064 64.8604C72.5407 64.8604 72.9738 64.4256 72.9738 63.8893C72.9738 63.353 72.5407 62.9183 72.0064 62.9183C71.4722 62.9183 71.0391 63.353 71.0391 63.8893C71.0391 64.4256 71.4722 64.8604 72.0064 64.8604Z" fill="#000100"/>
<path d="M73.9468 66.8081C74.4166 66.8081 74.7974 66.4258 74.7974 65.9543C74.7974 65.4827 74.4166 65.1004 73.9468 65.1004C73.477 65.1004 73.0962 65.4827 73.0962 65.9543C73.0962 66.4258 73.477 66.8081 73.9468 66.8081Z" fill="#000100"/>
<path d="M76.0093 68.8786C76.4791 68.8786 76.8599 68.4963 76.8599 68.0248C76.8599 67.5532 76.4791 67.1709 76.0093 67.1709C75.5395 67.1709 75.1587 67.5532 75.1587 68.0248C75.1587 68.4963 75.5395 68.8786 76.0093 68.8786Z" fill="#000100"/>
<path d="M77.9495 70.8263C78.3517 70.8263 78.6778 70.499 78.6778 70.0952C78.6778 69.6915 78.3517 69.3641 77.9495 69.3641C77.5473 69.3641 77.2212 69.6915 77.2212 70.0952C77.2212 70.499 77.5473 70.8263 77.9495 70.8263Z" fill="#000100"/>
<path d="M79.8894 72.8912C80.2916 72.8912 80.6177 72.5639 80.6177 72.1601C80.6177 71.7564 80.2916 71.429 79.8894 71.429C79.4872 71.429 79.1611 71.7564 79.1611 72.1601C79.1611 72.5639 79.4872 72.8912 79.8894 72.8912Z" fill="#000100"/>
<path d="M81.8242 74.8389C82.1589 74.8389 82.4302 74.5666 82.4302 74.2306C82.4302 73.8947 82.1589 73.6223 81.8242 73.6223C81.4896 73.6223 81.2183 73.8947 81.2183 74.2306C81.2183 74.5666 81.4896 74.8389 81.8242 74.8389Z" fill="#000100"/>
<path d="M83.8867 76.9094C84.2214 76.9094 84.4927 76.6371 84.4927 76.3011C84.4927 75.9652 84.2214 75.6928 83.8867 75.6928C83.5521 75.6928 83.2808 75.9652 83.2808 76.3011C83.2808 76.6371 83.5521 76.9094 83.8867 76.9094Z" fill="#000100"/>
<path d="M85.8274 78.8571C86.0946 78.8571 86.3111 78.6398 86.3111 78.3716C86.3111 78.1035 86.0946 77.8861 85.8274 77.8861C85.5603 77.8861 85.3438 78.1035 85.3438 78.3716C85.3438 78.6398 85.5603 78.8571 85.8274 78.8571Z" fill="#000100"/>
<path d="M87.7674 80.9221C88.0345 80.9221 88.251 80.7047 88.251 80.4365C88.251 80.1684 88.0345 79.951 87.7674 79.951C87.5002 79.951 87.2837 80.1684 87.2837 80.4365C87.2837 80.7047 87.5002 80.9221 87.7674 80.9221Z" fill="#000100"/>
<path d="M89.8301 82.8698C90.0297 82.8698 90.1915 82.7074 90.1915 82.507C90.1915 82.3067 90.0297 82.1443 89.8301 82.1443C89.6305 82.1443 89.4688 82.3067 89.4688 82.507C89.4688 82.7074 89.6305 82.8698 89.8301 82.8698Z" fill="#000100"/>
<path d="M91.7647 84.9402C91.9643 84.9402 92.1261 84.7778 92.1261 84.5775C92.1261 84.3771 91.9643 84.2147 91.7647 84.2147C91.5651 84.2147 91.4033 84.3771 91.4033 84.5775C91.4033 84.7778 91.5651 84.9402 91.7647 84.9402Z" fill="#000100"/>
<path d="M66.0689 62.7899C66.6032 62.7899 67.0363 62.3552 67.0363 61.8189C67.0363 61.2826 66.6032 60.8478 66.0689 60.8478C65.5347 60.8478 65.1016 61.2826 65.1016 61.8189C65.1016 62.3552 65.5347 62.7899 66.0689 62.7899Z" fill="#000100"/>
<path d="M68.126 64.8604C68.6603 64.8604 69.0934 64.4256 69.0934 63.8893C69.0934 63.353 68.6603 62.9183 68.126 62.9183C67.5918 62.9183 67.1587 63.353 67.1587 63.8893C67.1587 64.4256 67.5918 64.8604 68.126 64.8604Z" fill="#000100"/>
<path d="M70.0659 66.8081C70.5357 66.8081 70.9165 66.4258 70.9165 65.9543C70.9165 65.4827 70.5357 65.1004 70.0659 65.1004C69.5962 65.1004 69.2153 65.4827 69.2153 65.9543C69.2153 66.4258 69.5962 66.8081 70.0659 66.8081Z" fill="#000100"/>
<path d="M72.0064 68.8786C72.4761 68.8786 72.857 68.4963 72.857 68.0248C72.857 67.5532 72.4761 67.1709 72.0064 67.1709C71.5366 67.1709 71.1558 67.5532 71.1558 68.0248C71.1558 68.4963 71.5366 68.8786 72.0064 68.8786Z" fill="#000100"/>
<path d="M74.0691 70.8263C74.4713 70.8263 74.7974 70.499 74.7974 70.0952C74.7974 69.6915 74.4713 69.3641 74.0691 69.3641C73.6669 69.3641 73.3408 69.6915 73.3408 70.0952C73.3408 70.499 73.6669 70.8263 74.0691 70.8263Z" fill="#000100"/>
<path d="M76.0091 72.8912C76.4113 72.8912 76.7373 72.5639 76.7373 72.1601C76.7373 71.7564 76.4113 71.429 76.0091 71.429C75.6068 71.429 75.2808 71.7564 75.2808 72.1601C75.2808 72.5639 75.6068 72.8912 76.0091 72.8912Z" fill="#000100"/>
<path d="M77.9493 74.8389C78.2839 74.8389 78.5552 74.5666 78.5552 74.2306C78.5552 73.8947 78.2839 73.6223 77.9493 73.6223C77.6146 73.6223 77.3433 73.8947 77.3433 74.2306C77.3433 74.5666 77.6146 74.8389 77.9493 74.8389Z" fill="#000100"/>
<path d="M80.0064 76.9094C80.341 76.9094 80.6124 76.6371 80.6124 76.3011C80.6124 75.9652 80.341 75.6928 80.0064 75.6928C79.6717 75.6928 79.4004 75.9652 79.4004 76.3011C79.4004 76.6371 79.6717 76.9094 80.0064 76.9094Z" fill="#000100"/>
<path d="M81.9466 78.8571C82.2137 78.8571 82.4302 78.6398 82.4302 78.3716C82.4302 78.1035 82.2137 77.8861 81.9466 77.8861C81.6794 77.8861 81.4629 78.1035 81.4629 78.3716C81.4629 78.6398 81.6794 78.8571 81.9466 78.8571Z" fill="#000100"/>
<path d="M83.887 80.9221C84.1541 80.9221 84.3707 80.7047 84.3707 80.4365C84.3707 80.1684 84.1541 79.951 83.887 79.951C83.6199 79.951 83.4033 80.1684 83.4033 80.4365C83.4033 80.7047 83.6199 80.9221 83.887 80.9221Z" fill="#000100"/>
<path d="M85.8272 82.8698C86.0268 82.8698 86.1886 82.7074 86.1886 82.507C86.1886 82.3067 86.0268 82.1443 85.8272 82.1443C85.6276 82.1443 85.4658 82.3067 85.4658 82.507C85.4658 82.7074 85.6276 82.8698 85.8272 82.8698Z" fill="#000100"/>
<path d="M87.8897 84.9402C88.0893 84.9402 88.2511 84.7778 88.2511 84.5775C88.2511 84.3771 88.0893 84.2147 87.8897 84.2147C87.6901 84.2147 87.5283 84.3771 87.5283 84.5775C87.5283 84.7778 87.6901 84.9402 87.8897 84.9402Z" fill="#000100"/>
<path d="M64.1285 64.8604C64.6627 64.8604 65.0958 64.4256 65.0958 63.8893C65.0958 63.353 64.6627 62.9183 64.1285 62.9183C63.5942 62.9183 63.1611 63.353 63.1611 63.8893C63.1611 64.4256 63.5942 64.8604 64.1285 64.8604Z" fill="#000100"/>
<path d="M66.1909 66.8081C66.6607 66.8081 67.0415 66.4258 67.0415 65.9543C67.0415 65.4827 66.6607 65.1004 66.1909 65.1004C65.7212 65.1004 65.3403 65.4827 65.3403 65.9543C65.3403 66.4258 65.7212 66.8081 66.1909 66.8081Z" fill="#000100"/>
<path d="M68.126 68.8786C68.5958 68.8786 68.9766 68.4963 68.9766 68.0248C68.9766 67.5532 68.5958 67.1709 68.126 67.1709C67.6562 67.1709 67.2754 67.5532 67.2754 68.0248C67.2754 68.4963 67.6562 68.8786 68.126 68.8786Z" fill="#000100"/>
<path d="M70.0662 70.8263C70.4684 70.8263 70.7945 70.499 70.7945 70.0952C70.7945 69.6915 70.4684 69.3641 70.0662 69.3641C69.664 69.3641 69.3379 69.6915 69.3379 70.0952C69.3379 70.499 69.664 70.8263 70.0662 70.8263Z" fill="#000100"/>
<path d="M72.1287 72.8912C72.5309 72.8912 72.857 72.5639 72.857 72.1601C72.857 71.7564 72.5309 71.429 72.1287 71.429C71.7265 71.429 71.4004 71.7564 71.4004 72.1601C71.4004 72.5639 71.7265 72.8912 72.1287 72.8912Z" fill="#000100"/>
<path d="M74.0689 74.8389C74.4035 74.8389 74.6749 74.5666 74.6749 74.2306C74.6749 73.8947 74.4035 73.6223 74.0689 73.6223C73.7342 73.6223 73.4629 73.8947 73.4629 74.2306C73.4629 74.5666 73.7342 74.8389 74.0689 74.8389Z" fill="#000100"/>
<path d="M76.0093 76.9094C76.344 76.9094 76.6153 76.6371 76.6153 76.3011C76.6153 75.9652 76.344 75.6928 76.0093 75.6928C75.6746 75.6928 75.4033 75.9652 75.4033 76.3011C75.4033 76.6371 75.6746 76.9094 76.0093 76.9094Z" fill="#000100"/>
<path d="M78.0716 78.8571C78.3387 78.8571 78.5552 78.6398 78.5552 78.3716C78.5552 78.1035 78.3387 77.8861 78.0716 77.8861C77.8044 77.8861 77.5879 78.1035 77.5879 78.3716C77.5879 78.6398 77.8044 78.8571 78.0716 78.8571Z" fill="#000100"/>
<path d="M80.0066 80.9221C80.2738 80.9221 80.4903 80.7047 80.4903 80.4365C80.4903 80.1684 80.2738 79.951 80.0066 79.951C79.7395 79.951 79.5229 80.1684 79.5229 80.4365C79.5229 80.7047 79.7395 80.9221 80.0066 80.9221Z" fill="#000100"/>
<path d="M81.9468 82.8698C82.1464 82.8698 82.3082 82.7074 82.3082 82.507C82.3082 82.3067 82.1464 82.1443 81.9468 82.1443C81.7472 82.1443 81.5854 82.3067 81.5854 82.507C81.5854 82.7074 81.7472 82.8698 81.9468 82.8698Z" fill="#000100"/>
<path d="M83.8868 84.9402C84.0863 84.9402 84.2481 84.7778 84.2481 84.5775C84.2481 84.3771 84.0863 84.2147 83.8868 84.2147C83.6872 84.2147 83.5254 84.3771 83.5254 84.5775C83.5254 84.7778 83.6872 84.9402 83.8868 84.9402Z" fill="#000100"/>
<path d="M62.3106 66.8081C62.7803 66.8081 63.1612 66.4258 63.1612 65.9543C63.1612 65.4827 62.7803 65.1004 62.3106 65.1004C61.8408 65.1004 61.46 65.4827 61.46 65.9543C61.46 66.4258 61.8408 66.8081 62.3106 66.8081Z" fill="#000100"/>
<path d="M64.251 68.8786C64.7208 68.8786 65.1016 68.4963 65.1016 68.0248C65.1016 67.5532 64.7208 67.1709 64.251 67.1709C63.7812 67.1709 63.4004 67.5532 63.4004 68.0248C63.4004 68.4963 63.7812 68.8786 64.251 68.8786Z" fill="#000100"/>
<path d="M66.1912 70.8263C66.5934 70.8263 66.9195 70.499 66.9195 70.0952C66.9195 69.6915 66.5934 69.3641 66.1912 69.3641C65.789 69.3641 65.4629 69.6915 65.4629 70.0952C65.4629 70.499 65.789 70.8263 66.1912 70.8263Z" fill="#000100"/>
<path d="M68.1258 72.8912C68.528 72.8912 68.854 72.5639 68.854 72.1601C68.854 71.7564 68.528 71.429 68.1258 71.429C67.7235 71.429 67.3975 71.7564 67.3975 72.1601C67.3975 72.5639 67.7235 72.8912 68.1258 72.8912Z" fill="#000100"/>
<path d="M70.1885 74.8389C70.5232 74.8389 70.7945 74.5666 70.7945 74.2306C70.7945 73.8947 70.5232 73.6223 70.1885 73.6223C69.8538 73.6223 69.5825 73.8947 69.5825 74.2306C69.5825 74.5666 69.8538 74.8389 70.1885 74.8389Z" fill="#000100"/>
<path d="M72.1285 76.9094C72.4631 76.9094 72.7344 76.6371 72.7344 76.3011C72.7344 75.9652 72.4631 75.6928 72.1285 75.6928C71.7938 75.6928 71.5225 75.9652 71.5225 76.3011C71.5225 76.6371 71.7938 76.9094 72.1285 76.9094Z" fill="#000100"/>
<path d="M74.0691 78.8571C74.3362 78.8571 74.5528 78.6398 74.5528 78.3716C74.5528 78.1035 74.3362 77.8861 74.0691 77.8861C73.802 77.8861 73.5854 78.1035 73.5854 78.3716C73.5854 78.6398 73.802 78.8571 74.0691 78.8571Z" fill="#000100"/>
<path d="M76.1316 80.9221C76.3987 80.9221 76.6153 80.7047 76.6153 80.4365C76.6153 80.1684 76.3987 79.951 76.1316 79.951C75.8645 79.951 75.6479 80.1684 75.6479 80.4365C75.6479 80.7047 75.8645 80.9221 76.1316 80.9221Z" fill="#000100"/>
<path d="M78.0718 82.8698C78.2714 82.8698 78.4332 82.7074 78.4332 82.507C78.4332 82.3067 78.2714 82.1443 78.0718 82.1443C77.8722 82.1443 77.7104 82.3067 77.7104 82.507C77.7104 82.7074 77.8722 82.8698 78.0718 82.8698Z" fill="#000100"/>
<path d="M80.0064 84.9402C80.206 84.9402 80.3678 84.7778 80.3678 84.5775C80.3678 84.3771 80.206 84.2147 80.0064 84.2147C79.8068 84.2147 79.645 84.3771 79.645 84.5775C79.645 84.7778 79.8068 84.9402 80.0064 84.9402Z" fill="#000100"/>
<path d="M60.3701 68.8786C60.8399 68.8786 61.2207 68.4963 61.2207 68.0248C61.2207 67.5532 60.8399 67.1709 60.3701 67.1709C59.9004 67.1709 59.5195 67.5532 59.5195 68.0248C59.5195 68.4963 59.9004 68.8786 60.3701 68.8786Z" fill="#000100"/>
<path d="M62.3108 70.8263C62.713 70.8263 63.0391 70.499 63.0391 70.0952C63.0391 69.6915 62.713 69.3641 62.3108 69.3641C61.9086 69.3641 61.5825 69.6915 61.5825 70.0952C61.5825 70.499 61.9086 70.8263 62.3108 70.8263Z" fill="#000100"/>
<path d="M64.2508 72.8912C64.653 72.8912 64.979 72.5639 64.979 72.1601C64.979 71.7564 64.653 71.429 64.2508 71.429C63.8485 71.429 63.5225 71.7564 63.5225 72.1601C63.5225 72.5639 63.8485 72.8912 64.2508 72.8912Z" fill="#000100"/>
<path d="M66.1909 74.8389C66.5256 74.8389 66.7969 74.5666 66.7969 74.2306C66.7969 73.8947 66.5256 73.6223 66.1909 73.6223C65.8563 73.6223 65.585 73.8947 65.585 74.2306C65.585 74.5666 65.8563 74.8389 66.1909 74.8389Z" fill="#000100"/>
<path d="M68.2481 76.9094C68.5827 76.9094 68.8541 76.6371 68.8541 76.3011C68.8541 75.9652 68.5827 75.6928 68.2481 75.6928C67.9134 75.6928 67.6421 75.9652 67.6421 76.3011C67.6421 76.6371 67.9134 76.9094 68.2481 76.9094Z" fill="#000100"/>
<path d="M70.1883 78.8571C70.4554 78.8571 70.6719 78.6398 70.6719 78.3716C70.6719 78.1035 70.4554 77.8861 70.1883 77.8861C69.9211 77.8861 69.7046 78.1035 69.7046 78.3716C69.7046 78.6398 69.9211 78.8571 70.1883 78.8571Z" fill="#000100"/>
<path d="M72.1287 80.9221C72.3958 80.9221 72.6124 80.7047 72.6124 80.4365C72.6124 80.1684 72.3958 79.951 72.1287 79.951C71.8616 79.951 71.645 80.1684 71.645 80.4365C71.645 80.7047 71.8616 80.9221 72.1287 80.9221Z" fill="#000100"/>
<path d="M74.191 82.8698C74.3905 82.8698 74.5523 82.7074 74.5523 82.507C74.5523 82.3067 74.3905 82.1443 74.191 82.1443C73.9914 82.1443 73.8296 82.3067 73.8296 82.507C73.8296 82.7074 73.9914 82.8698 74.191 82.8698Z" fill="#000100"/>
<path d="M76.1314 84.9402C76.331 84.9402 76.4928 84.7778 76.4928 84.5775C76.4928 84.3771 76.331 84.2147 76.1314 84.2147C75.9318 84.2147 75.77 84.3771 75.77 84.5775C75.77 84.7778 75.9318 84.9402 76.1314 84.9402Z" fill="#000100"/>
<path d="M58.4299 70.8263C58.8322 70.8263 59.1582 70.499 59.1582 70.0952C59.1582 69.6915 58.8322 69.3641 58.4299 69.3641C58.0277 69.3641 57.7017 69.6915 57.7017 70.0952C57.7017 70.499 58.0277 70.8263 58.4299 70.8263Z" fill="#000100"/>
<path d="M60.3704 72.8912C60.7726 72.8912 61.0987 72.5639 61.0987 72.1601C61.0987 71.7564 60.7726 71.429 60.3704 71.429C59.9682 71.429 59.6421 71.7564 59.6421 72.1601C59.6421 72.5639 59.9682 72.8912 60.3704 72.8912Z" fill="#000100"/>
<path d="M62.3106 74.8389C62.6452 74.8389 62.9166 74.5666 62.9166 74.2306C62.9166 73.8947 62.6452 73.6223 62.3106 73.6223C61.9759 73.6223 61.7046 73.8947 61.7046 74.2306C61.7046 74.5666 61.9759 74.8389 62.3106 74.8389Z" fill="#000100"/>
<path d="M64.251 76.9094C64.5857 76.9094 64.857 76.6371 64.857 76.3011C64.857 75.9652 64.5857 75.6928 64.251 75.6928C63.9163 75.6928 63.645 75.9652 63.645 76.3011C63.645 76.6371 63.9163 76.9094 64.251 76.9094Z" fill="#000100"/>
<path d="M66.3079 78.8571C66.575 78.8571 66.7916 78.6398 66.7916 78.3716C66.7916 78.1035 66.575 77.8861 66.3079 77.8861C66.0408 77.8861 65.8242 78.1035 65.8242 78.3716C65.8242 78.6398 66.0408 78.8571 66.3079 78.8571Z" fill="#000100"/>
<path d="M68.2483 80.9221C68.5155 80.9221 68.732 80.7047 68.732 80.4365C68.732 80.1684 68.5155 79.951 68.2483 79.951C67.9812 79.951 67.7646 80.1684 67.7646 80.4365C67.7646 80.7047 67.9812 80.9221 68.2483 80.9221Z" fill="#000100"/>
<path d="M70.1885 82.8698C70.3881 82.8698 70.5499 82.7074 70.5499 82.507C70.5499 82.3067 70.3881 82.1443 70.1885 82.1443C69.9889 82.1443 69.8271 82.3067 69.8271 82.507C69.8271 82.7074 69.9889 82.8698 70.1885 82.8698Z" fill="#000100"/>
<path d="M72.251 84.9402C72.4506 84.9402 72.6124 84.7778 72.6124 84.5775C72.6124 84.3771 72.4506 84.2147 72.251 84.2147C72.0514 84.2147 71.8896 84.3771 71.8896 84.5775C71.8896 84.7778 72.0514 84.9402 72.251 84.9402Z" fill="#000100"/>
<path d="M56.49 72.8912C56.8922 72.8912 57.2183 72.5639 57.2183 72.1601C57.2183 71.7564 56.8922 71.429 56.49 71.429C56.0878 71.429 55.7617 71.7564 55.7617 72.1601C55.7617 72.5639 56.0878 72.8912 56.49 72.8912Z" fill="#000100"/>
<path d="M58.4302 74.8389C58.7649 74.8389 59.0362 74.5666 59.0362 74.2306C59.0362 73.8947 58.7649 73.6223 58.4302 73.6223C58.0955 73.6223 57.8242 73.8947 57.8242 74.2306C57.8242 74.5666 58.0955 74.8389 58.4302 74.8389Z" fill="#000100"/>
<path d="M60.3701 76.9094C60.7048 76.9094 60.9761 76.6371 60.9761 76.3011C60.9761 75.9652 60.7048 75.6928 60.3701 75.6928C60.0355 75.6928 59.7642 75.9652 59.7642 76.3011C59.7642 76.6371 60.0355 76.9094 60.3701 76.9094Z" fill="#000100"/>
<path d="M62.4329 78.8571C62.7 78.8571 62.9166 78.6398 62.9166 78.3716C62.9166 78.1035 62.7 77.8861 62.4329 77.8861C62.1658 77.8861 61.9492 78.1035 61.9492 78.3716C61.9492 78.6398 62.1658 78.8571 62.4329 78.8571Z" fill="#000100"/>
<path d="M64.3733 80.9221C64.6405 80.9221 64.857 80.7047 64.857 80.4365C64.857 80.1684 64.6405 79.951 64.3733 79.951C64.1062 79.951 63.8896 80.1684 63.8896 80.4365C63.8896 80.7047 64.1062 80.9221 64.3733 80.9221Z" fill="#000100"/>
<path d="M66.3077 82.8698C66.5072 82.8698 66.669 82.7074 66.669 82.507C66.669 82.3067 66.5072 82.1443 66.3077 82.1443C66.1081 82.1443 65.9463 82.3067 65.9463 82.507C65.9463 82.7074 66.1081 82.8698 66.3077 82.8698Z" fill="#000100"/>
<path d="M68.2481 84.9402C68.4477 84.9402 68.6095 84.7778 68.6095 84.5775C68.6095 84.3771 68.4477 84.2147 68.2481 84.2147C68.0485 84.2147 67.8867 84.3771 67.8867 84.5775C67.8867 84.7778 68.0485 84.9402 68.2481 84.9402Z" fill="#000100"/>
<path d="M54.5493 74.8389C54.884 74.8389 55.1553 74.5666 55.1553 74.2306C55.1553 73.8947 54.884 73.6223 54.5493 73.6223C54.2147 73.6223 53.9434 73.8947 53.9434 74.2306C53.9434 74.5666 54.2147 74.8389 54.5493 74.8389Z" fill="#000100"/>
<path d="M56.4898 76.9094C56.8244 76.9094 57.0958 76.6371 57.0958 76.3011C57.0958 75.9652 56.8244 75.6928 56.4898 75.6928C56.1551 75.6928 55.8838 75.9652 55.8838 76.3011C55.8838 76.6371 56.1551 76.9094 56.4898 76.9094Z" fill="#000100"/>
<path d="M58.43 78.8571C58.6971 78.8571 58.9136 78.6398 58.9136 78.3716C58.9136 78.1035 58.6971 77.8861 58.43 77.8861C58.1628 77.8861 57.9463 78.1035 57.9463 78.3716C57.9463 78.6398 58.1628 78.8571 58.43 78.8571Z" fill="#000100"/>
<path d="M60.4925 80.9221C60.7596 80.9221 60.9761 80.7047 60.9761 80.4365C60.9761 80.1684 60.7596 79.951 60.4925 79.951C60.2253 79.951 60.0088 80.1684 60.0088 80.4365C60.0088 80.7047 60.2253 80.9221 60.4925 80.9221Z" fill="#000100"/>
<path d="M62.4331 82.8698C62.6327 82.8698 62.7945 82.7074 62.7945 82.507C62.7945 82.3067 62.6327 82.1443 62.4331 82.1443C62.2336 82.1443 62.0718 82.3067 62.0718 82.507C62.0718 82.7074 62.2336 82.8698 62.4331 82.8698Z" fill="#000100"/>
<path d="M64.3731 84.9402C64.5727 84.9402 64.7345 84.7778 64.7345 84.5775C64.7345 84.3771 64.5727 84.2147 64.3731 84.2147C64.1735 84.2147 64.0117 84.3771 64.0117 84.5775C64.0117 84.7778 64.1735 84.9402 64.3731 84.9402Z" fill="#000100"/>
<path d="M52.6094 76.9094C52.9441 76.9094 53.2154 76.6371 53.2154 76.3011C53.2154 75.9652 52.9441 75.6928 52.6094 75.6928C52.2747 75.6928 52.0034 75.9652 52.0034 76.3011C52.0034 76.6371 52.2747 76.9094 52.6094 76.9094Z" fill="#000100"/>
<path d="M54.5496 78.8571C54.8167 78.8571 55.0333 78.6398 55.0333 78.3716C55.0333 78.1035 54.8167 77.8861 54.5496 77.8861C54.2825 77.8861 54.0659 78.1035 54.0659 78.3716C54.0659 78.6398 54.2825 78.8571 54.5496 78.8571Z" fill="#000100"/>
<path d="M56.49 80.9221C56.7571 80.9221 56.9737 80.7047 56.9737 80.4365C56.9737 80.1684 56.7571 79.951 56.49 79.951C56.2229 79.951 56.0063 80.1684 56.0063 80.4365C56.0063 80.7047 56.2229 80.9221 56.49 80.9221Z" fill="#000100"/>
<path d="M58.5523 82.8698C58.7519 82.8698 58.9137 82.7074 58.9137 82.507C58.9137 82.3067 58.7519 82.1443 58.5523 82.1443C58.3527 82.1443 58.1909 82.3067 58.1909 82.507C58.1909 82.7074 58.3527 82.8698 58.5523 82.8698Z" fill="#000100"/>
<path d="M60.4927 84.9402C60.6923 84.9402 60.8541 84.7778 60.8541 84.5775C60.8541 84.3771 60.6923 84.2147 60.4927 84.2147C60.2931 84.2147 60.1313 84.3771 60.1313 84.5775C60.1313 84.7778 60.2931 84.9402 60.4927 84.9402Z" fill="#000100"/>
<path d="M50.6746 78.8571C50.9417 78.8571 51.1583 78.6398 51.1583 78.3716C51.1583 78.1035 50.9417 77.8861 50.6746 77.8861C50.4075 77.8861 50.1909 78.1035 50.1909 78.3716C50.1909 78.6398 50.4075 78.8571 50.6746 78.8571Z" fill="#000100"/>
<path d="M52.6092 80.9221C52.8763 80.9221 53.0928 80.7047 53.0928 80.4365C53.0928 80.1684 52.8763 79.951 52.6092 79.951C52.342 79.951 52.1255 80.1684 52.1255 80.4365C52.1255 80.7047 52.342 80.9221 52.6092 80.9221Z" fill="#000100"/>
<path d="M54.5494 82.8698C54.7489 82.8698 54.9107 82.7074 54.9107 82.507C54.9107 82.3067 54.7489 82.1443 54.5494 82.1443C54.3498 82.1443 54.188 82.3067 54.188 82.507C54.188 82.7074 54.3498 82.8698 54.5494 82.8698Z" fill="#000100"/>
<path d="M56.6123 84.9402C56.8119 84.9402 56.9737 84.7778 56.9737 84.5775C56.9737 84.3771 56.8119 84.2147 56.6123 84.2147C56.4128 84.2147 56.251 84.3771 56.251 84.5775C56.251 84.7778 56.4128 84.9402 56.6123 84.9402Z" fill="#000100"/>
<path d="M48.7342 80.9221C49.0013 80.9221 49.2178 80.7047 49.2178 80.4365C49.2178 80.1684 49.0013 79.951 48.7342 79.951C48.467 79.951 48.2505 80.1684 48.2505 80.4365C48.2505 80.7047 48.467 80.9221 48.7342 80.9221Z" fill="#000100"/>
<path d="M50.6748 82.8698C50.8744 82.8698 51.0362 82.7074 51.0362 82.507C51.0362 82.3067 50.8744 82.1443 50.6748 82.1443C50.4753 82.1443 50.3135 82.3067 50.3135 82.507C50.3135 82.7074 50.4753 82.8698 50.6748 82.8698Z" fill="#000100"/>
<path d="M52.6094 84.9402C52.809 84.9402 52.9708 84.7778 52.9708 84.5775C52.9708 84.3771 52.809 84.2147 52.6094 84.2147C52.4098 84.2147 52.248 84.3771 52.248 84.5775C52.248 84.7778 52.4098 84.9402 52.6094 84.9402Z" fill="#000100"/>
<path d="M46.794 82.8698C46.9936 82.8698 47.1554 82.7074 47.1554 82.507C47.1554 82.3067 46.9936 82.1443 46.794 82.1443C46.5944 82.1443 46.4326 82.3067 46.4326 82.507C46.4326 82.7074 46.5944 82.8698 46.794 82.8698Z" fill="#000100"/>
<path d="M48.7344 84.9402C48.934 84.9402 49.0958 84.7778 49.0958 84.5775C49.0958 84.3771 48.934 84.2147 48.7344 84.2147C48.5348 84.2147 48.373 84.3771 48.373 84.5775C48.373 84.7778 48.5348 84.9402 48.7344 84.9402Z" fill="#000100"/>
<path d="M44.854 84.9402C45.0536 84.9402 45.2154 84.7778 45.2154 84.5775C45.2154 84.3771 45.0536 84.2147 44.854 84.2147C44.6545 84.2147 44.4927 84.3771 44.4927 84.5775C44.4927 84.7778 44.6545 84.9402 44.854 84.9402Z" fill="#000100"/>
<path d="M231.663 25.6774V26.6485H232.775C232.897 26.6485 233.014 26.6485 233.014 26.5257L233.136 26.4029V26.1629C233.136 26.0402 233.136 25.9174 233.014 25.9174L232.897 25.7946H231.663V25.6774ZM230.935 25.3091C230.929 25.2599 230.934 25.2099 230.949 25.163C230.965 25.1161 230.992 25.0735 231.027 25.0384C231.062 25.0034 231.104 24.9768 231.151 24.9609C231.198 24.9449 231.247 24.9399 231.296 24.9463H232.753C232.924 24.9283 233.095 24.9718 233.237 25.0691H233.359C233.481 25.0691 233.598 25.1863 233.72 25.3091L233.843 25.4318C233.843 25.4644 233.855 25.4956 233.878 25.5187C233.901 25.5417 233.932 25.5546 233.965 25.5546C234.087 25.7946 234.209 25.9174 234.209 26.1629C234.227 26.3342 234.184 26.5063 234.087 26.6485V26.7712C234.087 26.894 233.965 27.0112 233.843 27.134L233.72 27.2568L234.571 28.7189C234.693 28.8361 234.571 29.0817 234.449 29.2045C234.326 29.3273 234.087 29.2045 233.965 29.0817L233.114 27.5023H231.663V28.8361C231.67 28.8879 231.665 28.9405 231.65 28.9904C231.634 29.0402 231.608 29.0862 231.574 29.1253C231.54 29.1644 231.497 29.1958 231.45 29.2172C231.402 29.2386 231.351 29.2497 231.299 29.2497C231.247 29.2497 231.196 29.2386 231.148 29.2172C231.101 29.1958 231.059 29.1644 231.024 29.1253C230.99 29.0862 230.964 29.0402 230.949 28.9904C230.933 28.9405 230.929 28.8879 230.935 28.8361V25.3091ZM232.386 23.7297C231.956 23.7227 231.53 23.8054 231.134 23.9725C230.737 24.1397 230.38 24.3877 230.084 24.7008C229.476 25.3162 229.129 26.1444 229.117 27.0112C229.124 27.8798 229.471 28.7108 230.082 29.3256C230.693 29.9403 231.521 30.2896 232.386 30.2983C233.252 30.291 234.081 29.9424 234.693 29.3275C235.306 28.7126 235.653 27.8808 235.66 27.0112C235.648 26.1444 235.301 25.3162 234.693 24.7008C234.397 24.3873 234.038 24.139 233.641 23.9719C233.244 23.8047 232.817 23.7222 232.386 23.7297ZM232.386 22.9986C233.435 23.0347 234.432 23.4688 235.175 24.2135C235.918 24.9582 236.351 25.958 236.389 27.0112C236.353 28.0654 235.919 29.0666 235.176 29.8125C234.433 30.5583 233.436 30.9933 232.386 31.0294C231.337 30.9919 230.341 30.5563 229.599 29.8106C228.857 29.0649 228.425 28.0645 228.389 27.0112C228.426 25.9589 228.859 24.9599 229.601 24.2154C230.343 23.4708 231.338 23.036 232.386 22.9986Z" fill="#000100"/>
</g>
<defs>
<clipPath id="clip0_39_575">
<rect width="236.389" height="92" fill="white"/>
</clipPath>
</defs>
</svg>
