<svg width="192" height="22" viewBox="0 0 192 22" fill="none" xmlns="http://www.w3.org/2000/svg">
<path d="M0 0.578946H4.77017V8.75658H8.6701L14.0204 0.578946H19.3063L12.6345 10.7105L19.822 21.3849H14.3105L8.89572 13.2434H4.77017V21.3849H0V0.578946Z" fill="#0F64DA"/>
<path d="M30.7571 22C27.3191 22 24.7084 21.0954 22.925 19.2862C21.163 17.477 20.282 14.8114 20.282 11.2895V10.9638C20.282 7.58662 21.2382 4.92105 23.1506 2.96711C25.0629 0.989035 27.6199 0 30.8215 0C34.0661 0 36.6338 0.976973 38.5247 2.93092C40.4156 4.88487 41.361 7.5625 41.361 10.9638V11.2895C41.361 14.6667 40.4263 17.2961 38.5569 19.1776C36.709 21.0592 34.1091 22 30.7571 22ZM30.8215 17.477C32.6909 17.477 34.1091 16.9463 35.076 15.8849C36.0644 14.8235 36.5586 13.2796 36.5586 11.2533V10.9638C36.5586 8.84101 36.0644 7.22478 35.076 6.11513C34.1091 4.98136 32.7017 4.41447 30.8537 4.41447C29.0273 4.41447 27.6092 4.98136 26.5993 6.11513C25.6109 7.2489 25.1167 8.86513 25.1167 10.9638V11.2533C25.1167 13.2796 25.6001 14.8235 26.567 15.8849C27.5555 16.9463 28.9736 17.477 30.8215 17.477Z" fill="#0F64DA"/>
<path d="M63.904 21.3849H59.1016V13.0987H49.4968V21.3849H44.7266V0.578946H49.4968V8.68421H59.1016V0.578946H63.904V21.3849Z" fill="#0F64DA"/>
<path d="M77.6547 22C74.2382 22 71.6383 21.0954 69.8549 19.2862C68.0929 17.4529 67.2119 14.7873 67.2119 11.2895V10.9638C67.2119 7.61075 68.1681 4.94518 70.0805 2.96711C71.9928 0.989035 74.5498 0 77.7514 0C80.8456 0 83.2844 0.783991 85.0678 2.35197C86.8727 3.91996 87.9041 6.17544 88.162 9.11842V9.1546H83.134V9.08224C82.9191 7.51425 82.3712 6.3443 81.4902 5.57237C80.6092 4.80044 79.3737 4.41447 77.7836 4.41447C75.9572 4.41447 74.5498 4.98136 73.5614 6.11513C72.573 7.2489 72.0788 8.86513 72.0788 10.9638V11.2533C72.0788 13.2796 72.5622 14.8235 73.5292 15.8849C74.4961 16.9463 75.9035 17.477 77.7514 17.477C79.3844 17.477 80.6414 17.091 81.5224 16.3191C82.4034 15.523 82.9513 14.3169 83.1662 12.7007V12.6645H88.162V12.7368C87.9471 15.7522 86.9372 18.0559 85.1323 19.648C83.3488 21.216 80.8563 22 77.6547 22Z" fill="#0F64DA"/>
<path d="M100.166 21.3849H95.3955V5.17434H88.8527V0.578946H106.709V5.17434H100.166V21.3849Z" fill="#0F64DA"/>
<path d="M127.475 21.3849H123.64L123.156 16.9342C122.404 18.5504 121.276 19.8048 119.772 20.6974C118.29 21.5658 116.538 22 114.519 22C112.327 22 110.64 21.5055 109.458 20.5164C108.298 19.5274 107.718 18.1162 107.718 16.2829C107.718 15.1009 107.933 14.0757 108.362 13.2072C108.814 12.3388 109.469 11.6393 110.329 11.1086C111.124 10.602 112.015 10.2281 113.004 9.98684C113.992 9.72149 115.679 9.45614 118.064 9.19079C120.041 8.97368 121.341 8.70833 121.964 8.39474C122.608 8.05702 122.931 7.52632 122.931 6.80263V6.76645C122.931 5.84978 122.555 5.16228 121.803 4.70395C121.072 4.22149 119.966 3.98026 118.483 3.98026C116.742 3.98026 115.442 4.29386 114.583 4.92105C113.723 5.54825 113.24 6.53728 113.133 7.88816H108.266C108.481 5.35526 109.437 3.41338 111.134 2.0625C112.853 0.6875 115.195 0 118.161 0C121.384 0 123.737 0.627193 125.219 1.88158C126.723 3.11184 127.475 5.07785 127.475 7.77961V21.3849ZM116.033 18.0559C117.946 18.0559 119.579 17.4287 120.932 16.1743C122.286 14.8958 122.963 13.4243 122.963 11.7599V11.0362C122.619 11.3498 122.114 11.6272 121.448 11.8684C120.804 12.0855 119.923 12.2664 118.805 12.4112C117.323 12.58 116.237 12.7489 115.55 12.9178C114.884 13.0866 114.347 13.3037 113.938 13.5691C113.53 13.8344 113.24 14.136 113.068 14.4737C112.896 14.7873 112.81 15.1732 112.81 15.6316V15.6678C112.81 16.4638 113.079 17.0669 113.616 17.477C114.153 17.8629 114.959 18.0559 116.033 18.0559Z" fill="#0F64DA"/>
<path d="M150.682 21.3849H145.879V13.0987H136.275V21.3849H131.504V0.578946H136.275V8.68421H145.879V0.578946H150.682V21.3849Z" fill="#0F64DA"/>
<path d="M164.69 21.3849H159.92V5.17434H153.377V0.578946H171.233V5.17434H164.69V21.3849Z" fill="#0F64DA"/>
<path d="M192 21.3849H188.165L187.681 16.9342C186.929 18.5504 185.801 19.8048 184.297 20.6974C182.814 21.5658 181.063 22 179.043 22C176.851 22 175.165 21.5055 173.983 20.5164C172.823 19.5274 172.242 18.1162 172.242 16.2829C172.242 15.1009 172.457 14.0757 172.887 13.2072C173.338 12.3388 173.994 11.6393 174.853 11.1086C175.648 10.602 176.54 10.2281 177.528 9.98684C178.517 9.72149 180.203 9.45614 182.589 9.19079C184.565 8.97368 185.865 8.70833 186.489 8.39474C187.133 8.05702 187.455 7.52632 187.455 6.80263V6.76645C187.455 5.84978 187.079 5.16228 186.327 4.70395C185.597 4.22149 184.49 3.98026 183.008 3.98026C181.267 3.98026 179.967 4.29386 179.108 4.92105C178.248 5.54825 177.765 6.53728 177.657 7.88816H172.79C173.005 5.35526 173.961 3.41338 175.659 2.0625C177.378 0.6875 179.72 0 182.685 0C185.908 0 188.261 0.627193 189.744 1.88158C191.248 3.11184 192 5.07785 192 7.77961V21.3849ZM180.558 18.0559C182.47 18.0559 184.103 17.4287 185.457 16.1743C186.811 14.8958 187.488 13.4243 187.488 11.7599V11.0362C187.144 11.3498 186.639 11.6272 185.973 11.8684C185.328 12.0855 184.447 12.2664 183.33 12.4112C181.847 12.58 180.762 12.7489 180.075 12.9178C179.408 13.0866 178.871 13.3037 178.463 13.5691C178.055 13.8344 177.765 14.136 177.593 14.4737C177.421 14.7873 177.335 15.1732 177.335 15.6316V15.6678C177.335 16.4638 177.604 17.0669 178.141 17.477C178.678 17.8629 179.484 18.0559 180.558 18.0559Z" fill="#0F64DA"/>
</svg>
